<svg width="77" height="81" viewBox="0 0 77 81" fill="none" xmlns="http://www.w3.org/2000/svg">
<path d="M23.9466 9.30026C24.0066 9.30026 24.0666 9.30026 24.1266 9.30026C29.5265 8.58028 34.9864 10.6802 40.3262 9.42026C43.3862 8.70028 46.0261 6.90032 48.846 5.58035C52.6259 3.90039 56.8858 3.42041 59.9458 6.60033C62.9457 9.66025 64.6856 13.6802 67.6856 16.7401C69.1255 18.18 70.7455 19.38 72.0055 21C74.3454 24.1199 73.2054 27.0598 72.0655 30.3597C70.5055 34.9196 70.8055 39.8395 72.4854 44.2794C74.2254 48.7793 76.3253 53.3992 73.6254 58.0191C71.4055 61.739 67.1456 63.6589 63.7857 66.1789C59.0458 69.6588 55.9858 75.2386 54.5459 80.8785C53.5259 78.8386 52.5059 76.7986 51.126 74.9986C46.9861 69.5988 41.2862 70.1988 35.2264 71.6387C29.3465 73.0187 25.5666 72.6587 21.1267 68.2788C18.6668 65.8189 16.2668 64.4389 13.2069 62.8789C10.507 61.499 8.40702 59.819 8.22703 56.5791C8.10703 54.1192 8.88701 51.7792 9.247 49.3793C10.507 39.8995 -0.172764 30.8997 7.74704 22.4999C9.72699 20.4 12.5469 19.5 14.3469 17.2201C17.4668 13.3802 18.4868 10.0802 23.9466 9.30026Z" fill="#022C36"/>
<path d="M28.9869 13.1398C26.7669 12.7798 23.287 12.3598 21.1871 13.4398C19.2671 14.3997 18.3671 17.0397 17.2272 18.6596C15.5472 21.0596 13.0273 22.6795 10.9873 24.7195C8.94735 26.7594 7.2674 29.5194 8.04738 32.4593C8.82736 35.4592 10.6873 38.1592 11.4073 41.2191C12.3073 44.879 11.5873 48.7189 11.6473 52.4988C11.6473 53.9988 11.8273 55.4987 12.6073 56.7587C13.4472 58.0787 14.8872 58.9186 16.2672 59.6986C18.6071 61.0786 20.8271 62.5786 22.927 64.2585C25.027 65.9385 27.1869 67.7984 29.8868 68.2184C32.1068 68.5184 34.3867 67.7384 36.5467 67.2584C39.1266 66.7185 41.7065 66.5385 44.3465 66.8385C48.6664 67.2584 53.1063 68.8184 57.1262 67.1984C59.1061 66.4185 60.6661 64.9185 62.226 63.4185C64.326 61.4386 66.3659 59.3986 68.4059 57.4187C69.2459 56.5787 70.1458 55.7387 70.6858 54.6588C71.8858 52.4388 71.5858 49.7389 70.7458 47.3389C69.9058 44.999 68.5859 42.839 67.6859 40.4391C66.6059 37.4992 66.2459 34.2593 66.6659 31.1393C66.9659 29.1594 67.5659 27.1194 67.1459 25.1395C66.4259 21.6596 62.946 19.5596 60.9061 16.6197C59.7661 14.9997 59.1061 13.1998 58.0261 11.5198C57.0062 9.89985 55.4462 8.39989 53.4663 8.15989C51.1863 7.9199 49.1464 9.47986 47.2864 10.7998C45.1865 12.2398 42.9065 13.5598 40.3866 14.0397C36.6067 14.8797 32.7668 13.7398 28.9869 13.1398Z" fill="#043E4B"/>
<path d="M13.5663 38.8796C12.0663 35.6997 10.2663 31.4398 12.1263 28.0798C14.0463 24.5999 18.0662 22.86 20.2261 19.56C20.7661 18.7201 19.4461 18.0001 18.9061 18.7801C16.5662 22.32 12.1263 24.0599 10.4463 28.1398C8.88638 31.8597 10.6263 36.2396 12.2463 39.6596C12.6663 40.4995 13.9863 39.7196 13.5663 38.8796Z" fill="white"/>
<path d="M60.7842 62.3387C61.9842 60.7788 63.3641 59.4588 64.8641 58.1988C66.1841 57.0588 67.504 55.7989 68.164 54.1189C68.824 52.499 68.884 50.699 68.524 49.019C68.104 47.2191 67.924 45.3591 67.024 43.7392C66.544 42.8992 65.2841 43.6792 65.7041 44.5192C66.544 46.0191 66.664 47.8191 67.084 49.439C67.444 51.059 67.324 52.799 66.484 54.2989C65.6441 55.7389 64.2641 56.7589 63.0641 57.8388C61.7442 58.9788 60.6042 60.2388 59.5242 61.6187C58.9242 62.3387 60.2442 63.1187 60.7842 62.3387Z" fill="white"/>
<path d="M36.2429 8.00795C41.1027 7.16797 45.1826 4.40804 49.7425 2.72808C53.8224 1.28812 58.3823 0.868127 62.0422 3.56806C64.0222 5.06802 65.3421 7.34797 67.5621 8.66793C68.4021 9.14792 69.1821 7.82795 68.3421 7.34797C66.3021 6.148 65.1022 4.04805 63.2422 2.60808C61.5022 1.22812 59.4623 0.388139 57.3023 0.088146C52.6825 -0.451841 48.3026 1.58811 44.2227 3.50806C41.5827 4.76803 38.8828 5.968 35.9429 6.50799C34.8629 6.74798 35.2829 8.18795 36.2429 8.00795Z" fill="white"/>
<path d="M10.206 12.3602C10.5042 12.3602 10.746 12.1185 10.746 11.8203C10.746 11.522 10.5042 11.2803 10.206 11.2803C9.90778 11.2803 9.66602 11.522 9.66602 11.8203C9.66602 12.1185 9.90778 12.3602 10.206 12.3602Z" fill="white"/>
<path d="M13.6312 69.1054C15.3112 69.3454 16.6911 70.4854 17.8311 71.6254C19.0911 72.8853 20.2311 74.2653 21.611 75.3453C23.231 76.6052 25.1509 77.2652 27.2509 77.2652C29.6508 77.2652 31.9308 76.6052 34.2107 76.1253C36.6706 75.5853 39.4306 75.2853 41.7705 76.6052C42.6105 77.0852 43.3905 75.7653 42.5505 75.2853C38.1706 72.7653 33.3707 75.1653 28.8108 75.7053C26.5909 75.9453 24.431 75.6453 22.571 74.2053C21.131 73.0653 19.9311 71.6254 18.6111 70.3654C17.1711 68.9854 15.5512 67.8455 13.5112 67.6055C12.6712 67.4855 12.7312 68.9854 13.6312 69.1054Z" fill="white"/>
<path d="M8.80128 2.22043C9.34126 0.960465 10.3612 0.000488281 12.0412 0.000488281C13.1212 0.000488281 14.2611 0.540475 14.8011 1.50045C15.5211 2.76042 14.9811 4.20039 14.4411 5.40036C14.0811 6.18034 13.6012 6.90032 13.1212 7.6203C11.9212 9.24026 11.6212 10.2002 11.6812 12.3002C11.0212 11.5202 10.2412 10.7402 9.64126 9.90024C8.68128 8.58028 8.38129 6.78032 8.32129 5.22036C8.32129 4.20038 8.44129 3.12041 8.80128 2.22043Z" fill="white"/>
<path d="M3.88195 7.44086C2.92197 6.96087 1.842 6.90088 0.882021 7.80085C0.282036 8.34084 -0.137954 9.24082 0.0420415 10.0808C0.282036 11.1608 1.36201 11.7608 2.26199 12.1207C4.12194 12.9007 6.52188 13.2607 8.50183 13.2607C7.36186 11.2208 6.04189 8.52084 3.88195 7.44086Z" fill="white"/>
<path d="M73.4495 74.3185C74.4695 74.6185 75.5495 74.4985 76.3895 73.4785C76.9295 72.8185 77.1694 71.9185 76.8694 71.0785C76.5095 70.0586 75.3695 69.6386 74.3495 69.3986C73.6895 69.2186 73.0295 69.1586 72.3696 69.0986C70.8096 68.9786 70.0896 68.6786 68.8896 67.5986C69.0696 68.3786 69.0696 69.2186 69.3096 69.9986C69.6096 71.1985 70.5096 72.3385 71.4096 73.1185C72.0096 73.6585 72.7296 74.0785 73.4495 74.3185Z" fill="white"/>
<g clip-path="url(#clip0_233_6507)">
<path d="M39.8514 52.8205C39.5805 52.6715 39.4858 52.4481 39.4925 52.1298C39.5061 51.1007 39.4993 50.0715 39.4993 49.0423C39.4993 48.7241 39.655 48.5142 39.9191 48.4668C40.2102 48.4126 40.5081 48.6293 40.5081 48.9408C40.5149 50.0715 40.5149 51.2022 40.5081 52.3262C40.5081 52.5699 40.3321 52.6918 40.1561 52.8137C40.0545 52.8205 39.9529 52.8205 39.8514 52.8205Z" fill="white"/>
<path d="M40.2168 32.7515C42.3293 32.765 44.4418 33.4827 46.3986 34.6879C48.4095 35.927 50.0887 37.5317 51.4902 39.4275C51.7475 39.7796 51.7475 39.9218 51.4902 40.2671C49.6689 42.691 47.4684 44.6681 44.672 45.9072C41.246 47.4306 37.8673 47.2546 34.5564 45.5416C32.1121 44.2754 30.135 42.4541 28.4965 40.2535C28.246 39.915 28.246 39.7728 28.4965 39.4343C30.372 36.9291 32.6605 34.9249 35.5652 33.6723C36.9126 33.0968 38.5579 32.7515 40.2168 32.7515ZM39.9392 45.9275C41.4355 45.9207 42.8236 45.6093 44.1439 45.0338C46.6965 43.9233 48.7142 42.1494 50.434 39.9963C50.5423 39.8676 50.5085 39.7864 50.4204 39.6713C48.9647 37.8364 47.272 36.2791 45.2001 35.1619C42.16 33.5166 39.0387 33.2728 35.8361 34.6676C33.2902 35.778 31.2861 37.5452 29.573 39.6916C29.4512 39.8405 29.5121 39.9218 29.6069 40.0369C30.873 41.628 32.3355 43.016 34.0689 44.0926C35.8699 45.2233 37.8267 45.914 39.9392 45.9275Z" fill="white"/>
<path d="M40.5079 29.0752C40.5079 29.5965 40.5079 30.1179 40.5079 30.646C40.5079 30.9981 40.3115 31.2215 40.0136 31.2283C39.7089 31.2351 39.499 31.0049 39.499 30.6392C39.499 29.5762 39.499 28.5132 39.499 27.4569C39.499 27.1049 39.6954 26.8814 39.9933 26.8747C40.298 26.8679 40.5079 27.0981 40.5079 27.4637C40.5079 27.9986 40.5079 28.5403 40.5079 29.0752Z" fill="white"/>
<path d="M30.3309 30.6729C30.5137 30.7744 30.6559 30.8218 30.7507 30.9166C31.4548 31.6072 32.1522 32.3046 32.8496 33.0088C33.0866 33.2525 33.0934 33.5369 32.8835 33.7536C32.6736 33.9635 32.3757 33.9635 32.1387 33.7333C31.4277 33.0291 30.7236 32.3182 30.0194 31.614C29.8569 31.4515 29.7824 31.2348 29.9111 31.0385C30.0059 30.8963 30.1819 30.8015 30.3309 30.6729Z" fill="white"/>
<path d="M49.6416 30.6729C49.7973 30.7947 49.9869 30.8692 50.0546 31.0046C50.1223 31.14 50.0817 31.3364 50.0614 31.4989C50.0479 31.5666 49.9666 31.6343 49.9057 31.6952C49.2421 32.3588 48.5854 33.0223 47.915 33.6723C47.7932 33.7874 47.59 33.8958 47.4343 33.8822C47.2854 33.8687 47.1161 33.713 47.0213 33.5708C46.9062 33.3947 46.9807 33.1916 47.1229 33.0426C47.3666 32.7854 47.6239 32.5416 47.8744 32.2911C48.3145 31.851 48.7546 31.4041 49.2015 30.9708C49.3166 30.8557 49.4723 30.7812 49.6416 30.6729Z" fill="white"/>
<path d="M33.0942 46.7603C32.9858 46.9431 32.9384 47.092 32.8369 47.1936C32.153 47.891 31.4556 48.5816 30.7582 49.2722C30.5145 49.5092 30.2301 49.5228 30.0134 49.3129C29.79 49.103 29.7968 48.7983 30.0405 48.5545C30.7312 47.8571 31.4218 47.1733 32.1192 46.4826C32.2884 46.3134 32.4983 46.2186 32.715 46.354C32.864 46.442 32.9655 46.6113 33.0942 46.7603Z" fill="white"/>
<path d="M47.4345 46.2256C47.6173 46.3339 47.7663 46.3813 47.8679 46.4829C48.5653 47.1667 49.2627 47.8574 49.9465 48.5548C50.197 48.8053 50.197 49.1032 49.9804 49.3131C49.7705 49.5162 49.4793 49.5094 49.2356 49.2725C48.5314 48.5818 47.834 47.8777 47.1366 47.1803C46.9741 47.0178 46.8929 46.8079 47.0147 46.6048C47.1163 46.4626 47.2856 46.361 47.4345 46.2256Z" fill="white"/>
<path d="M40.027 35.2837C42.4036 35.2972 44.3806 37.1389 44.5634 39.5155C44.7395 41.8379 43.0739 43.9571 40.7582 44.3431C37.6775 44.8576 34.9895 42.1832 35.4838 39.1092C35.5379 38.7639 35.7681 38.5675 36.0593 38.6014C36.364 38.642 36.54 38.8722 36.4858 39.2311C36.3978 39.8472 36.4384 40.4431 36.6416 41.0254C37.2306 42.6774 38.9843 43.6728 40.6905 43.3207C42.4577 42.955 43.6765 41.3504 43.5411 39.5696C43.365 37.2946 41.0968 35.7644 38.9098 36.455C38.8286 36.4821 38.7541 36.516 38.6661 36.5295C38.3884 36.5905 38.1379 36.4483 38.0634 36.1978C37.9822 35.9405 38.0973 35.6967 38.3614 35.5748C38.7405 35.4123 39.4718 35.2837 40.027 35.2837Z" fill="white"/>
<path d="M40.0068 37.8159C41.124 37.8227 42.0312 38.7368 42.0312 39.8607C42.0245 40.9779 41.1036 41.8784 39.9797 41.8716C38.876 41.8649 37.9688 40.9508 37.9688 39.8404C37.9688 38.7232 38.8896 37.8159 40.0068 37.8159ZM40 40.856C40.5552 40.856 41.0156 40.3956 41.0156 39.8404C41.0156 39.2852 40.5552 38.8315 40 38.8315C39.4448 38.8315 38.9844 39.2852 38.9844 39.8472C38.9844 40.4024 39.4448 40.856 40 40.856Z" fill="white"/>
<path d="M37.4612 37.3015C37.4679 37.5791 37.2309 37.8161 36.9533 37.8161C36.6825 37.8161 36.4591 37.5926 36.4523 37.3218C36.4455 37.051 36.669 36.8208 36.933 36.8072C37.2106 36.7937 37.4544 37.0239 37.4612 37.3015Z" fill="white"/>
</g>
<defs>
<clipPath id="clip0_233_6507">
<rect width="26" height="26" fill="white" transform="translate(27 26.8203)"/>
</clipPath>
</defs>
</svg>
