<svg width="25" height="24" viewBox="0 0 25 24" fill="none" xmlns="http://www.w3.org/2000/svg">
<path d="M17.8 18.4297H13.8L9.34998 21.3897C8.68998 21.8297 7.79999 21.3598 7.79999 20.5598V18.4297C4.79999 18.4297 2.79999 16.4297 2.79999 13.4297V7.42969C2.79999 4.42969 4.79999 2.42969 7.79999 2.42969H17.8C20.8 2.42969 22.8 4.42969 22.8 7.42969V13.4297C22.8 16.4297 20.8 18.4297 17.8 18.4297Z" stroke="#8C8F95" stroke-width="1.5" stroke-miterlimit="10" stroke-linecap="round" stroke-linejoin="round"/>
<path d="M12.7999 11.3604V11.1504C12.7999 10.4704 12.3798 10.1104 11.9598 9.82037C11.5498 9.54037 11.1399 9.18039 11.1399 8.52039C11.1399 7.60039 11.8799 6.86035 12.7999 6.86035C13.7199 6.86035 14.4598 7.60039 14.4598 8.52039" stroke="#8C8F95" stroke-width="1.5" stroke-linecap="round" stroke-linejoin="round"/>
<path d="M12.804 13.75H12.795" stroke="#8C8F95" stroke-width="1.5" stroke-linecap="round" stroke-linejoin="round"/>
</svg>
