<svg width="40" height="40" viewBox="0 0 40 40" fill="none" xmlns="http://www.w3.org/2000/svg">
<circle cx="20" cy="20" r="20" fill="#699AA7"/>
<path d="M19.4262 9.02331C19.9798 9.20978 20.1954 9.60021 20.2245 10.1771C20.2712 11.1153 20.6732 11.902 21.4308 12.4789C22.8643 13.5686 23.5577 15.0545 23.7908 16.7969C23.8025 16.8901 23.8724 17.0125 23.9482 17.0475C24.0006 17.0708 24.1405 16.995 24.1929 16.9251C24.3269 16.7444 24.4493 16.5521 24.5484 16.354C24.898 15.6606 25.708 15.5732 26.1858 16.185C27.8583 18.3062 28.645 20.7186 28.3886 23.4108C28.1147 26.3303 26.8152 28.6612 24.257 30.1996C23.109 30.8872 21.8562 31.2543 20.5276 31.3651C20.4635 31.3709 20.3994 31.3884 20.3353 31.4C19.9274 31.4 19.5194 31.4 19.1115 31.4C18.7386 31.3418 18.3656 31.3068 17.9927 31.231C14.5721 30.5201 12.3111 28.4806 11.3788 25.1007C10.4755 21.82 11.2156 18.8189 13.3018 16.1501C13.7621 15.5615 14.5779 15.6722 14.9101 16.3482C14.9858 16.4997 15.0558 16.6512 15.1607 16.7794C15.2189 16.8493 15.3355 16.8726 15.4229 16.9193C15.4637 16.8319 15.5394 16.7503 15.5394 16.6629C15.5627 15.6897 15.7084 14.734 15.9881 13.8017C15.9998 13.7667 16.0114 13.7317 16.0231 13.6968C16.1105 13.4287 16.2853 13.318 16.5067 13.3821C16.7224 13.4462 16.8098 13.6443 16.7282 13.9124C16.4485 14.8389 16.3028 15.7829 16.2853 16.7503C16.2795 17.1757 16.0231 17.502 15.6268 17.6244C15.2422 17.7409 14.846 17.6185 14.6071 17.2806C14.473 17.0941 14.3623 16.8843 14.2516 16.6803C14.1351 16.4706 14.001 16.4531 13.8553 16.6396C12.7074 18.0905 12.0314 19.7397 11.8449 21.5811C11.6701 23.271 11.909 24.8968 12.6782 26.4177C13.8087 28.6554 15.6385 29.9782 18.0685 30.4677C20.0031 30.8581 21.862 30.6192 23.6102 29.6926C25.7546 28.5621 27.0191 26.7382 27.4912 24.384C28.0564 21.5461 27.4037 18.9705 25.6497 16.6745C25.4691 16.4356 25.3467 16.4589 25.201 16.7153C25.0554 16.9717 24.898 17.2281 24.7115 17.4612C24.4668 17.7642 24.1288 17.8633 23.75 17.7584C23.3713 17.6535 23.1615 17.3971 23.0741 17.0067C22.9459 16.4239 22.8352 15.8354 22.6487 15.276C22.3806 14.4718 21.8911 13.8075 21.2327 13.2656C20.8131 12.9218 20.3935 12.5721 20.0963 12.1001C19.7117 11.4882 19.5194 10.8181 19.4728 10.1014C19.467 9.95567 19.4612 9.78668 19.298 9.7692C19.1989 9.75755 19.0474 9.83913 18.9775 9.92654C18.5638 10.4685 18.1675 11.0279 17.7713 11.5815C17.748 11.6164 17.7246 11.6572 17.7013 11.6922C17.5498 11.9369 17.34 12.0127 17.1419 11.8962C16.9496 11.7796 16.9088 11.5582 17.0603 11.3251C17.3284 10.9055 17.6139 10.486 17.8995 10.0722C18.0218 9.89157 18.1733 9.72841 18.3074 9.55942C18.4997 9.30885 18.7269 9.09906 19.0358 9C19.164 9.02331 19.298 9.02331 19.4262 9.02331Z" fill="#025366"/>
<path d="M15.9824 24.2089C16.3437 24.6401 16.6001 25.1063 16.6933 25.6483C16.7341 25.8872 16.6234 26.0736 16.4194 26.1144C16.198 26.1552 16.0581 26.0387 15.9707 25.8056C15.8542 25.4967 15.7435 25.1762 15.5745 24.8965C15.3414 24.5119 15.3181 24.5236 14.8519 24.6401C14.8519 25.0073 14.8577 25.3744 14.8519 25.7473C14.8461 25.9746 14.6945 26.1261 14.4848 26.1261C14.275 26.1261 14.1293 25.9804 14.1118 25.7531C14.1118 25.724 14.1118 25.6949 14.1118 25.6657C14.1118 24.1099 14.1118 22.5482 14.1118 20.9923C14.1118 20.7126 14.2458 20.5436 14.4731 20.5377C14.7062 20.5319 14.8519 20.7009 14.8519 20.9923C14.8519 21.8722 14.8519 22.7521 14.8519 23.632C14.8519 23.702 14.8519 23.7777 14.8519 23.8651C15.3472 23.7894 15.7027 23.5446 15.9358 23.1251C15.9707 23.061 15.9999 22.991 16.0406 22.9328C16.1514 22.7812 16.3437 22.7346 16.5068 22.8162C16.67 22.8978 16.7691 23.0901 16.6875 23.2533C16.5651 23.498 16.4078 23.7253 16.2504 23.9467C16.1805 24.0458 16.0814 24.1099 15.9824 24.2089Z" fill="#025366"/>
<path d="M22.4681 24.0462C22.4914 23.615 22.404 23.5276 22.0311 23.5276C21.8213 23.5276 21.6115 23.5334 21.4017 23.5276C21.1453 23.5159 20.988 23.3644 20.9996 23.1372C21.0055 22.9216 21.157 22.7875 21.4075 22.7817C21.6756 22.7759 21.9436 22.7759 22.2117 22.7817C22.7595 22.7992 23.1965 23.2188 23.2198 23.7607C23.2373 24.221 23.2373 24.6756 23.2198 25.1359C23.2023 25.6662 22.7886 26.0799 22.2641 26.1207C22.0311 26.1382 21.798 26.1382 21.5707 26.1207C21.0404 26.0799 20.6325 25.6371 20.6209 25.101C20.6092 24.5765 21.0055 24.1045 21.5357 24.0521C21.8388 24.0229 22.1476 24.0462 22.4681 24.0462ZM22.4564 24.7921C22.1826 24.7921 21.897 24.7805 21.6173 24.798C21.46 24.8038 21.3667 24.9261 21.3667 25.0777C21.3609 25.2408 21.4483 25.3574 21.6173 25.3807C21.7397 25.3982 21.8621 25.3923 21.9844 25.3923C22.4331 25.3807 22.5264 25.2758 22.4564 24.7921Z" fill="#025366"/>
<path d="M23.9655 22.8337C23.9655 22.2277 23.9655 21.6275 23.9655 21.0214C23.9655 20.7126 24.1053 20.5378 24.3443 20.5436C24.5773 20.5494 24.7055 20.7126 24.7055 21.0156C24.7055 22.1927 24.7055 23.3757 24.7055 24.5528C24.7055 25.0539 24.9386 25.3161 25.434 25.3861C25.6904 25.421 25.8419 25.5842 25.8186 25.7998C25.7952 26.0212 25.6263 26.1436 25.364 26.132C24.6007 26.097 23.9771 25.4618 23.9655 24.6751C23.9597 24.0574 23.9655 23.4456 23.9655 22.8337Z" fill="#025366"/>
<path d="M18.2024 24.4595C18.2024 24.5877 18.1966 24.7217 18.2024 24.8499C18.2141 25.083 18.3306 25.252 18.5462 25.3336C18.7618 25.4152 18.96 25.386 19.1348 25.2287C19.1639 25.2054 19.1814 25.1763 19.2105 25.1471C19.3795 24.9781 19.5951 24.9548 19.7525 25.0947C19.9098 25.2345 19.9156 25.4501 19.7641 25.6424C19.4495 26.0445 18.8726 26.2193 18.3656 26.062C17.8586 25.9047 17.4857 25.4385 17.4624 24.9199C17.4507 24.6168 17.4507 24.308 17.4624 24.005C17.4798 23.4805 17.8353 23.0085 18.3364 22.8395C18.8259 22.6705 19.397 22.822 19.7292 23.2066C19.9098 23.4106 19.9215 23.6379 19.7583 23.7894C19.5951 23.9409 19.3737 23.9176 19.1872 23.7194C19.0066 23.5271 18.7968 23.4747 18.5521 23.5621C18.3248 23.6437 18.2082 23.836 18.2024 24.1099C18.2024 24.2264 18.2024 24.343 18.2024 24.4595Z" fill="#025366"/>
</svg>
