<svg width="40" height="40" viewBox="0 0 40 40" fill="none" xmlns="http://www.w3.org/2000/svg">
<path d="M40 20C40 31.0457 31.0457 40 20 40C8.9543 40 0 31.0457 0 20C0 8.9543 8.9543 0 20 0C31.0457 0 40 8.9543 40 20Z" fill="#699AA7"/>
<path d="M29 13.98C25.67 13.65 22.32 13.48 18.98 13.48C17 13.48 15.02 13.58 13.04 13.78L11 13.98" stroke="#025366" stroke-width="1.5" stroke-linecap="round" stroke-linejoin="round"/>
<path d="M16.5 12.97L16.72 11.66C16.88 10.71 17 10 18.69 10H21.31C23 10 23.13 10.75 23.28 11.67L23.5 12.97" stroke="#025366" stroke-width="1.5" stroke-linecap="round" stroke-linejoin="round"/>
<path d="M26.8504 17.1401L26.2004 27.2101C26.0904 28.7801 26.0004 30.0001 23.2104 30.0001H16.7904C14.0004 30.0001 13.9104 28.7801 13.8004 27.2101L13.1504 17.1401" stroke="#025366" stroke-width="1.5" stroke-linecap="round" stroke-linejoin="round"/>
<path d="M18.3301 24.5H21.6601" stroke="#025366" stroke-width="1.5" stroke-linecap="round" stroke-linejoin="round"/>
<path d="M17.5 20.5H22.5" stroke="#025366" stroke-width="1.5" stroke-linecap="round" stroke-linejoin="round"/>
</svg>
