<svg width="25" height="24" viewBox="0 0 25 24" fill="none" xmlns="http://www.w3.org/2000/svg">
<path d="M2.19995 7.8501C2.19995 6.0001 3.18995 5.8501 4.41995 5.8501H19.98C21.21 5.8501 22.2 6.0001 22.2 7.8501C22.2 10.0001 21.21 9.8501 19.98 9.8501H4.41995C3.18995 9.8501 2.19995 10.0001 2.19995 7.8501Z" stroke="#007D99" stroke-width="1.5"/>
<path d="M9.0094 2L5.3894 5.63" stroke="#E2B12B" stroke-width="1.5" stroke-miterlimit="10" stroke-linecap="round" stroke-linejoin="round"/>
<path d="M15.3894 2L19.0094 5.63" stroke="#E2B12B" stroke-width="1.5" stroke-miterlimit="10" stroke-linecap="round" stroke-linejoin="round"/>
<path d="M9.95972 14V17.55" stroke="#E2B12B" stroke-width="1.5" stroke-linecap="round"/>
<path d="M14.5593 14V17.55" stroke="#E2B12B" stroke-width="1.5" stroke-linecap="round"/>
<path d="M3.69995 10L5.10995 18.64C5.42995 20.58 6.19995 22 9.05995 22H15.09C18.2 22 18.66 20.64 19.02 18.76L20.7 10" stroke="#007D99" stroke-width="1.5" stroke-linecap="round"/>
</svg>
