<svg width="41" height="40" viewBox="0 0 41 40" fill="none" xmlns="http://www.w3.org/2000/svg">
<circle cx="20.4597" cy="20" r="20" fill="#A9BFC5"/>
<path d="M29.9597 23.5C30.2397 23.5 30.4597 23.72 30.4597 24V25C30.4597 26.66 29.1197 28 27.4597 28C27.4597 26.35 26.1097 25 24.4597 25C22.8097 25 21.4597 26.35 21.4597 28H19.4597C19.4597 26.35 18.1097 25 16.4597 25C14.8097 25 13.4597 26.35 13.4597 28C11.7997 28 10.4597 26.66 10.4597 25V23C10.4597 22.45 10.9097 22 11.4597 22H20.9597C22.3397 22 23.4597 20.88 23.4597 19.5V14C23.4597 13.45 23.9097 13 24.4597 13H25.2997C26.0197 13 26.6797 13.39 27.0397 14.01L27.6797 15.13C27.7697 15.29 27.6497 15.5 27.4597 15.5C26.0797 15.5 24.9597 16.62 24.9597 18V21C24.9597 22.38 26.0797 23.5 27.4597 23.5H29.9597Z" fill="#025366"/>
<path d="M16.4597 30C17.5643 30 18.4597 29.1046 18.4597 28C18.4597 26.8954 17.5643 26 16.4597 26C15.3551 26 14.4597 26.8954 14.4597 28C14.4597 29.1046 15.3551 30 16.4597 30Z" fill="#025366"/>
<path d="M24.4597 30C25.5643 30 26.4597 29.1046 26.4597 28C26.4597 26.8954 25.5643 26 24.4597 26C23.3551 26 22.4597 26.8954 22.4597 28C22.4597 29.1046 23.3551 30 24.4597 30Z" fill="#025366"/>
<path d="M30.4597 20.53V22H27.4597C26.9097 22 26.4597 21.55 26.4597 21V18C26.4597 17.45 26.9097 17 27.4597 17H28.7497L30.1997 19.54C30.3697 19.84 30.4597 20.18 30.4597 20.53Z" fill="#025366"/>
<path d="M21.5397 10H14.1497C12.1097 10 10.4597 11.65 10.4597 13.69V20.08C10.4597 20.63 10.9097 21.08 11.4597 21.08H20.6097C21.6297 21.08 22.4597 20.25 22.4597 19.23V10.92C22.4597 10.41 22.0497 10 21.5397 10ZM17.8397 15.91C17.8397 16.17 17.6997 16.42 17.4797 16.55L16.2297 17.3C16.0997 17.38 15.9697 17.41 15.8397 17.41C15.5897 17.41 15.3397 17.28 15.1997 17.05C14.9797 16.69 15.0997 16.23 15.4497 16.02L16.3397 15.49V14.41C16.3397 14 16.6797 13.66 17.0897 13.66C17.4997 13.66 17.8397 14 17.8397 14.41V15.91Z" fill="#025366"/>
</svg>
