<svg width="40" height="40" viewBox="0 0 40 40" fill="none" xmlns="http://www.w3.org/2000/svg">
<circle cx="20" cy="20" r="20" fill="#699AA7"/>
<path d="M27.0598 26.6699L24.9198 22.3999L22.7798 26.6699" stroke="#025366" stroke-width="1.3" stroke-linecap="round" stroke-linejoin="round"/>
<path d="M23.1699 25.9102H26.6899" stroke="#025366" stroke-width="1.3" stroke-linecap="round" stroke-linejoin="round"/>
<path d="M24.9198 29.9998C22.1198 29.9998 19.8398 27.7298 19.8398 24.9198C19.8398 22.1198 22.1098 19.8398 24.9198 19.8398C27.7198 19.8398 29.9998 22.1098 29.9998 24.9198C29.9998 27.7298 27.7298 29.9998 24.9198 29.9998Z" stroke="#025366" stroke-width="1.3" stroke-linecap="round" stroke-linejoin="round"/>
<path d="M13.02 10H16.94C19.01 10 20.01 11 19.96 13.02V16.94C20.01 19.01 19.01 20.01 16.94 19.96H13.02C11 20 10 19 10 16.93V13.01C10 11 11 10 13.02 10Z" stroke="#025366" stroke-width="1.3" stroke-linecap="round" stroke-linejoin="round"/>
<path d="M17.0097 13.8501H12.9497" stroke="#025366" stroke-width="1.3" stroke-linecap="round" stroke-linejoin="round"/>
<path d="M14.9697 13.1699V13.8499" stroke="#025366" stroke-width="1.3" stroke-linecap="round" stroke-linejoin="round"/>
<path d="M15.9899 13.8398C15.9899 15.5898 14.6199 17.0098 12.9399 17.0098" stroke="#025366" stroke-width="1.3" stroke-linecap="round" stroke-linejoin="round"/>
<path d="M17.0101 17.01C16.2801 17.01 15.6202 16.62 15.1602 16" stroke="#025366" stroke-width="1.3" stroke-linecap="round" stroke-linejoin="round"/>
<path d="M10 23C10 26.87 13.13 30 17 30L15.95 28.25" stroke="#E2B12B" stroke-width="1.3" stroke-linecap="round" stroke-linejoin="round"/>
<path d="M30 17C30 13.13 26.87 10 23 10L24.05 11.75" stroke="#E2B12B" stroke-width="1.3" stroke-linecap="round" stroke-linejoin="round"/>
</svg>
