<svg width="40" height="40" viewBox="0 0 40 40" fill="none" xmlns="http://www.w3.org/2000/svg">
<circle cx="20" cy="20" r="20" fill="#699AA7"/>
<path fill-rule="evenodd" clip-rule="evenodd" d="M14 20C14 19.8011 14.079 19.6103 14.2197 19.4696C14.3603 19.329 14.5511 19.25 14.75 19.25H23.4395L20.219 16.031C20.0782 15.8901 19.9991 15.6991 19.9991 15.5C19.9991 15.3008 20.0782 15.1098 20.219 14.969C20.3598 14.8281 20.5508 14.749 20.75 14.749C20.9492 14.749 21.1402 14.8281 21.281 14.969L25.781 19.469C25.8508 19.5386 25.9063 19.6214 25.9441 19.7125C25.9819 19.8036 26.0013 19.9013 26.0013 20C26.0013 20.0986 25.9819 20.1963 25.9441 20.2874C25.9063 20.3785 25.8508 20.4613 25.781 20.531L21.281 25.031C21.1402 25.1718 20.9492 25.2509 20.75 25.2509C20.5508 25.2509 20.3598 25.1718 20.219 25.031C20.0782 24.8901 19.9991 24.6991 19.9991 24.5C19.9991 24.3008 20.0782 24.1098 20.219 23.969L23.4395 20.75H14.75C14.5511 20.75 14.3603 20.671 14.2197 20.5303C14.079 20.3896 14 20.1989 14 20Z" fill="#025366"/>
</svg>
