<svg width="41" height="40" viewBox="0 0 41 40" fill="none" xmlns="http://www.w3.org/2000/svg">
<circle cx="20.3219" cy="20" r="20" fill="#A9BFC4"/>
<path d="M30.6819 16.27L30.3919 13.5C29.9719 10.48 28.6019 9.25 25.6719 9.25H23.3119H21.8319H18.7919H17.3119H14.9119C11.9719 9.25 10.6119 10.48 10.1819 13.53L9.91192 16.28C9.81192 17.35 10.1019 18.39 10.7319 19.2C11.4919 20.19 12.6619 20.75 13.9619 20.75C15.2219 20.75 16.4319 20.12 17.1919 19.11C17.8719 20.12 19.0319 20.75 20.3219 20.75C21.6119 20.75 22.7419 20.15 23.4319 19.15C24.2019 20.14 25.3919 20.75 26.6319 20.75C27.9619 20.75 29.1619 20.16 29.9119 19.12C30.5119 18.32 30.7819 17.31 30.6819 16.27Z" fill="#025366"/>
<path d="M19.6719 24.6602C18.4019 24.7902 17.4419 25.8702 17.4419 27.1502V29.8902C17.4419 30.1602 17.6619 30.3802 17.9319 30.3802H22.7019C22.9719 30.3802 23.1919 30.1602 23.1919 29.8902V27.5002C23.2019 25.4102 21.9719 24.4202 19.6719 24.6602Z" fill="#025366"/>
<path d="M29.6919 22.4001V25.3801C29.6919 28.1401 27.4519 30.3801 24.6919 30.3801C24.4219 30.3801 24.2019 30.1601 24.2019 29.8901V27.5001C24.2019 26.2201 23.8119 25.2201 23.0519 24.5401C22.3819 23.9301 21.4719 23.6301 20.3419 23.6301C20.0919 23.6301 19.8419 23.6401 19.5719 23.6701C17.7919 23.8501 16.4419 25.3501 16.4419 27.1501V29.8901C16.4419 30.1601 16.2219 30.3801 15.9519 30.3801C13.1919 30.3801 10.9519 28.1401 10.9519 25.3801V22.4201C10.9519 21.7201 11.6419 21.2501 12.2919 21.4801C12.5619 21.5701 12.8319 21.6401 13.1119 21.6801C13.2319 21.7001 13.3619 21.7201 13.4819 21.7201C13.6419 21.7401 13.8019 21.7501 13.9619 21.7501C15.1219 21.7501 16.2619 21.3201 17.1619 20.5801C18.0219 21.3201 19.1419 21.7501 20.3219 21.7501C21.5119 21.7501 22.6119 21.3401 23.4719 20.6001C24.3719 21.3301 25.4919 21.7501 26.6319 21.7501C26.8119 21.7501 26.9919 21.7401 27.1619 21.7201C27.2819 21.7101 27.3919 21.7001 27.5019 21.6801C27.8119 21.6401 28.0919 21.5501 28.3719 21.4601C29.0219 21.2401 29.6919 21.7201 29.6919 22.4001Z" fill="#025366"/>
</svg>
