<svg width="154" height="193" viewBox="0 0 154 193" fill="none" xmlns="http://www.w3.org/2000/svg">
<path d="M19.9087 177.48C20.0953 177.48 20.254 177.55 20.3847 177.69C20.5247 177.821 20.5947 177.979 20.5947 178.166C20.5947 178.362 20.5247 178.53 20.3847 178.67C20.254 178.801 20.0953 178.866 19.9087 178.866C19.722 178.866 19.5587 178.801 19.4187 178.67C19.288 178.53 19.2227 178.362 19.2227 178.166C19.2227 177.979 19.288 177.821 19.4187 177.69C19.5587 177.55 19.722 177.48 19.9087 177.48ZM21.6027 177.48C21.7987 177.48 21.962 177.55 22.0927 177.69C22.2327 177.821 22.3027 177.979 22.3027 178.166C22.3027 178.362 22.2327 178.53 22.0927 178.67C21.962 178.801 21.7987 178.866 21.6027 178.866C21.416 178.866 21.2527 178.801 21.1127 178.67C20.982 178.53 20.9167 178.362 20.9167 178.166C20.9167 177.979 20.982 177.821 21.1127 177.69C21.2527 177.55 21.416 177.48 21.6027 177.48ZM22.3027 180.182V185.474C22.3027 185.642 22.3493 185.773 22.4427 185.866C22.5267 185.959 22.62 186.006 22.7227 186.006H23.0027V187H22.4147C21.9853 187 21.6447 186.837 21.3927 186.51C20.786 186.939 20.1327 187.154 19.4327 187.154C18.4527 187.154 17.678 186.771 17.1087 186.006C16.642 185.381 16.4087 184.634 16.4087 183.766C16.4087 182.749 16.7447 181.904 17.4167 181.232C18.014 180.625 18.7467 180.322 19.6147 180.322C20.1093 180.322 20.6087 180.434 21.1127 180.658L21.7147 180.182H22.3027ZM21.1127 181.638C20.702 181.433 20.2867 181.33 19.8667 181.33C19.1573 181.33 18.5833 181.61 18.1447 182.17C17.7807 182.627 17.5987 183.169 17.5987 183.794C17.5987 184.541 17.776 185.129 18.1307 185.558C18.476 185.95 18.9427 186.146 19.5307 186.146C20.0347 186.146 20.562 186.011 21.1127 185.74V181.638ZM26.6208 176.976V185.67C26.6208 185.782 26.6068 185.894 26.5788 186.006H27.3208V187H26.8308L26.3688 186.51H26.3268C26.0748 186.837 25.7481 187 25.3468 187H22.9108V186.006H24.8988C25.0761 186.006 25.2161 185.936 25.3188 185.796C25.3935 185.703 25.4308 185.595 25.4308 185.474V176.976H26.6208ZM40.5314 180.56V185.67C40.5314 185.791 40.5174 185.903 40.4894 186.006H41.2454V187H40.6854L40.2934 186.51H40.2514C39.9901 186.837 39.6634 187 39.2714 187H36.5134L36.1214 186.51H36.0794C35.8181 186.837 35.4914 187 35.0994 187H32.3414L31.9494 186.51H31.9074C31.6461 186.837 31.3194 187 30.9274 187H27.2174V186.006H30.4654C30.8201 186.006 30.9974 185.829 30.9974 185.474V182.17H32.1874V185.67C32.1874 185.791 32.1781 185.903 32.1594 186.006H34.6374C34.9921 186.006 35.1694 185.829 35.1694 185.474V181.358H36.3594V185.67C36.3594 185.791 36.3454 185.903 36.3174 186.006H38.8094C39.1641 186.006 39.3414 185.829 39.3414 185.474V180.56H40.5314ZM44.8454 176.976V185.67C44.8454 186.034 44.7241 186.342 44.4814 186.594C44.2294 186.865 43.9261 187 43.5714 187H41.1354V186.006H43.1234C43.3007 186.006 43.4361 185.945 43.5294 185.824C43.6134 185.721 43.6554 185.605 43.6554 185.474V176.976H44.8454ZM47.9685 176.976V185.474C47.9685 185.623 48.0152 185.749 48.1085 185.852C48.2112 185.955 48.3418 186.006 48.5005 186.006H48.6825V187H48.0385C47.7398 187 47.4785 186.902 47.2545 186.706C46.9372 186.435 46.7785 186.09 46.7785 185.67V176.976H47.9685ZM52.2966 180.56V185.67C52.2966 186.015 52.1846 186.314 51.9606 186.566C51.7086 186.855 51.3959 187 51.0226 187H48.5866V186.006H50.5746C50.7332 186.006 50.8639 185.95 50.9666 185.838C51.0599 185.745 51.1066 185.623 51.1066 185.474V180.56H52.2966ZM51.3446 188.456C51.5312 188.456 51.6899 188.521 51.8206 188.652C51.9606 188.792 52.0306 188.955 52.0306 189.142C52.0306 189.338 51.9606 189.501 51.8206 189.632C51.6899 189.772 51.5312 189.842 51.3446 189.842C51.1579 189.842 50.9946 189.772 50.8546 189.632C50.7239 189.501 50.6586 189.338 50.6586 189.142C50.6586 188.955 50.7239 188.792 50.8546 188.652C50.9946 188.521 51.1579 188.456 51.3446 188.456ZM61.7 180.182C61.8867 180.182 62.0453 180.252 62.176 180.392C62.316 180.523 62.386 180.686 62.386 180.882C62.386 181.069 62.316 181.232 62.176 181.372C62.0453 181.503 61.8867 181.568 61.7 181.568C61.504 181.568 61.3407 181.503 61.21 181.372C61.0793 181.232 61.014 181.069 61.014 180.882C61.014 180.686 61.0793 180.523 61.21 180.392C61.3407 180.252 61.504 180.182 61.7 180.182ZM63.394 180.182C63.59 180.182 63.7533 180.252 63.884 180.392C64.024 180.523 64.094 180.686 64.094 180.882C64.094 181.069 64.024 181.232 63.884 181.372C63.7533 181.503 63.59 181.568 63.394 181.568C63.2073 181.568 63.044 181.503 62.904 181.372C62.7733 181.232 62.708 181.069 62.708 180.882C62.708 180.686 62.7733 180.523 62.904 180.392C63.044 180.252 63.2073 180.182 63.394 180.182ZM68.266 180.56V185.67C68.266 186.006 68.1633 186.295 67.958 186.538C67.6967 186.846 67.3793 187 67.006 187H58.998C58.4567 187 57.99 186.823 57.598 186.468C57.066 186.011 56.8 185.418 56.8 184.69V182.058L57.402 181.568H57.99V184.69C57.99 185.054 58.1207 185.362 58.382 185.614C58.634 185.875 58.9513 186.006 59.334 186.006H66.544C66.8987 186.006 67.076 185.829 67.076 185.474V180.56H68.266ZM71.3884 176.976V185.474C71.3884 185.623 71.4351 185.749 71.5284 185.852C71.6311 185.955 71.7618 186.006 71.9204 186.006H72.1024V187H71.4584C71.1598 187 70.8984 186.902 70.6744 186.706C70.3571 186.435 70.1984 186.09 70.1984 185.67V176.976H71.3884ZM73.8685 180.798C74.7272 180.527 75.5298 180.392 76.2765 180.392C77.4338 180.392 78.3158 180.751 78.9225 181.47C79.4452 182.086 79.7065 182.893 79.7065 183.892V185.67C79.7065 185.782 79.6925 185.894 79.6645 186.006H80.1545V187H79.8605L79.4685 186.51H79.4265C79.1652 186.837 78.8385 187 78.4465 187H72.0065V186.006H77.9845C78.3392 186.006 78.5165 185.829 78.5165 185.474V183.85C78.5165 183.122 78.3252 182.548 77.9425 182.128C77.5225 181.661 76.9112 181.428 76.1085 181.428C75.6232 181.428 74.8765 181.531 73.8685 181.736V180.798ZM75.5345 188.456C75.7305 188.456 75.8938 188.521 76.0245 188.652C76.1645 188.792 76.2345 188.955 76.2345 189.142C76.2345 189.338 76.1645 189.501 76.0245 189.632C75.8938 189.772 75.7305 189.842 75.5345 189.842C75.3478 189.842 75.1845 189.772 75.0445 189.632C74.9138 189.501 74.8485 189.338 74.8485 189.142C74.8485 188.955 74.9138 188.792 75.0445 188.652C75.1845 188.521 75.3478 188.456 75.5345 188.456ZM81.5012 177.48C81.6972 177.48 81.8606 177.55 81.9912 177.69C82.1219 177.821 82.1872 177.979 82.1872 178.166C82.1872 178.362 82.1219 178.53 81.9912 178.67C81.8606 178.801 81.6972 178.866 81.5012 178.866C81.3146 178.866 81.1512 178.801 81.0112 178.67C80.8806 178.53 80.8152 178.362 80.8152 178.166C80.8152 177.979 80.8806 177.821 81.0112 177.69C81.1512 177.55 81.3146 177.48 81.5012 177.48ZM83.2092 177.48C83.3959 177.48 83.5546 177.55 83.6852 177.69C83.8252 177.821 83.8952 177.979 83.8952 178.166C83.8952 178.362 83.8252 178.53 83.6852 178.67C83.5546 178.801 83.3959 178.866 83.2092 178.866C83.0132 178.866 82.8452 178.801 82.7052 178.67C82.5746 178.53 82.5092 178.362 82.5092 178.166C82.5092 177.979 82.5746 177.821 82.7052 177.69C82.8452 177.55 83.0132 177.48 83.2092 177.48ZM83.7692 180.56V185.67C83.7692 185.782 83.7552 185.894 83.7272 186.006H84.4692V187H83.9232L83.5172 186.51H83.4752C83.2232 186.837 82.8966 187 82.4952 187H80.0592V186.006H82.0472C82.1966 186.006 82.3179 185.959 82.4112 185.866C82.5232 185.763 82.5792 185.633 82.5792 185.474V180.56H83.7692ZM87.4739 177.48C87.6699 177.48 87.8332 177.55 87.9639 177.69C88.1039 177.821 88.1739 177.979 88.1739 178.166C88.1739 178.362 88.1039 178.53 87.9639 178.67C87.8332 178.801 87.6699 178.866 87.4739 178.866C87.2872 178.866 87.1239 178.801 86.9839 178.67C86.8532 178.53 86.7879 178.362 86.7879 178.166C86.7879 177.979 86.8532 177.821 86.9839 177.69C87.1239 177.55 87.2872 177.48 87.4739 177.48ZM88.0759 180.56V185.67C88.0759 185.782 88.0619 185.894 88.0339 186.006H88.7759V187H88.2299L87.8239 186.51H87.7819C87.5299 186.837 87.2032 187 86.8019 187H84.3659V186.006H86.3539C86.5032 186.006 86.6245 185.959 86.7179 185.866C86.8299 185.763 86.8859 185.633 86.8859 185.474V180.56H88.0759ZM91.1925 182.94C91.1925 181.988 91.5285 181.288 92.2005 180.84C92.6392 180.551 93.2225 180.406 93.9505 180.406C94.8372 180.406 95.5792 180.709 96.1765 181.316C96.7738 181.923 97.0725 182.772 97.0725 183.864C97.0725 184.881 96.7738 185.74 96.1765 186.44C95.6165 187.093 94.9072 187.42 94.0485 187.42C93.2458 187.42 92.5925 187.117 92.0885 186.51C91.8365 186.837 91.5005 187 91.0805 187H88.6725V186.006H90.6605C90.8098 186.006 90.9358 185.955 91.0385 185.852C91.1412 185.749 91.1925 185.623 91.1925 185.474V182.94ZM92.3825 185.684C92.8678 186.179 93.4045 186.426 93.9925 186.426C94.5525 186.426 95.0052 186.197 95.3505 185.74C95.7052 185.273 95.8825 184.671 95.8825 183.934C95.8825 183.113 95.6772 182.464 95.2665 181.988C94.9212 181.596 94.4638 181.4 93.8945 181.4C93.4652 181.4 93.1152 181.526 92.8445 181.778C92.5365 182.067 92.3825 182.455 92.3825 182.94V185.684ZM102.255 180.476C102.591 180.42 102.95 180.392 103.333 180.392C104.369 180.392 105.204 180.705 105.839 181.33C106.408 181.909 106.693 182.641 106.693 183.528V185.67C106.693 185.791 106.684 185.903 106.665 186.006H107.057V187H106.847L106.455 186.51H106.413C106.338 186.603 106.254 186.687 106.161 186.762C105.937 186.921 105.694 187 105.433 187H100.841V186.006H104.985C105.33 186.006 105.503 185.829 105.503 185.474V183.696C105.503 183.033 105.302 182.483 104.901 182.044C104.472 181.596 103.809 181.367 102.913 181.358C102.652 181.358 102.432 181.377 102.255 181.414V180.476ZM108.8 180.798C109.659 180.527 110.461 180.392 111.208 180.392C112.365 180.392 113.247 180.751 113.854 181.47C114.377 182.086 114.638 182.893 114.638 183.892V185.67C114.638 185.987 114.54 186.267 114.344 186.51C114.101 186.837 113.779 187 113.378 187H106.938V186.006H112.916C113.271 186.006 113.448 185.829 113.448 185.474V183.85C113.448 183.122 113.257 182.548 112.874 182.128C112.454 181.661 111.843 181.428 111.04 181.428C110.555 181.428 109.808 181.531 108.8 181.736V180.798ZM110.466 188.456C110.662 188.456 110.825 188.521 110.956 188.652C111.096 188.792 111.166 188.955 111.166 189.142C111.166 189.338 111.096 189.501 110.956 189.632C110.825 189.772 110.662 189.842 110.466 189.842C110.279 189.842 110.116 189.772 109.976 189.632C109.845 189.501 109.78 189.338 109.78 189.142C109.78 188.955 109.845 188.792 109.976 188.652C110.116 188.521 110.279 188.456 110.466 188.456ZM119.35 187C118.286 187 117.469 186.645 116.9 185.936C116.424 185.348 116.186 184.592 116.186 183.668C116.186 182.613 116.503 181.792 117.138 181.204C117.707 180.663 118.459 180.392 119.392 180.392C120.12 180.392 120.727 180.574 121.212 180.938C121.8 181.395 122.094 182.063 122.094 182.94V186.006H122.542V187H122.094C122.057 187.98 121.763 188.75 121.212 189.31C120.792 189.739 120.246 190.033 119.574 190.192C119.191 190.285 118.79 190.332 118.37 190.332C118.146 190.332 117.931 190.327 117.726 190.318L117.264 189.744V189.296C117.544 189.333 117.838 189.352 118.146 189.352C119.929 189.352 120.843 188.568 120.89 187H119.35ZM120.89 182.94C120.89 182.464 120.75 182.086 120.47 181.806C120.199 181.535 119.84 181.4 119.392 181.4C118.767 181.4 118.272 181.61 117.908 182.03C117.553 182.45 117.376 183.033 117.376 183.78C117.376 184.443 117.558 184.979 117.922 185.39C118.286 185.801 118.757 186.006 119.336 186.006H120.89V182.94ZM126.138 180.56V185.67C126.138 186.015 126.026 186.314 125.802 186.566C125.55 186.855 125.238 187 124.864 187H122.428V186.006H124.416C124.575 186.006 124.706 185.95 124.808 185.838C124.902 185.745 124.948 185.623 124.948 185.474V180.56H126.138ZM123.618 188.456C123.805 188.456 123.964 188.521 124.094 188.652C124.234 188.792 124.304 188.955 124.304 189.142C124.304 189.338 124.234 189.501 124.094 189.632C123.964 189.772 123.805 189.842 123.618 189.842C123.422 189.842 123.254 189.772 123.114 189.632C122.984 189.501 122.918 189.338 122.918 189.142C122.918 188.955 122.984 188.792 123.114 188.652C123.254 188.521 123.422 188.456 123.618 188.456ZM125.312 188.456C125.508 188.456 125.672 188.521 125.802 188.652C125.933 188.792 125.998 188.955 125.998 189.142C125.998 189.338 125.933 189.501 125.802 189.632C125.672 189.772 125.508 189.842 125.312 189.842C125.126 189.842 124.962 189.772 124.822 189.632C124.692 189.501 124.626 189.338 124.626 189.142C124.626 188.955 124.692 188.792 124.822 188.652C124.962 188.521 125.126 188.456 125.312 188.456ZM138.034 176.976V185.67C138.034 185.987 137.936 186.267 137.74 186.51C137.478 186.837 137.152 187 136.76 187H130.642L130.152 186.398V186.006H133.904L131.496 178.698H132.686L135.108 186.006H136.312C136.48 186.006 136.615 185.945 136.718 185.824C136.792 185.721 136.83 185.605 136.83 185.474V176.976H138.034Z" fill="white"/>
<path d="M47.8919 18.5996C48.0119 18.5996 48.1319 18.5996 48.2519 18.5996C59.0516 17.1596 69.9714 21.3595 80.6512 18.8396C86.771 17.3996 92.0509 13.7997 97.6908 11.1597C105.251 7.79981 113.77 6.83983 119.89 13.1997C125.89 19.3196 129.37 27.3594 135.37 33.4792C138.25 36.3592 141.49 38.7591 144.01 41.999C148.69 48.2389 146.41 54.1188 144.13 60.7186C141.01 69.8384 141.61 79.6782 144.97 88.558C148.45 97.5578 152.65 106.798 147.25 116.037C142.81 123.477 134.29 127.317 127.57 132.357C118.09 139.317 111.97 150.477 109.091 161.756C107.051 157.676 105.011 153.597 102.251 149.997C93.9709 139.197 82.5711 140.397 70.4514 143.277C58.6917 146.037 51.1318 145.317 42.252 136.557C37.3321 131.637 32.5322 128.877 26.4124 125.757C21.0125 122.997 16.8126 119.637 16.4526 113.157C16.2126 108.238 17.7726 103.558 18.4926 98.7578C21.0125 79.7982 -0.347013 61.7986 15.4926 44.999C19.4525 40.7991 25.0924 38.9991 28.6923 34.4392C34.9322 26.7594 36.9721 20.1595 47.8919 18.5996Z" fill="#022C36"/>
<path d="M57.9715 26.2791C53.5316 25.5591 46.5718 24.7191 42.3719 26.8791C38.532 28.799 36.732 34.0789 34.452 37.3188C31.0921 42.1187 26.0522 45.3586 21.9723 49.4386C17.8924 53.5185 14.5325 59.0383 16.0925 64.9182C17.6524 70.9181 21.3723 76.3179 22.8123 82.4378C24.6123 89.7576 23.1723 97.4375 23.2923 104.997C23.2923 107.997 23.6523 110.997 25.2123 113.517C26.8922 116.157 29.7722 117.837 32.5321 119.397C37.212 122.157 41.6519 125.157 45.8518 128.517C50.0517 131.877 54.3716 135.597 59.7715 136.437C64.2114 137.037 68.7713 135.477 73.0912 134.517C78.2511 133.437 83.4109 133.077 88.6908 133.677C97.3306 134.517 106.21 137.637 114.25 134.397C118.21 132.837 121.33 129.837 124.45 126.837C128.65 122.877 132.73 118.797 136.81 114.837C138.49 113.157 140.29 111.477 141.37 109.317C143.77 104.877 143.17 99.4774 141.49 94.6775C139.81 89.9976 137.17 85.6777 135.37 80.8778C133.21 74.998 132.49 68.5181 133.33 62.2783C133.93 58.3184 135.13 54.2384 134.29 50.2785C132.85 43.3187 125.89 39.1188 121.81 33.2389C119.53 29.999 118.21 26.3991 116.05 23.0391C114.01 19.7992 110.89 16.7993 106.93 16.3193C102.371 15.8393 98.2906 18.9592 94.5707 21.5992C90.3708 24.4791 85.8109 27.1191 80.771 28.079C73.2112 29.759 65.5313 27.479 57.9715 26.2791Z" fill="#043E4B"/>
<g clip-path="url(#clip0_225_23861)">
<path d="M74.0482 63.2498C74.0482 61.497 74.0344 59.8131 74.0482 58.1155C74.0482 57.6048 74.0758 57.0803 74.1724 56.5696C74.6969 53.9196 77.2226 52.0011 79.845 52.2082C82.7573 52.4428 84.9518 54.6373 85.0346 57.4668C85.0898 59.1782 85.0484 60.8897 85.0484 62.5873C85.0484 62.7806 85.0484 62.96 85.0484 63.236C85.2831 63.236 85.4763 63.236 85.6695 63.236C89.8516 63.236 94.0474 63.2222 98.2294 63.236C100.921 63.2498 103.115 64.9751 103.654 67.5975C104.123 69.8886 103.35 71.7657 101.514 73.2149C101.307 73.3806 101.114 73.6566 101.073 73.905C99.9823 79.8675 98.8919 85.8438 97.8292 91.8063C97.3323 94.5668 95.2482 96.361 92.4601 96.361C90.8453 96.361 89.2167 96.3748 87.6018 96.361C87.2844 96.361 87.0773 96.43 86.8979 96.7199C83.4336 102.13 75.6354 102.13 72.1711 96.7061C72.0055 96.4438 71.826 96.3472 71.5086 96.3472C69.9075 96.361 68.3065 96.361 66.7055 96.3472C63.8622 96.3472 61.7643 94.6082 61.2674 91.8201C60.1909 85.8576 59.1143 79.8813 58.0239 73.9188C57.9825 73.6704 57.8031 73.3668 57.5961 73.2149C55.6638 71.7795 54.8495 69.3365 55.5672 67.0454C56.2849 64.7957 58.3552 63.236 60.7292 63.2222C64.9388 63.2084 69.1346 63.2222 73.3443 63.2222C73.5651 63.2498 73.7721 63.2498 74.0482 63.2498ZM71.0255 94.1803C70.4044 91.4613 70.8185 88.9769 72.4333 86.7686C74.062 84.5464 76.2979 83.3319 79.0445 83.1524C81.3771 83.0006 83.4888 83.6907 85.2417 85.2365C87.9469 87.6105 88.8302 90.6332 88.0849 94.1803C89.5617 94.1803 90.9833 94.1803 92.3911 94.1803C94.1854 94.1665 95.3448 93.1589 95.6622 91.3785C96.4628 86.9066 97.2909 82.4347 98.1052 77.949C98.326 76.7345 98.5469 75.5199 98.7539 74.2915C85.918 74.2915 73.1372 74.2915 60.3289 74.2915C60.3427 74.4019 60.3427 74.4847 60.3565 74.5675C60.9362 77.742 61.5021 80.9027 62.0818 84.0772C62.5234 86.5477 62.9789 89.0321 63.4344 91.5027C63.738 93.1589 64.925 94.1527 66.6088 94.1803C67.2989 94.1941 67.9891 94.1803 68.6792 94.1803C69.4521 94.1803 70.2112 94.1803 71.0255 94.1803ZM74.1034 65.4444C73.9377 65.4444 73.7445 65.4444 73.5513 65.4444C70.9565 65.4444 68.3479 65.4444 65.7531 65.4444C64.1107 65.4444 62.482 65.4306 60.8396 65.4444C59.1419 65.472 57.7617 66.6451 57.5409 68.2324C57.3062 69.8472 58.1896 71.3793 59.7078 71.8623C60.1909 72.0141 60.7154 72.0556 61.226 72.0556C73.4409 72.0694 85.6419 72.0694 97.8568 72.0694C98.0776 72.0694 98.2984 72.0694 98.5331 72.0556C100.521 71.9451 101.984 69.9852 101.514 68.0391C101.142 66.4519 99.8305 65.4444 98.1052 65.4444C93.868 65.4306 89.6307 65.4444 85.3935 65.4444C85.2555 65.4444 85.1174 65.4582 84.9932 65.472C83.7648 68.5498 82.0672 69.8886 79.5 69.8748C76.9742 69.861 75.2766 68.467 74.1034 65.4444ZM79.5 98.5694C83.1161 98.6108 86.125 95.6709 86.1664 92.0824C86.2078 88.3972 83.3094 85.3884 79.638 85.3332C76.0495 85.278 72.9854 88.2316 72.944 91.8201C72.8888 95.5329 75.801 98.528 79.5 98.5694ZM82.8677 61.0415C82.8677 59.9373 82.8815 58.8332 82.8677 57.729C82.8401 55.8519 81.4047 54.4165 79.569 54.4165C77.7195 54.4165 76.2703 55.8519 76.2703 57.729C76.2565 59.9235 76.2565 62.1043 76.2703 64.2988C76.2841 66.1759 77.7195 67.6389 79.5414 67.6665C81.3771 67.6941 82.8539 66.2035 82.8677 64.3126C82.8677 63.2222 82.8677 62.1319 82.8677 61.0415Z" fill="white"/>
<path d="M68.5274 83.1252C68.5274 84.9333 68.5274 86.7414 68.5274 88.5494C68.5274 89.2948 68.0029 89.8054 67.3404 89.7364C66.7469 89.6812 66.3328 89.2119 66.3328 88.5218C66.3328 86.8794 66.3328 85.2507 66.3328 83.6083C66.3328 81.6484 66.3328 79.6747 66.3328 77.7148C66.3328 77.2455 66.4985 76.8729 66.9125 76.6382C67.2852 76.4312 67.6716 76.445 68.0305 76.6797C68.4169 76.9281 68.5274 77.3007 68.5274 77.7424C68.5274 79.5367 68.5274 81.331 68.5274 83.1252Z" fill="white"/>
<path d="M90.5969 83.1112C90.5969 81.3031 90.5831 79.4951 90.5969 77.687C90.6107 76.776 91.425 76.2378 92.1841 76.638C92.5844 76.8451 92.7914 77.1901 92.7914 77.6456C92.7914 81.3031 92.7914 84.9469 92.7914 88.6044C92.7914 89.2669 92.3221 89.75 91.7148 89.7638C91.0937 89.7776 90.6107 89.2945 90.5969 88.6044C90.5831 86.755 90.5969 84.9331 90.5969 83.1112Z" fill="white"/>
<path d="M85.0622 79.2602C85.0622 79.8123 85.076 80.3644 85.0622 80.9165C85.0346 81.5652 84.6068 81.993 83.9995 82.0068C83.3646 82.0206 82.8953 81.579 82.8815 80.9027C82.8677 79.7985 82.8677 78.6943 82.8815 77.604C82.8953 76.9691 83.3646 76.5136 83.9581 76.4998C84.5792 76.486 85.0484 76.9415 85.0622 77.604C85.076 78.1561 85.0622 78.7082 85.0622 79.2602Z" fill="white"/>
<path d="M74.062 79.2602C74.062 78.7082 74.0482 78.1561 74.062 77.604C74.0896 76.9415 74.5589 76.486 75.1661 76.4998C75.7596 76.5136 76.2289 76.9691 76.2427 77.604C76.2565 78.7082 76.2565 79.8123 76.2427 80.9027C76.2289 81.5652 75.7596 82.0068 75.1247 82.0068C74.5174 81.993 74.0758 81.5652 74.062 80.9165C74.0482 80.3644 74.062 79.8123 74.062 79.2602Z" fill="white"/>
<path d="M79.5276 93.0623C78.8375 93.0623 78.1474 93.0623 77.4711 93.0623C76.7396 93.0485 76.2427 92.593 76.2565 91.9443C76.2565 91.3094 76.7396 90.8678 77.4435 90.8678C78.8513 90.854 80.2591 90.854 81.6669 90.8678C82.3846 90.8678 82.8539 91.3094 82.8539 91.9443C82.8677 92.593 82.3708 93.0485 81.6393 93.0623C80.9354 93.0623 80.2315 93.0623 79.5276 93.0623Z" fill="white"/>
</g>
<path d="M27.1324 77.7583C24.1325 71.3984 20.5326 62.8786 24.2525 56.1587C28.0924 49.1989 36.1322 45.719 40.4521 39.1191C41.5321 37.4392 38.8922 35.9992 37.8122 37.5592C33.1323 44.639 24.2525 48.1189 20.8926 56.2787C17.7726 63.7186 21.2526 72.4784 24.4925 79.3182C25.3325 80.9982 27.9724 79.4382 27.1324 77.7583Z" fill="white"/>
<path d="M121.571 124.678C123.971 121.558 126.73 118.918 129.73 116.398C132.37 114.118 135.01 111.598 136.33 108.238C137.65 104.998 137.77 101.398 137.05 98.0381C136.21 94.4382 135.85 90.7183 134.05 87.4784C133.09 85.7984 130.57 87.3584 131.41 89.0383C133.09 92.0382 133.33 95.6382 134.17 98.8781C134.89 102.118 134.65 105.598 132.97 108.598C131.29 111.478 128.53 113.518 126.13 115.678C123.491 117.958 121.211 120.478 119.051 123.238C117.851 124.678 120.491 126.237 121.571 124.678Z" fill="white"/>
<path d="M72.4881 16.0159C82.2079 14.336 90.3677 8.8161 99.4875 5.45617C107.647 2.57624 116.767 1.73626 124.087 7.13613C128.047 10.1361 130.687 14.696 135.127 17.3359C136.807 18.2959 138.367 15.6559 136.687 14.696C132.607 12.296 130.207 8.09611 126.487 5.21618C123.007 2.45624 118.927 0.776279 114.607 0.176292C105.367 -0.903683 96.6075 3.17622 88.4477 7.01614C83.1678 9.53608 77.768 11.936 71.8881 13.016C69.7281 13.496 70.5681 16.3759 72.4881 16.0159Z" fill="white"/>
<path d="M20.4127 24.7195C21.0091 24.7195 21.4927 24.236 21.4927 23.6395C21.4927 23.0431 21.0091 22.5596 20.4127 22.5596C19.8162 22.5596 19.3327 23.0431 19.3327 23.6395C19.3327 24.236 19.8162 24.7195 20.4127 24.7195Z" fill="white"/>
<path d="M27.262 138.209C30.6219 138.689 33.3819 140.969 35.6618 143.249C38.1818 145.769 40.4617 148.529 43.2217 150.689C46.4616 153.209 50.3015 154.529 54.5014 154.529C59.3013 154.529 63.8612 153.209 68.4211 152.249C73.341 151.169 78.8608 150.569 83.5407 153.209C85.2207 154.169 86.7807 151.529 85.1007 150.569C76.3409 145.529 66.7411 150.329 57.6213 151.409C53.1814 151.889 48.8615 151.289 45.1416 148.409C42.2617 146.129 39.8617 143.249 37.2218 140.729C34.3419 137.969 31.1019 135.689 27.022 135.209C25.3421 134.969 25.4621 137.969 27.262 138.209Z" fill="white"/>
<path d="M17.6038 4.4399C18.6838 1.91996 20.7237 0 24.0836 0C26.2436 0 28.5235 1.07998 29.6035 2.99993C31.0435 5.51988 29.9635 8.39981 28.8835 10.7998C28.1635 12.3597 27.2036 13.7997 26.2436 15.2397C23.8436 18.4796 23.2436 20.3995 23.3636 24.5994C22.0437 23.0395 20.4837 21.4795 19.2837 19.7996C17.3638 17.1596 16.7638 13.5597 16.6438 10.4398C16.6438 8.39981 16.8838 6.23986 17.6038 4.4399Z" fill="white"/>
<path d="M7.76391 14.8798C5.84395 13.9198 3.684 13.7998 1.76405 15.5998C0.564072 16.6797 -0.275909 18.4797 0.0840831 20.1597C0.564072 22.3196 2.72402 23.5196 4.52398 24.2396C8.2439 25.7995 13.0438 26.5195 17.0037 26.5195C14.7238 22.4396 12.0838 17.0397 7.76391 14.8798Z" fill="white"/>
<path d="M146.899 148.635C148.939 149.235 151.099 148.995 152.779 146.956C153.859 145.636 154.339 143.836 153.739 142.156C153.019 140.116 150.739 139.276 148.699 138.796C147.379 138.436 146.059 138.316 144.739 138.196C141.619 137.956 140.179 137.356 137.779 135.196C138.139 136.756 138.139 138.436 138.619 139.996C139.219 142.396 141.019 144.676 142.819 146.236C144.019 147.316 145.459 148.156 146.899 148.635Z" fill="white"/>
<defs>
<clipPath id="clip0_225_23861">
<rect width="53" height="53" fill="white" transform="translate(53 50)"/>
</clipPath>
</defs>
</svg>
