<svg width="369" height="266" viewBox="0 0 369 266" fill="none" xmlns="http://www.w3.org/2000/svg">
<path d="M13.4041 250.461H295.785C305.618 234.889 306.53 212.694 296.784 197.054C282.136 173.54 248.691 163.285 241.657 136.491C235.556 113.247 252.939 90.4966 255.055 66.5598C257.555 38.285 236.309 10.7967 209.078 2.78118C181.848 -5.23432 151.087 4.69175 130.896 24.6457C118.574 36.8236 108.82 52.9944 92.527 58.8837C79.2431 63.6751 64.4179 60.4809 50.513 62.9604C27.3549 67.0969 8.6088 88.8375 7.92204 112.351C7.25524 135.264 21.6971 157.925 15.694 180.045C12.5956 191.466 4.35648 200.943 1.12033 212.326C-2.67281 225.66 3.59986 240.639 13.4041 250.461Z" fill="#025366" fill-opacity="0.41"/>
<path d="M358.718 249.33H152.328C145.141 237.917 144.474 221.649 151.598 210.186C162.304 192.952 186.749 185.435 191.889 165.797C196.349 148.761 183.644 132.086 182.097 114.542C180.27 93.8179 195.798 73.6706 215.701 67.7958C235.604 61.9209 258.087 69.1961 272.844 83.8211C281.85 92.7468 288.98 104.599 300.888 108.916C310.597 112.427 321.433 110.086 331.596 111.903C348.522 114.935 362.223 130.87 362.725 148.104C363.212 164.897 352.657 181.506 357.045 197.719C359.309 206.09 365.331 213.036 367.696 221.38C370.469 231.152 365.884 242.131 358.718 249.33Z" fill="#EDFBFF" fill-opacity="0.12"/>
<g style="mix-blend-mode:multiply">
<path d="M149.356 265.769C230.794 265.769 296.812 258.376 296.812 249.255C296.812 240.135 230.794 232.741 149.356 232.741C67.9191 232.741 1.90112 240.135 1.90112 249.255C1.90112 258.376 67.9191 265.769 149.356 265.769Z" fill="#E6E6E6" fill-opacity="0.6"/>
</g>
<path d="M13.3694 240.294L2.60092 252.717C1.83231 253.604 3.90256 254.329 7.22855 254.329H194.278L86.04 227.116L13.3694 240.294Z" fill="#025366"/>
<path d="M229.581 220.665L259.092 213.325L248.511 201.121C247.008 200.488 245.375 200.227 243.75 200.36H233.568L177.046 210.612L229.581 220.665Z" fill="#083944"/>
<path d="M52.088 200.352C50.4621 200.218 48.828 200.479 47.3246 201.113L18.2532 234.652L213.392 200.352H52.088Z" fill="white"/>
<path d="M171.504 240.447L160.555 237.832L224.057 222.039L171.23 211.747L174.043 211.148L102.896 224.051L226.582 253.598L224.228 254.32H288.608C291.934 254.32 293.998 253.596 293.236 252.709L275.298 232.015L234.827 224.129L171.504 240.447Z" fill="#093944"/>
<path d="M272.587 228.901L262.326 217.062L240.328 222.712L272.587 228.901Z" fill="#083944"/>
<path d="M102.896 224.06L86.0408 227.116L194.279 254.329H229.615L102.896 224.06Z" fill="white"/>
<path d="M213.392 200.352L18.2526 234.66L13.3694 240.294L86.038 227.118L102.893 224.061L174.041 211.159L176.836 210.572L177.049 210.613L233.571 200.362L213.392 200.352Z" fill="#C2C2C2"/>
<path d="M240.327 222.712L262.325 217.046L259.093 213.317L229.584 220.655L177.051 210.602L174.045 211.147L171.234 211.745L224.058 222.037L160.557 237.83L171.505 240.446L234.829 224.135L275.299 232.021L272.588 228.892L240.327 222.712Z" fill="#7CC1D1"/>
<path d="M174.043 211.156L177.05 210.611L176.836 210.569L174.043 211.156Z" fill="#EEC1AC"/>
<path d="M296.269 108.758C296.269 161.939 235.379 231.374 229.611 231.374C223.023 231.374 162.954 164.716 162.954 108.758C162.954 91.0789 169.977 74.1243 182.477 61.6236C194.978 49.1229 211.933 42.1001 229.611 42.1001C247.29 42.1001 264.245 49.1229 276.745 61.6236C289.246 74.1243 296.269 91.0789 296.269 108.758Z" fill="#3C8A9D"/>
<g style="mix-blend-mode:multiply">
<path d="M259.581 117.358C263.648 100.807 253.528 84.092 236.977 80.0245C220.426 75.9571 203.711 86.077 199.644 102.628C195.576 119.179 205.696 135.894 222.247 139.962C238.798 144.029 255.513 133.909 259.581 117.358Z" fill="#151515" fill-opacity="0.31"/>
</g>
<path d="M93.2957 167.242C88.4046 162.347 86.4042 156.391 81.517 161.283L22.6655 220.14C20.3125 222.493 18.9904 225.683 18.99 229.011C18.9896 232.338 20.311 235.529 22.6635 237.882C25.0159 240.235 28.2068 241.557 31.534 241.557C34.8613 241.558 38.0524 240.236 40.4054 237.884L99.2629 179.026C104.156 174.131 98.1969 172.131 93.2957 167.242Z" fill="#7CC1D1"/>
<path d="M88.7599 171.121C78.0415 160.402 70.7423 146.746 67.7851 131.879C64.828 117.012 66.3458 101.602 72.1466 87.5979C77.9474 73.5936 87.7708 61.6239 100.374 53.2025C112.978 44.781 127.796 40.2861 142.954 40.2861C158.112 40.2861 172.93 44.781 185.534 53.2025C198.137 61.6239 207.96 73.5936 213.761 87.5979C219.562 101.602 221.08 117.012 218.123 131.879C215.166 146.746 207.866 160.402 197.148 171.121C182.763 185.473 163.274 193.533 142.954 193.533C122.634 193.533 103.144 185.473 88.7599 171.121ZM191.067 68.8159C181.551 59.3004 169.427 52.8203 156.229 50.1951C143.03 47.5699 129.35 48.9175 116.917 54.0674C104.484 59.2173 93.8577 67.9383 86.3813 79.1275C78.905 90.3168 74.9145 103.472 74.9145 116.929C74.9145 130.386 78.905 143.541 86.3813 154.73C93.8577 165.919 104.484 174.64 116.917 179.79C129.35 184.94 143.03 186.288 156.229 183.663C169.427 181.037 181.551 174.557 191.067 165.042C203.808 152.272 210.964 134.968 210.964 116.929C210.964 98.8892 203.808 81.5862 191.067 68.8159Z" fill="#7CC1D1"/>
<path opacity="0.3" d="M189.369 163.331C180.647 172.092 169.609 178.187 157.547 180.899C153.447 181.857 149.259 182.393 145.05 182.496C143.647 182.576 142.24 182.576 140.837 182.496C124.173 181.988 108.333 175.132 96.5572 163.331C89.0602 155.829 83.4922 146.623 80.3297 136.5C77.1672 126.377 76.5043 115.639 78.3978 105.204C80.2914 94.7686 84.685 84.9476 91.2025 76.5812C97.7201 68.2147 106.168 61.5519 115.822 57.1628C123.69 53.5791 132.195 51.6039 140.837 51.3533C142.24 51.2735 143.647 51.2735 145.05 51.3533C149.259 51.457 153.447 51.9921 157.547 52.9505C168.985 55.5531 179.516 61.1746 188.043 69.2296C196.571 77.2846 202.782 87.4785 206.032 98.7497C209.281 110.021 209.45 121.957 206.519 133.315C203.588 144.674 197.666 155.039 189.369 163.331Z" fill="white"/>
<g style="mix-blend-mode:overlay" opacity="0.3">
<path d="M140.837 51.3535V182.496C132.195 182.246 123.69 180.271 115.823 176.687V57.163C123.69 53.5792 132.195 51.6041 140.837 51.3535Z" fill="white"/>
</g>
<g style="mix-blend-mode:overlay" opacity="0.3">
<path d="M157.547 52.9506V180.899C153.447 181.858 149.259 182.393 145.05 182.496V51.3535C149.259 51.4571 153.447 51.9923 157.547 52.9506Z" fill="white"/>
</g>
<path d="M266.46 10.206C266.908 10.206 267.337 10.0282 267.653 9.71188C267.97 9.39552 268.147 8.96644 268.147 8.51903V4.05509C268.147 3.60794 267.97 3.17915 267.653 2.86297C267.337 2.54679 266.908 2.36914 266.461 2.36914C266.014 2.36914 265.585 2.54679 265.269 2.86297C264.953 3.17915 264.775 3.60794 264.775 4.05509V8.51903C264.775 8.74047 264.819 8.95978 264.903 9.16444C264.988 9.3691 265.112 9.55508 265.268 9.71176C265.425 9.86843 265.611 9.99272 265.815 10.0775C266.02 10.1623 266.239 10.206 266.46 10.206Z" fill="#E2B12B"/>
<path d="M273.998 9.8091H269.536C269.31 9.80132 269.084 9.83916 268.873 9.92038C268.661 10.0016 268.469 10.1246 268.306 10.2819C268.143 10.4392 268.013 10.6277 267.925 10.8361C267.837 11.0445 267.791 11.2686 267.791 11.4951C267.791 11.7215 267.837 11.9456 267.925 12.154C268.013 12.3624 268.143 12.5509 268.306 12.7082C268.469 12.8656 268.661 12.9885 268.873 13.0697C269.084 13.151 269.31 13.1888 269.536 13.181H273.998C274.224 13.1888 274.45 13.151 274.661 13.0697C274.872 12.9885 275.065 12.8656 275.228 12.7082C275.391 12.5509 275.52 12.3624 275.609 12.154C275.697 11.9456 275.743 11.7215 275.743 11.4951C275.743 11.2686 275.697 11.0445 275.609 10.8361C275.52 10.6277 275.391 10.4392 275.228 10.2819C275.065 10.1246 274.872 10.0016 274.661 9.92038C274.45 9.83916 274.224 9.80132 273.998 9.8091Z" fill="#E2B12B"/>
<path d="M266.56 12.8911C266.113 12.8911 265.684 13.0689 265.367 13.3852C265.051 13.7016 264.873 14.1307 264.873 14.5781V19.042C264.873 19.4894 265.051 19.9185 265.367 20.2348C265.684 20.5512 266.113 20.7289 266.56 20.7289C267.007 20.7289 267.436 20.5512 267.753 20.2348C268.069 19.9185 268.247 19.4894 268.247 19.042V14.5781C268.247 14.1307 268.069 13.7016 267.753 13.3852C267.436 13.0689 267.007 12.8911 266.56 12.8911Z" fill="#E2B12B"/>
<path d="M263.485 9.90869H259.021C258.574 9.90869 258.145 10.0863 257.829 10.4025C257.513 10.7187 257.335 11.1475 257.335 11.5946C257.335 12.0418 257.513 12.4706 257.829 12.7868C258.145 13.103 258.574 13.2806 259.021 13.2806H263.485C263.932 13.2806 264.361 13.103 264.677 12.7868C264.994 12.4706 265.171 12.0418 265.171 11.5946C265.171 11.1475 264.994 10.7187 264.677 10.4025C264.361 10.0863 263.932 9.90869 263.485 9.90869Z" fill="#E2B12B"/>
<path d="M19.1638 100.826C19.3202 100.983 19.506 101.107 19.7106 101.192C19.9151 101.276 20.1342 101.32 20.3556 101.32C20.577 101.32 20.7962 101.276 21.0007 101.192C21.2052 101.107 21.391 100.983 21.5475 100.826L24.7037 97.6699C25.0198 97.3538 25.1974 96.9251 25.1974 96.478C25.1974 96.031 25.0198 95.6023 24.7037 95.2862C24.3877 94.9701 23.9589 94.7925 23.5119 94.7925C23.0649 94.7925 22.6362 94.9701 22.3201 95.2862L19.1638 98.4405C18.8474 98.7568 18.6697 99.1859 18.6697 99.6333C18.6697 100.081 18.8474 100.51 19.1638 100.826Z" fill="#E2B12B"/>
<path d="M24.7746 105.875L21.6243 102.718C21.467 102.562 21.2804 102.438 21.0752 102.354C20.8699 102.269 20.6501 102.226 20.4282 102.227C20.2063 102.227 19.9867 102.271 19.7819 102.357C19.5771 102.442 19.3911 102.567 19.2346 102.724C19.0781 102.882 18.9541 103.068 18.8697 103.274C18.7853 103.479 18.7421 103.699 18.7427 103.921C18.7432 104.142 18.7875 104.362 18.8729 104.567C18.9584 104.772 19.0833 104.958 19.2406 105.114L22.3969 108.27C22.5518 108.435 22.7381 108.566 22.9447 108.657C23.1513 108.748 23.374 108.796 23.5997 108.799C23.8253 108.802 24.0493 108.76 24.2584 108.675C24.4675 108.59 24.6574 108.464 24.8169 108.305C24.9765 108.145 25.1023 107.955 25.1871 107.746C25.2718 107.537 25.3138 107.313 25.3104 107.087C25.307 106.861 25.2583 106.639 25.1673 106.432C25.0763 106.226 24.9448 106.04 24.7806 105.885L24.7746 105.875Z" fill="#E2B12B"/>
<path d="M17.3401 102.791C17.1837 102.634 16.9979 102.51 16.7934 102.425C16.5889 102.34 16.3697 102.297 16.1483 102.297C15.9269 102.297 15.7077 102.34 15.5032 102.425C15.2987 102.51 15.1129 102.634 14.9565 102.791L11.8002 105.945C11.4825 106.261 11.3034 106.691 11.3023 107.139C11.3011 107.587 11.4781 108.017 11.7942 108.335C12.1103 108.652 12.5396 108.832 12.9878 108.833C13.4359 108.834 13.8662 108.657 14.1839 108.341L17.3401 105.184C17.4982 105.028 17.6237 104.841 17.7094 104.636C17.795 104.431 17.8391 104.21 17.8391 103.988C17.8391 103.765 17.795 103.545 17.7094 103.339C17.6237 103.134 17.4982 102.947 17.3401 102.791Z" fill="#E2B12B"/>
<path d="M17.2702 98.5103L14.1139 95.356C13.7978 95.0399 13.3691 94.8623 12.9221 94.8623C12.4751 94.8623 12.0463 95.0399 11.7302 95.356C11.4142 95.6721 11.2366 96.1008 11.2366 96.5478C11.2366 96.9949 11.4142 97.4236 11.7302 97.7397L14.8865 100.896C15.0438 101.052 15.2304 101.176 15.4357 101.261C15.6409 101.345 15.8607 101.388 16.0826 101.388C16.3045 101.387 16.5241 101.343 16.7289 101.258C16.9337 101.172 17.1197 101.047 17.2762 100.89C17.4327 100.733 17.5567 100.546 17.6411 100.341C17.7255 100.136 17.7687 99.9158 17.7681 99.6939C17.7676 99.472 17.7233 99.2524 17.6379 99.0476C17.5525 98.8428 17.4275 98.6568 17.2702 98.5003V98.5103Z" fill="#E2B12B"/>
<path d="M96.6091 15.8859C96.9141 15.8859 97.2066 15.7647 97.4222 15.549C97.6379 15.3334 97.759 15.0409 97.759 14.7359V11.6934C97.7655 11.5385 97.7406 11.3839 97.6857 11.2389C97.6309 11.0939 97.5473 10.9614 97.44 10.8495C97.3327 10.7376 97.2038 10.6486 97.0612 10.5878C96.9186 10.527 96.7652 10.4956 96.6101 10.4956C96.4551 10.4956 96.3016 10.527 96.159 10.5878C96.0164 10.6486 95.8876 10.7376 95.7802 10.8495C95.6729 10.9614 95.5893 11.0939 95.5345 11.2389C95.4797 11.3839 95.4547 11.5385 95.4612 11.6934V14.7339C95.4607 14.885 95.49 15.0347 95.5474 15.1745C95.6049 15.3142 95.6894 15.4412 95.796 15.5482C95.9026 15.6552 96.0294 15.7402 96.1689 15.7981C96.3084 15.856 96.458 15.8859 96.6091 15.8859Z" fill="#E2B12B"/>
<path d="M101.747 15.6187H98.7044C98.5495 15.6122 98.3949 15.6371 98.2499 15.692C98.1049 15.7468 97.9724 15.8304 97.8605 15.9377C97.7486 16.045 97.6596 16.1739 97.5988 16.3165C97.538 16.4591 97.5066 16.6126 97.5066 16.7676C97.5066 16.9226 97.538 17.0761 97.5988 17.2187C97.6596 17.3613 97.7486 17.4902 97.8605 17.5975C97.9724 17.7048 98.1049 17.7884 98.2499 17.8432C98.3949 17.8981 98.5495 17.923 98.7044 17.9165H101.747C102.043 17.9042 102.324 17.7777 102.529 17.5636C102.734 17.3495 102.849 17.0643 102.849 16.7676C102.849 16.4709 102.734 16.1857 102.529 15.9716C102.324 15.7575 102.043 15.631 101.747 15.6187Z" fill="#E2B12B"/>
<path d="M96.677 17.7148C96.5262 17.7146 96.3768 17.7441 96.2374 17.8017C96.098 17.8593 95.9714 17.9438 95.8647 18.0505C95.7581 18.1571 95.6735 18.2838 95.6159 18.4232C95.5583 18.5626 95.5288 18.7119 95.5291 18.8628V21.9053C95.5226 22.0602 95.5476 22.2148 95.6024 22.3598C95.6572 22.5048 95.7408 22.6373 95.8481 22.7492C95.9554 22.8611 96.0843 22.9501 96.2269 23.0109C96.3695 23.0717 96.523 23.1031 96.678 23.1031C96.833 23.1031 96.9865 23.0717 97.1291 23.0109C97.2717 22.9501 97.4006 22.8611 97.5079 22.7492C97.6152 22.6373 97.6988 22.5048 97.7536 22.3598C97.8085 22.2148 97.8334 22.0602 97.8269 21.9053V18.8628C97.8269 18.7118 97.7972 18.5624 97.7394 18.423C97.6815 18.2836 97.5968 18.157 97.49 18.0504C97.3832 17.9437 97.2564 17.8592 97.1169 17.8016C96.9774 17.7441 96.8279 17.7146 96.677 17.7148Z" fill="#E2B12B"/>
<path d="M94.5826 15.6865H91.5401C91.3852 15.6801 91.2306 15.705 91.0856 15.7599C90.9405 15.8147 90.8081 15.8983 90.6962 16.0056C90.5843 16.1129 90.4953 16.2418 90.4345 16.3844C90.3736 16.527 90.3423 16.6804 90.3423 16.8355C90.3423 16.9905 90.3736 17.144 90.4345 17.2866C90.4953 17.4292 90.5843 17.558 90.6962 17.6654C90.8081 17.7727 90.9405 17.8563 91.0856 17.9111C91.2306 17.9659 91.3852 17.9908 91.5401 17.9844H94.5826C94.879 17.972 95.1592 17.8456 95.3646 17.6315C95.57 17.4174 95.6846 17.1322 95.6846 16.8355C95.6846 16.5388 95.57 16.2536 95.3646 16.0395C95.1592 15.8254 94.879 15.6989 94.5826 15.6865Z" fill="#E2B12B"/>
<path d="M301.362 164.475C301.577 164.259 301.698 163.967 301.698 163.663C301.698 163.358 301.577 163.066 301.362 162.85L299.21 160.7C298.992 160.498 298.704 160.388 298.407 160.394C298.109 160.399 297.826 160.52 297.615 160.73C297.405 160.941 297.284 161.224 297.279 161.522C297.273 161.819 297.383 162.107 297.585 162.325L299.737 164.475C299.844 164.582 299.97 164.667 300.11 164.725C300.249 164.783 300.399 164.812 300.55 164.812C300.701 164.812 300.85 164.783 300.99 164.725C301.129 164.667 301.256 164.582 301.362 164.475Z" fill="#E2B12B"/>
<path d="M304.793 160.652L302.643 162.802C302.529 162.907 302.438 163.034 302.375 163.175C302.312 163.316 302.278 163.469 302.275 163.624C302.272 163.778 302.3 163.932 302.358 164.075C302.416 164.219 302.502 164.349 302.611 164.459C302.721 164.568 302.851 164.654 302.994 164.712C303.138 164.77 303.292 164.798 303.446 164.795C303.601 164.792 303.753 164.758 303.894 164.695C304.036 164.632 304.163 164.541 304.268 164.427L306.418 162.277C306.531 162.172 306.622 162.045 306.686 161.904C306.749 161.763 306.783 161.61 306.786 161.455C306.789 161.301 306.761 161.147 306.703 161.004C306.645 160.86 306.559 160.73 306.449 160.62C306.34 160.511 306.21 160.425 306.066 160.367C305.923 160.309 305.769 160.281 305.614 160.284C305.46 160.287 305.307 160.321 305.166 160.384C305.025 160.447 304.898 160.538 304.793 160.652Z" fill="#E2B12B"/>
<path d="M302.69 165.723C302.583 165.83 302.499 165.956 302.441 166.096C302.383 166.235 302.353 166.385 302.353 166.536C302.353 166.687 302.383 166.836 302.441 166.975C302.499 167.115 302.583 167.242 302.69 167.348L304.84 169.5C305.059 169.702 305.347 169.812 305.644 169.807C305.941 169.801 306.225 169.68 306.435 169.47C306.646 169.26 306.766 168.976 306.772 168.679C306.777 168.381 306.668 168.093 306.465 167.875L304.315 165.723C304.099 165.508 303.807 165.388 303.503 165.388C303.198 165.388 302.906 165.508 302.69 165.723Z" fill="#E2B12B"/>
<path d="M299.777 165.765L297.625 167.917C297.422 168.135 297.313 168.423 297.318 168.72C297.324 169.018 297.445 169.301 297.655 169.512C297.865 169.722 298.149 169.843 298.446 169.848C298.744 169.854 299.032 169.744 299.25 169.542L301.402 167.39C301.515 167.285 301.606 167.158 301.67 167.017C301.733 166.875 301.767 166.723 301.77 166.568C301.773 166.414 301.745 166.26 301.687 166.116C301.629 165.973 301.543 165.843 301.433 165.733C301.324 165.624 301.194 165.538 301.05 165.48C300.907 165.422 300.753 165.394 300.598 165.397C300.444 165.4 300.291 165.434 300.15 165.497C300.009 165.56 299.882 165.651 299.777 165.765Z" fill="#E2B12B"/>
</svg>
