<svg width="428" height="313" viewBox="0 0 428 313" fill="none" xmlns="http://www.w3.org/2000/svg">
<path d="M-69.3086 79.6312C-69.3086 79.6312 -0.502434 -33.746 118.772 40.9695C126.5 45.8107 141.348 54.7273 157.956 61.6814C170.085 66.7573 261.962 103.383 353.873 52.0154C403.133 24.4846 411.957 -5.71566 427.762 0.930389C472.866 19.8819 506.326 227.735 433.361 322.663C405.649 358.723 385.906 347.855 79.5871 347.516C20.2239 347.451 -16.8616 347.817 -48.0391 314.376C-95.353 263.62 -114.559 150.584 -69.3086 79.6312Z" fill="#007C9A"/>
<path d="M-69.3086 95.6312C-69.3086 95.6312 -0.502434 -17.746 118.772 56.9695C126.5 61.8107 141.348 70.7273 157.956 77.6814C170.085 82.7573 261.962 119.383 353.873 68.0154C403.133 40.4846 411.957 10.2843 427.762 16.9304C472.866 35.8819 506.326 243.735 433.361 338.663C405.649 374.723 385.906 363.855 79.5871 363.516C20.2239 363.451 -16.8616 363.817 -48.0391 330.376C-95.353 279.62 -114.559 166.584 -69.3086 95.6312Z" fill="#025D73"/>
<path d="M-63.3086 109.631C-63.3086 109.631 5.49757 -3.74599 124.772 70.9695C132.5 75.8107 147.348 84.7273 163.956 91.6814C176.085 96.7573 267.962 133.383 359.873 82.0154C409.133 54.4846 417.957 24.2843 433.762 30.9304C478.866 49.8819 512.326 257.735 439.361 352.663C411.649 388.723 391.906 377.855 85.5871 377.516C26.2239 377.451 -10.8616 377.817 -42.0391 344.376C-89.353 293.62 -108.559 180.584 -63.3086 109.631Z" fill="#083944"/>
</svg>
