<svg width="372" height="246" viewBox="0 0 372 246" fill="none" xmlns="http://www.w3.org/2000/svg">
<g style="mix-blend-mode:multiply">
<path d="M293.968 240.796C293.968 243.671 238.574 246 170.238 246C101.903 246 46.5068 243.671 46.5068 240.796C46.5068 237.921 101.901 235.592 170.238 235.592C238.576 235.592 293.968 237.918 293.968 240.796Z" fill="#E6E6E6"/>
</g>
<path d="M240.219 237.568C252.294 224.121 263.845 209.692 270.15 192.755C276.456 175.818 276.847 155.838 267.318 140.484C253.747 118.622 224.745 111.679 207.553 92.5321C198.244 82.1666 192.988 68.8786 187.992 55.8765C182.997 42.8745 177.915 29.547 168.849 18.9678C159.784 8.38865 145.761 0.926035 132.07 3.51658C115.755 6.60025 105.101 22.3293 98.5954 37.6063C92.0894 52.8833 87.4081 69.7366 75.4745 81.2823C65.1682 91.2516 50.9481 95.7654 37.6337 101.086C24.3193 106.407 10.5793 113.635 4.02731 126.388C-2.12688 138.371 -0.590007 153.05 4.35603 165.579C9.30207 178.107 17.3302 189.13 24.3062 200.655C31.2823 212.179 37.3888 224.8 37.7849 238.264C37.7849 238.403 38.9438 238.555 38.9438 238.694L240.219 237.568Z" fill="#1E6778"/>
<path d="M363.802 239.756H198.899C193.157 230.673 192.624 217.725 198.316 208.602C206.87 194.886 226.401 188.904 230.508 173.274C234.071 159.715 223.92 146.444 222.684 132.481C221.225 115.988 233.632 99.9528 249.534 95.2771C265.436 90.6014 283.399 96.3916 295.19 108.031C302.386 115.135 308.082 124.568 317.596 128.003C325.354 130.798 334.011 128.935 342.131 130.381C355.655 132.794 366.602 145.476 367.003 159.193C367.393 172.558 358.959 185.777 362.465 198.68C364.274 205.343 369.086 210.871 370.975 217.511C373.19 225.289 369.527 234.027 363.802 239.756Z" fill="#3C8A9D"/>
<path d="M272.614 46.3652H102.327V64.4099H272.614V46.3652Z" fill="#E5AE94"/>
<g style="mix-blend-mode:multiply">
<path d="M272.614 43.7949H102.327V48.686H272.614V43.7949Z" fill="#EEC1AC"/>
</g>
<g style="mix-blend-mode:multiply">
<path d="M272.614 61.9644H102.327V66.8554H272.614V61.9644Z" fill="#EEC1AC"/>
</g>
<path d="M279.625 77.0566H95.3167V238.599H279.625V77.0566Z" fill="#97C6D1"/>
<g style="mix-blend-mode:multiply">
<path d="M279.625 75.1382H95.3167V80.0292H279.625V75.1382Z" fill="#EEC1AC"/>
</g>
<path d="M110.234 117.394H93.0735L99.3045 83.188H115.336L110.234 117.394Z" fill="white"/>
<path d="M100.106 126.735C95.285 126.735 91.9084 123.781 92.5634 120.182L93.0622 117.396H110.226L109.812 120.182C109.283 123.781 104.931 126.735 100.106 126.735Z" fill="#F4F4F4"/>
<path d="M127.399 117.394H110.233L115.332 83.188H131.362L127.399 117.394Z" fill="#228EA7"/>
<path d="M117.579 126.735C112.758 126.735 109.283 123.781 109.82 120.182L110.234 117.396H127.399L127.067 120.182C126.656 123.781 122.403 126.735 117.579 126.735Z" fill="#025366"/>
<path d="M144.562 117.394H127.399L131.364 83.188H147.395L144.562 117.394Z" fill="white"/>
<path d="M135.051 126.735C130.23 126.735 126.657 123.781 127.071 120.182L127.404 117.396H144.567L144.336 120.182C144.032 123.781 139.878 126.735 135.051 126.735Z" fill="#F4F4F4"/>
<path d="M161.726 117.394H144.562L147.389 83.188H163.418L161.726 117.394Z" fill="#228EA7"/>
<path d="M152.524 126.735C147.703 126.735 144.032 123.781 144.332 120.182L144.563 117.396H161.734L161.595 120.182C161.402 123.781 157.351 126.735 152.524 126.735Z" fill="#025366"/>
<path d="M178.89 117.394H161.726L163.425 83.188H179.457L178.89 117.394Z" fill="white"/>
<path d="M169.999 126.735C165.178 126.735 161.409 123.781 161.587 120.182L161.727 117.396H178.89L178.844 120.182C178.784 123.781 174.824 126.735 169.999 126.735Z" fill="#F4F4F4"/>
<path d="M196.054 117.394H178.89L179.457 83.188H195.483L196.054 117.394Z" fill="#228EA7"/>
<path d="M187.471 126.735C182.65 126.735 178.783 123.781 178.843 120.182L178.889 117.396H196.053L196.099 120.182C196.158 123.781 192.296 126.735 187.471 126.735Z" fill="#025366"/>
<path d="M213.217 117.394H196.054L195.483 83.1895H211.515L213.217 117.394Z" fill="white"/>
<path d="M204.944 126.735C200.123 126.735 196.158 123.781 196.1 120.182L196.053 117.396H213.217L213.355 120.182C213.534 123.781 209.769 126.735 204.944 126.735Z" fill="#F4F4F4"/>
<path d="M230.381 117.394H213.217L211.518 83.188H227.548L230.381 117.394Z" fill="#228EA7"/>
<path d="M222.416 126.735C217.594 126.735 213.533 123.781 213.353 120.182L213.215 117.396H230.379L230.61 120.182C230.909 123.781 227.237 126.735 222.416 126.735Z" fill="#025366"/>
<path d="M247.545 117.394H230.381L227.555 83.188H243.586L247.545 117.394Z" fill="white"/>
<path d="M239.89 126.735C235.068 126.735 230.912 123.781 230.611 120.182L230.38 117.396H247.544L247.866 120.182C248.283 123.781 244.716 126.735 239.89 126.735Z" fill="#F4F4F4"/>
<path d="M281.871 117.394H264.708L259.609 83.188H275.64L281.871 117.394Z" fill="white"/>
<path d="M274.837 126.735C270.016 126.735 265.66 123.781 265.123 120.182L264.707 117.396H281.871L282.378 120.182C283.035 123.781 279.661 126.735 274.837 126.735Z" fill="#F4F4F4"/>
<path d="M264.707 117.394H247.544L243.579 83.1895H259.61L264.707 117.394Z" fill="#228EA7"/>
<path d="M257.363 126.735C252.542 126.735 248.284 123.781 247.867 120.182L247.544 117.396H264.708L265.124 120.182C265.661 123.781 262.189 126.735 257.363 126.735Z" fill="#025366"/>
<path d="M278.703 64.4116H96.2409C94.1658 64.4116 92.4836 66.0938 92.4836 68.1688V73.3026C92.4836 75.3777 94.1658 77.0598 96.2409 77.0598H278.703C280.778 77.0598 282.46 75.3777 282.46 73.3026V68.1688C282.46 66.0938 280.778 64.4116 278.703 64.4116Z" fill="#E5AE94"/>
<path d="M271.782 33.7983H103.162C101.277 33.7983 99.7488 35.3264 99.7488 37.2114V43.0335C99.7488 44.9185 101.277 46.4466 103.162 46.4466H271.782C273.667 46.4466 275.195 44.9185 275.195 43.0335V37.2114C275.195 35.3264 273.667 33.7983 271.782 33.7983Z" fill="#E5AE94"/>
<path d="M281.602 221.477H214.637V238.599H281.602V221.477Z" fill="#025366"/>
<path d="M160.307 221.477H93.3914V238.599H160.307V221.477Z" fill="#025366"/>
<g style="mix-blend-mode:multiply">
<path d="M241.001 195.682H228.053V200.082H241.001V195.682Z" fill="white"/>
</g>
<g style="mix-blend-mode:multiply">
<path d="M250.455 200.558H237.508V204.958H250.455V200.558Z" fill="white"/>
</g>
<g style="mix-blend-mode:multiply">
<path d="M123.181 213.221H110.234V217.622H123.181V213.221Z" fill="white"/>
</g>
<g style="mix-blend-mode:multiply">
<path d="M116.635 208.18H103.687V212.581H116.635V208.18Z" fill="white"/>
</g>
<g style="mix-blend-mode:multiply">
<path d="M269.665 209.444H256.718V213.844H269.665V209.444Z" fill="white"/>
</g>
<g style="mix-blend-mode:multiply">
<path d="M232.853 207.116H219.906V211.517H232.853V207.116Z" fill="white"/>
</g>
<g style="mix-blend-mode:multiply">
<path d="M241.233 212.024H228.286V216.425H241.233V212.024Z" fill="white"/>
</g>
<path d="M163.524 134.208H211.425C211.993 134.208 212.537 134.433 212.938 134.835C213.339 135.236 213.565 135.78 213.565 136.348V238.599H161.384V136.348C161.384 135.78 161.61 135.236 162.011 134.835C162.412 134.433 162.956 134.208 163.524 134.208Z" fill="#025366"/>
<path d="M165.801 137.264H209.142C209.457 137.265 209.759 137.39 209.982 137.613C210.204 137.837 210.329 138.139 210.329 138.454V238.597H164.611V138.454C164.611 138.138 164.736 137.836 164.959 137.612C165.182 137.389 165.485 137.264 165.801 137.264Z" fill="#75B0BD"/>
<g style="mix-blend-mode:multiply">
<path d="M206.995 139.336H167.95C167.28 139.336 166.738 139.879 166.738 140.548V188.079C166.738 188.748 167.28 189.291 167.95 189.291H206.995C207.664 189.291 208.207 188.748 208.207 188.079V140.548C208.207 139.879 207.664 139.336 206.995 139.336Z" fill="#75B0BD"/>
</g>
<g style="mix-blend-mode:multiply">
<path d="M168.608 140.608H206.328C206.489 140.608 206.643 140.672 206.756 140.786C206.87 140.899 206.933 141.053 206.933 141.214V187.412C206.933 187.492 206.918 187.571 206.887 187.644C206.857 187.717 206.812 187.784 206.756 187.84C206.7 187.897 206.633 187.941 206.56 187.972C206.486 188.002 206.408 188.018 206.328 188.018H168.615C168.535 188.018 168.457 188.002 168.383 187.972C168.31 187.941 168.243 187.897 168.187 187.84C168.131 187.784 168.086 187.717 168.056 187.644C168.025 187.571 168.01 187.492 168.01 187.412V141.207C168.01 141.048 168.073 140.896 168.185 140.784C168.297 140.671 168.449 140.608 168.608 140.608Z" fill="#75B0BD"/>
</g>
<g style="mix-blend-mode:overlay" opacity="0.3">
<path d="M206.932 178.849V185.757L168.01 146.776V141.214C168.01 141.053 168.074 140.9 168.187 140.787C168.3 140.673 168.453 140.609 168.613 140.608H168.741L206.932 178.849Z" fill="white"/>
<path d="M206.932 165.506V176.322L171.274 140.612H182.072L206.932 165.506Z" fill="white"/>
</g>
<path d="M177.351 193.53H167.795C167.514 193.53 167.246 193.419 167.047 193.221C166.849 193.022 166.738 192.754 166.738 192.473C166.738 192.193 166.849 191.923 167.047 191.725C167.245 191.526 167.514 191.415 167.795 191.414H177.351C177.632 191.414 177.901 191.526 178.1 191.724C178.298 191.923 178.41 192.192 178.41 192.473C178.409 192.754 178.298 193.023 178.099 193.221C177.901 193.419 177.631 193.53 177.351 193.53Z" fill="#025366"/>
<path d="M104.181 134.208H156.145C156.864 134.208 157.553 134.494 158.061 135.002C158.569 135.51 158.855 136.199 158.855 136.918V191.707C158.855 192.426 158.569 193.116 158.061 193.624C157.552 194.133 156.863 194.418 156.143 194.418H104.182C103.463 194.418 102.773 194.133 102.265 193.624C101.756 193.116 101.471 192.426 101.471 191.707V136.918C101.471 136.199 101.756 135.51 102.264 135.002C102.773 134.494 103.462 134.208 104.181 134.208Z" fill="#025366"/>
<g style="mix-blend-mode:multiply">
<path d="M156.147 135.481H104.184C103.39 135.481 102.746 136.125 102.746 136.919V191.709C102.746 192.503 103.39 193.147 104.184 193.147H156.147C156.941 193.147 157.585 192.503 157.585 191.709V136.919C157.585 136.125 156.941 135.481 156.147 135.481Z" fill="#025366"/>
</g>
<g style="mix-blend-mode:overlay" opacity="0.2">
<path d="M157.578 189.378V191.705C157.579 191.895 157.541 192.082 157.469 192.257C157.397 192.431 157.291 192.59 157.157 192.724C157.023 192.858 156.865 192.964 156.69 193.036C156.515 193.108 156.328 193.145 156.139 193.145H138.835L102.746 146.62V136.918C102.746 136.729 102.783 136.542 102.855 136.367C102.928 136.192 103.034 136.034 103.167 135.9C103.301 135.766 103.46 135.661 103.635 135.589C103.809 135.516 103.997 135.48 104.186 135.48H115.772L157.578 189.378Z" fill="white"/>
<path d="M157.578 165.339V183.546L120.285 135.482H134.416L157.578 165.339Z" fill="white"/>
<path d="M134.279 193.147H128.447L102.746 160.017V152.499L134.279 193.147Z" fill="white"/>
</g>
<path d="M218.795 134.208H270.759C271.478 134.208 272.168 134.494 272.676 135.002C273.185 135.511 273.471 136.2 273.471 136.92V191.707C273.471 192.426 273.185 193.116 272.676 193.624C272.168 194.133 271.478 194.418 270.759 194.418H218.796C218.077 194.418 217.387 194.133 216.879 193.624C216.37 193.116 216.085 192.426 216.085 191.707V136.918C216.085 136.199 216.37 135.51 216.878 135.002C217.387 134.494 218.076 134.208 218.795 134.208Z" fill="#025366"/>
<g style="mix-blend-mode:multiply">
<path d="M270.761 135.481H218.798C218.004 135.481 217.36 136.125 217.36 136.919V191.709C217.36 192.503 218.004 193.147 218.798 193.147H270.761C271.555 193.147 272.199 192.503 272.199 191.709V136.919C272.199 136.125 271.555 135.481 270.761 135.481Z" fill="#025366"/>
</g>
<g style="mix-blend-mode:overlay" opacity="0.2">
<path d="M272.199 189.378V191.705C272.199 191.895 272.162 192.082 272.09 192.257C272.017 192.431 271.911 192.59 271.778 192.724C271.644 192.858 271.485 192.964 271.31 193.036C271.136 193.108 270.948 193.145 270.759 193.145H253.449L217.36 146.62V136.918C217.36 136.729 217.397 136.542 217.469 136.367C217.541 136.192 217.647 136.034 217.781 135.9C217.915 135.766 218.074 135.661 218.248 135.589C218.423 135.516 218.611 135.48 218.8 135.48H230.385L272.199 189.378Z" fill="white"/>
<path d="M272.199 165.339V183.546L234.906 135.482H249.038L272.199 165.339Z" fill="white"/>
<path d="M248.893 193.147H243.061L217.36 160.017V152.499L248.893 193.147Z" fill="white"/>
</g>
<path d="M253.93 20.2475H238.279C228.454 10.5469 209.875 4 188.559 4C167.243 4 148.659 10.5469 138.839 20.2475H123.187C122.238 20.2475 121.299 20.4343 120.423 20.7973C119.547 21.1602 118.751 21.6922 118.08 22.3629C117.41 23.0335 116.878 23.8296 116.515 24.7058C116.153 25.582 115.966 26.5211 115.966 27.4694V42.8142C115.966 43.7625 116.153 44.7015 116.515 45.5777C116.878 46.4539 117.41 47.2501 118.08 47.9207C118.751 48.5913 119.547 49.1233 120.423 49.4863C121.299 49.8492 122.238 50.036 123.187 50.036H137.13C146.397 60.7225 165.941 68.089 188.559 68.089C211.177 68.089 230.721 60.7225 239.986 50.036H253.93C255.845 50.036 257.682 49.2752 259.036 47.9208C260.391 46.5664 261.152 44.7295 261.152 42.8142V27.4694C261.152 25.554 260.391 23.7171 259.036 22.3628C257.682 21.0084 255.845 20.2475 253.93 20.2475Z" fill="#023642"/>
<path d="M188.559 63.0999C168.21 63.0999 149.502 56.6877 140.899 46.7643L139.403 45.0453H123.183C122.591 45.0444 122.023 44.8087 121.604 44.3899C121.186 43.971 120.95 43.4032 120.949 42.8109V27.4661C120.951 26.8735 121.187 26.3058 121.607 25.8875C122.027 25.4692 122.596 25.2346 123.188 25.235H140.886L142.344 23.797C151.595 14.6616 169.304 8.98584 188.561 8.98584C207.817 8.98584 225.525 14.6616 234.778 23.797L236.234 25.235H253.933C254.525 25.2359 255.093 25.4716 255.512 25.8905C255.93 26.3094 256.166 26.8772 256.166 27.4694V42.8142C256.166 43.4064 255.93 43.9742 255.512 44.3931C255.093 44.812 254.525 45.0477 253.933 45.0486H237.711L236.214 46.7676C227.616 56.6877 208.908 63.0999 188.559 63.0999Z" fill="white"/>
<g style="mix-blend-mode:multiply">
<path d="M253.93 25.235H236.231L234.775 23.797C225.523 14.6616 207.812 8.98584 188.557 8.98584C169.302 8.98584 151.594 14.6616 142.34 23.797L140.882 25.235H123.188C122.596 25.2359 122.028 25.4716 121.609 25.8904C121.19 26.3093 120.955 26.8771 120.954 27.4694V27.7204C121.294 27.4944 121.691 27.3688 122.099 27.358H139.798L141.255 25.9183C150.508 16.7846 168.217 11.1088 187.472 11.1088C206.727 11.1088 224.436 16.7846 233.689 25.9183L235.145 27.358H252.839C253.432 27.358 254 27.5932 254.419 28.0119C254.838 28.4305 255.073 28.9984 255.074 29.5907V44.6862C255.401 44.4945 255.673 44.2216 255.863 43.8939C256.054 43.5662 256.156 43.1949 256.161 42.8159V27.4711C256.161 26.8789 255.926 26.3109 255.508 25.8917C255.089 25.4725 254.522 25.2363 253.93 25.235Z" fill="#E2B12B"/>
</g>
<path d="M170.589 48.21H171.207L171.354 48.2589V48.7636L171.207 48.8124H168V48.1938H169.889V47.51C169.889 47.1355 169.807 46.8587 169.661 46.6796C169.514 46.5005 169.27 46.4191 168.944 46.4191H168.244V45.833H168.928C169.482 45.833 169.905 45.9633 170.182 46.24C170.458 46.5168 170.589 46.9238 170.589 47.4937V48.21Z" fill="#E2B12B"/>
<path d="M171.11 48.8287L171.126 48.21H174.154V48.3077C174.105 48.2589 174.056 48.1938 174.008 48.1124C173.959 48.0147 173.894 47.8844 173.812 47.7053L173.617 47.2657C173.519 47.0378 173.422 46.8587 173.34 46.7447C173.259 46.6308 173.161 46.5494 173.063 46.5168C172.966 46.468 172.835 46.4517 172.673 46.4517H171.859V45.833H172.673C172.966 45.833 173.194 45.8656 173.373 45.9307C173.552 45.9958 173.715 46.1098 173.845 46.2726C173.975 46.4354 174.105 46.6796 174.236 46.989L174.415 47.4448C174.496 47.6402 174.577 47.803 174.643 47.9007C174.708 48.0147 174.789 48.0798 174.838 48.1286C174.903 48.1775 175.033 48.1938 175.245 48.1938L175.001 48.8287H174.805H171.11ZM172.542 49.9358C172.461 49.8544 172.428 49.7567 172.428 49.6591C172.428 49.5451 172.461 49.4474 172.542 49.366C172.624 49.2846 172.721 49.252 172.835 49.252C172.949 49.252 173.047 49.2846 173.128 49.366C173.21 49.4474 173.242 49.5451 173.242 49.6591C173.242 49.773 173.21 49.8707 173.128 49.9358C173.047 50.0172 172.949 50.0498 172.835 50.0498C172.705 50.0498 172.607 50.0172 172.542 49.9358Z" fill="#E2B12B"/>
<path d="M176.222 48.4712C175.994 48.2269 175.88 47.8688 175.88 47.4129L175.864 45.508V44.3521H176.596V45.508L176.58 47.4129C176.58 47.7059 176.645 47.9176 176.759 48.0478C176.873 48.1781 177.069 48.2432 177.313 48.2432H177.345L177.492 48.2921V48.7968L177.345 48.8456H177.215C176.776 48.8293 176.45 48.6991 176.222 48.4712Z" fill="#E2B12B"/>
<path d="M178.013 47.7218L178.339 46.1589L179.788 46.1426C180.113 46.1426 180.374 46.224 180.585 46.4031C180.797 46.5659 180.944 46.7775 181.009 47.0055C181.09 47.2334 181.09 47.4939 181.025 47.7544C180.96 48.0149 180.846 48.2266 180.683 48.4056C180.52 48.5847 180.309 48.6987 180.048 48.7638C179.804 48.829 179.543 48.829 179.25 48.7638C178.843 48.6661 178.567 48.5033 178.42 48.2266L178.29 48.3894C178.208 48.487 178.111 48.5685 178.013 48.6336C177.866 48.7313 177.72 48.7801 177.573 48.8127H177.329L177.183 48.7638V48.2591L177.329 48.2103C177.394 48.2103 177.459 48.2103 177.525 48.194C177.671 48.1777 177.801 48.1126 177.883 48.0149C177.932 47.9823 177.964 47.8684 178.013 47.7218ZM178.811 46.8427L178.762 47.0543C178.697 47.3311 178.729 47.5753 178.827 47.7381C178.941 47.9172 179.136 48.0312 179.413 48.0963C179.592 48.1289 179.739 48.1451 179.885 48.1126C180.032 48.08 180.146 48.0312 180.243 47.9498C180.341 47.8684 180.39 47.7544 180.423 47.6242C180.471 47.4125 180.423 47.2334 180.292 47.0869C180.162 46.9403 179.95 46.8589 179.641 46.8589L178.811 46.8427Z" fill="#E2B12B"/>
<path d="M185.665 48.829C185.6 49.2035 185.453 49.4966 185.225 49.7245C184.9 50.0501 184.411 50.1966 183.744 50.1966H182.979V49.5617H183.76C184.135 49.5617 184.411 49.4966 184.607 49.3663C184.802 49.2361 184.916 49.057 184.965 48.829H184.525C184.004 48.829 183.614 48.6988 183.337 48.4546C183.076 48.2104 182.946 47.8359 182.946 47.3312C182.946 47.0544 183.011 46.7939 183.125 46.566C183.239 46.338 183.402 46.1589 183.614 46.045C183.825 45.9147 184.069 45.8496 184.33 45.8496C184.607 45.8496 184.835 45.9147 185.046 46.045C185.258 46.1752 185.421 46.3543 185.535 46.5985C185.649 46.8428 185.714 47.1195 185.714 47.4289V48.2266H186.316L186.463 48.2755V48.7802L186.316 48.829H185.665ZM185.014 48.2104V47.4126C185.014 47.1033 184.949 46.859 184.835 46.6962C184.721 46.5334 184.542 46.452 184.33 46.452C184.2 46.452 184.086 46.4846 183.972 46.566C183.874 46.6311 183.793 46.7451 183.728 46.8753C183.662 47.0056 183.646 47.1521 183.646 47.3312C183.646 47.6405 183.711 47.8522 183.858 47.9987C184.004 48.1452 184.216 48.2104 184.509 48.2104H185.014Z" fill="#E2B12B"/>
<path d="M186.87 48.8292H186.283L186.137 48.7803V48.2593L186.283 48.2105H186.772C187.016 48.2105 187.212 48.1454 187.325 48.0151C187.439 47.8849 187.505 47.6895 187.505 47.3964V45.9312H188.237V47.3964C188.221 47.8686 188.091 48.2105 187.863 48.4547C187.635 48.6989 187.309 48.8292 186.87 48.8292ZM186.886 49.9363C186.804 49.8549 186.772 49.7572 186.772 49.6595C186.772 49.5455 186.804 49.4479 186.886 49.3665C186.967 49.285 187.065 49.2525 187.179 49.2525C187.293 49.2525 187.391 49.285 187.472 49.3665C187.553 49.4479 187.586 49.5455 187.586 49.6595C187.586 49.7735 187.553 49.8712 187.472 49.9363C187.391 50.0177 187.293 50.0503 187.179 50.0503C187.065 50.0503 186.967 50.0177 186.886 49.9363Z" fill="#E2B12B"/>
<path d="M189.1 44.3521H189.8V45.5406V48.8293H189.1V45.5406V44.3521Z" fill="#E2B12B"/>
<path d="M195.368 48.8291H195.189C194.912 48.8291 194.685 48.7639 194.489 48.65C194.31 48.536 194.18 48.4058 194.098 48.2267C193.903 48.4058 193.626 48.5197 193.268 48.5523C193.219 48.5523 193.154 48.5523 193.105 48.5523C192.877 48.5523 192.666 48.5034 192.454 48.422C192.242 48.3406 192.063 48.1941 191.917 47.9987C191.77 47.8034 191.689 47.5754 191.656 47.2986C191.656 47.2498 191.656 47.201 191.656 47.1521C191.656 46.9405 191.705 46.7288 191.803 46.5334C191.9 46.3381 192.063 46.159 192.291 46.0287C192.47 45.931 192.666 45.8659 192.894 45.8659C192.959 45.8659 193.04 45.8659 193.105 45.8822L194.001 45.9962V45.6868H194.619V47.4289C194.619 47.6894 194.685 47.8848 194.798 48.015C194.929 48.1453 195.092 48.2104 195.336 48.2104H195.368L195.515 48.2755V48.7802L195.368 48.8291ZM193.056 47.8359C193.105 47.8359 193.154 47.8359 193.203 47.8196C193.74 47.7708 194.001 47.494 194.001 46.9893C194.001 46.9567 194.001 46.9079 194.001 46.8753V46.6637L193.138 46.5497C193.073 46.5497 193.008 46.5334 192.942 46.5334C192.731 46.5334 192.584 46.5823 192.454 46.68C192.324 46.7939 192.259 46.9405 192.259 47.1196V47.1847C192.275 47.3149 192.307 47.4289 192.389 47.5266C192.47 47.6243 192.584 47.6894 192.715 47.7382C192.828 47.8196 192.942 47.8359 193.056 47.8359ZM192.584 45.3938C192.503 45.3124 192.47 45.2147 192.47 45.117C192.47 45.003 192.503 44.9053 192.584 44.8239C192.666 44.7425 192.763 44.71 192.877 44.71C192.991 44.71 193.089 44.7425 193.17 44.8239C193.252 44.9053 193.284 45.003 193.284 45.117C193.284 45.231 193.252 45.3286 193.17 45.3938C193.089 45.4752 192.991 45.5077 192.877 45.5077C192.763 45.5077 192.666 45.4752 192.584 45.3938ZM193.577 45.3938C193.496 45.3124 193.463 45.2147 193.463 45.117C193.463 45.003 193.496 44.9053 193.577 44.8239C193.659 44.7425 193.757 44.71 193.87 44.71C193.984 44.71 194.082 44.7425 194.164 44.8239C194.245 44.9053 194.277 45.003 194.277 45.117C194.277 45.231 194.245 45.3286 194.164 45.3938C194.082 45.4752 193.984 45.5077 193.87 45.5077C193.757 45.5077 193.659 45.4752 193.577 45.3938Z" fill="#E2B12B"/>
<path d="M196.313 48.4056C196.231 48.5033 196.134 48.5847 196.036 48.6499C195.889 48.7475 195.743 48.7964 195.596 48.829H195.352L195.206 48.7801V48.2591L195.352 48.2103C195.417 48.2103 195.482 48.2103 195.547 48.194C195.694 48.1777 195.824 48.1126 195.906 48.0149C195.954 47.9661 195.987 47.8684 196.036 47.7218L196.362 46.1589L197.811 46.1426C198.136 46.1426 198.397 46.224 198.608 46.4031C198.82 46.5659 198.966 46.7775 199.032 47.0055C199.113 47.2334 199.113 47.4939 199.048 47.7544C199.032 47.8032 199.015 47.8521 199.015 47.9009C199.048 47.9498 199.08 47.9823 199.113 48.0149C199.227 48.1451 199.406 48.2103 199.65 48.2103H199.732L199.878 48.2754V48.7801L199.732 48.829H199.52C199.26 48.829 199.032 48.7801 198.836 48.6499C198.755 48.601 198.69 48.5522 198.625 48.487C198.478 48.6173 198.283 48.715 198.071 48.7638C197.827 48.829 197.566 48.829 197.273 48.7638C196.866 48.6661 196.589 48.5033 196.443 48.2266L196.313 48.4056ZM196.817 46.8427L196.769 47.0543C196.703 47.3311 196.736 47.5753 196.834 47.7381C196.948 47.9172 197.143 48.0312 197.42 48.0963C197.599 48.1289 197.745 48.1451 197.892 48.1126C198.038 48.08 198.152 48.0312 198.25 47.9498C198.348 47.8684 198.397 47.7544 198.429 47.6242C198.478 47.4125 198.429 47.2334 198.299 47.0869C198.169 46.9403 197.957 46.8589 197.648 46.8589L196.817 46.8427Z" fill="#E2B12B"/>
<path d="M199.585 48.8287L199.601 48.21H202.63V48.3077C202.581 48.2589 202.532 48.1938 202.483 48.1124C202.434 48.0147 202.369 47.8844 202.288 47.7053L202.092 47.2657C201.995 47.0378 201.897 46.8587 201.816 46.7447C201.734 46.6308 201.637 46.5494 201.539 46.5168C201.441 46.468 201.311 46.4517 201.148 46.4517H200.334V45.833H201.148C201.441 45.833 201.669 45.8656 201.848 45.9307C202.027 45.9958 202.19 46.1098 202.32 46.2726C202.451 46.4354 202.581 46.6796 202.711 46.989L202.89 47.4448C202.972 47.6402 203.053 47.803 203.118 47.9007C203.183 48.0147 203.265 48.0798 203.33 48.1286C203.395 48.1775 203.509 48.1938 203.655 48.21H203.916L204.062 48.2589V48.7799L203.9 48.8124H199.585V48.8287Z" fill="#E2B12B"/>
<path d="M206.277 48.2758V48.7805L206.13 48.8293H205.951C205.674 48.8293 205.447 48.7642 205.3 48.6502C205.153 48.5363 205.023 48.3735 204.942 48.1781H205.04C204.974 48.3735 204.828 48.5363 204.633 48.6502C204.421 48.7642 204.209 48.8293 203.965 48.8293H203.932L203.786 48.7805V48.2595L203.932 48.2107H203.965C204.193 48.2107 204.372 48.1455 204.502 48.0153C204.616 47.885 204.681 47.6897 204.665 47.4292V45.508V44.3521H205.398V45.508V47.4292C205.381 47.6897 205.447 47.885 205.561 48.0153C205.674 48.1455 205.854 48.2107 206.098 48.2107H206.13L206.277 48.2758Z" fill="#E2B12B"/>
<path d="M206.782 47.7218L207.107 46.1589L208.556 46.1426C208.882 46.1426 209.142 46.224 209.354 46.4031C209.566 46.5659 209.712 46.7775 209.777 47.0055C209.859 47.2334 209.859 47.4939 209.794 47.7544C209.728 48.0149 209.614 48.2266 209.452 48.4056C209.289 48.5847 209.077 48.6987 208.817 48.7638C208.572 48.829 208.312 48.829 208.019 48.7638C207.612 48.6661 207.335 48.5033 207.189 48.2266L207.058 48.3894C206.977 48.487 206.879 48.5685 206.782 48.6336C206.635 48.7313 206.488 48.7801 206.342 48.8127H206.098L205.951 48.7638V48.2591L206.098 48.2103C206.163 48.2103 206.228 48.2103 206.293 48.194C206.44 48.1777 206.57 48.1126 206.651 48.0149C206.684 47.9823 206.733 47.8684 206.782 47.7218ZM207.563 46.8427L207.514 47.0543C207.449 47.3311 207.482 47.5753 207.579 47.7381C207.693 47.9172 207.889 48.0312 208.165 48.0963C208.344 48.1289 208.491 48.1451 208.638 48.1126C208.784 48.08 208.898 48.0312 208.996 47.9498C209.093 47.8684 209.142 47.7544 209.175 47.6242C209.224 47.4125 209.175 47.2334 209.045 47.0869C208.914 46.9403 208.703 46.8589 208.393 46.8589L207.563 46.8427Z" fill="#E2B12B"/>
<path d="M170.328 54.9347L170.051 54.0881H168.895L168.602 54.9347H168.049L169.189 51.7437H169.742L170.882 54.9347H170.328ZM169.482 52.3298L169.026 53.6648H169.905L169.465 52.3298H169.482Z" fill="#025366"/>
<path d="M174.789 54.9504H173.519V51.7593H174.789C175.066 51.7593 175.294 51.8407 175.473 51.9872C175.652 52.1337 175.734 52.3291 175.734 52.5733C175.734 52.7524 175.685 52.899 175.571 53.0292C175.457 53.1594 175.326 53.2409 175.18 53.2734V53.2571C175.392 53.2897 175.554 53.3711 175.685 53.5176C175.815 53.6642 175.88 53.8433 175.88 54.0549C175.88 54.3317 175.782 54.5596 175.587 54.7224C175.392 54.869 175.131 54.9504 174.789 54.9504ZM174.04 52.1989V53.0943H174.561C174.968 53.0943 175.18 52.9315 175.196 52.6222C175.196 52.3454 175.017 52.1989 174.675 52.1989H174.04ZM174.04 54.4945H174.692C175.115 54.4945 175.343 54.3317 175.343 53.9898C175.343 53.6642 175.115 53.5013 174.675 53.5013H174.057V54.4945H174.04Z" fill="#025366"/>
<path d="M179.95 51.7104C180.26 51.7104 180.52 51.7756 180.732 51.9058C180.96 52.0361 181.123 52.2314 181.253 52.4757C181.367 52.7199 181.432 53.0129 181.432 53.3548C181.432 53.6967 181.367 53.9735 181.253 54.234C181.139 54.4782 180.96 54.6736 180.732 54.8038C180.504 54.9341 180.243 54.9992 179.95 54.9992C179.641 54.9992 179.38 54.9341 179.169 54.8038C178.941 54.6736 178.778 54.4782 178.648 54.234C178.534 53.9898 178.469 53.6967 178.469 53.3548C178.469 53.0129 178.534 52.7199 178.648 52.4757C178.762 52.2314 178.941 52.0361 179.169 51.9058C179.397 51.7756 179.657 51.7104 179.95 51.7104ZM179.95 52.1826C179.657 52.1826 179.429 52.2803 179.267 52.4919C179.104 52.7036 179.006 52.9804 179.006 53.3548C179.006 53.713 179.087 54.0061 179.267 54.2177C179.429 54.4294 179.657 54.5271 179.95 54.5271C180.243 54.5271 180.471 54.4294 180.634 54.2177C180.797 54.0061 180.878 53.7293 180.878 53.3548C180.878 52.9967 180.797 52.7036 180.634 52.4919C180.471 52.2803 180.243 52.1826 179.95 52.1826Z" fill="#025366"/>
<path d="M190.582 54.9504H190.094V52.6222H190.11L189.182 54.9178H188.791L187.847 52.6222H187.863V54.9504H187.391V51.7593H187.977L188.986 54.234H188.97L189.98 51.7593H190.582V54.9504Z" fill="#025366"/>
<path d="M195.483 54.9347L195.206 54.0881H194.05L193.773 54.9347H193.219L194.359 51.7437H194.913L196.052 54.9347H195.483ZM194.636 52.3298L194.18 53.6648H195.059L194.603 52.3298H194.636Z" fill="#025366"/>
<path d="M198.478 54.0875H198.999C198.999 54.2177 199.048 54.3317 199.129 54.4131C199.211 54.4945 199.308 54.5271 199.439 54.5271C199.748 54.5271 199.894 54.348 199.911 53.9898V51.7593H200.432V54.0061C200.432 54.3154 200.35 54.5759 200.171 54.7387C199.992 54.9015 199.748 54.9992 199.439 54.9992C199.243 54.9992 199.08 54.9666 198.934 54.8852C198.787 54.8038 198.673 54.7061 198.592 54.5596C198.511 54.4457 198.478 54.2828 198.478 54.0875Z" fill="#025366"/>
<path d="M203.818 51.7593H203.297V54.9504H203.818V51.7593Z" fill="#025366"/>
<path d="M206.7 51.7593H207.824C208.296 51.7593 208.654 51.9058 208.914 52.1826C209.175 52.4594 209.305 52.8501 209.305 53.3548C209.305 53.8595 209.175 54.2503 208.914 54.5271C208.654 54.8038 208.279 54.9504 207.824 54.9504H206.7V51.7593ZM207.221 52.2151V54.4782H207.775C208.1 54.4782 208.345 54.3805 208.524 54.1852C208.703 53.9898 208.784 53.713 208.784 53.3548C208.784 52.9804 208.703 52.7036 208.524 52.5082C208.345 52.3128 208.1 52.2151 207.775 52.2151H207.221Z" fill="#025366"/>
<path d="M209.826 50.6851H168V50.9618H209.826V50.6851Z" fill="#E2B12B"/>
<path d="M183.32 41.3075H178.257V30.8876C178.257 28.0873 180.52 25.8242 183.32 25.8242V41.3075Z" fill="#E2B12B"/>
<g clip-path="url(#clip0_220_21506)">
<path d="M191.461 29.3735H186.398V41.2913H191.461V29.3735Z" fill="#025366"/>
</g>
<path d="M194.082 23.024H188.921V17H183.011C180.39 17 178.257 19.1328 178.257 21.7541V23.024H182.604C182.604 26.1174 185.111 28.6247 188.205 28.6247H194.603V41.3076H199.667V28.6247C199.683 25.5313 197.176 23.024 194.082 23.024Z" fill="#025366"/>
<path d="M293.274 227.962C294.218 226.548 294.824 224.937 295.048 223.252C295.153 222.41 295.071 221.555 294.807 220.748C294.544 219.941 294.105 219.202 293.524 218.584C292.924 217.985 292.147 217.596 291.308 217.474C290.47 217.351 289.614 217.503 288.869 217.906C289.201 215.918 289.319 213.9 289.221 211.888C289.115 209.859 288.357 207.919 287.06 206.356C286.404 205.588 285.557 205.006 284.604 204.67C283.651 204.334 282.626 204.256 281.633 204.445C280.612 204.767 279.688 205.341 278.948 206.115C278.208 206.889 277.675 207.837 277.399 208.872C276.872 210.945 276.704 213.094 276.9 215.224C276.552 214.572 276.007 214.046 275.342 213.723C274.677 213.4 273.927 213.295 273.199 213.425C272.471 213.554 271.803 213.91 271.29 214.442C270.777 214.975 270.446 215.656 270.343 216.388C269.952 215.844 269.439 215.398 268.846 215.087C268.252 214.777 267.594 214.609 266.923 214.597C266.253 214.586 265.59 214.731 264.986 215.021C264.382 215.312 263.854 215.739 263.444 216.27C263.937 213.409 263.443 210.465 262.044 207.921C261.322 206.671 260.244 205.664 258.947 205.03C257.651 204.396 256.194 204.162 254.764 204.36C253.358 204.751 252.097 205.545 251.136 206.644C250.176 207.742 249.557 209.098 249.358 210.544C249.007 213.45 249.493 216.396 250.758 219.036C249.866 218.718 248.906 218.642 247.976 218.817C247.504 218.954 247.068 219.192 246.696 219.514C246.325 219.836 246.027 220.234 245.824 220.682C245.62 221.129 245.516 221.616 245.518 222.107C245.52 222.599 245.628 223.084 245.835 223.53C245.181 223.526 244.547 223.753 244.044 224.172C243.577 224.612 243.285 225.206 243.222 225.844C243.181 226.484 243.317 227.122 243.614 227.689C243.909 228.254 244.258 228.79 244.656 229.287C252.511 230.161 260.423 230.393 268.315 229.982C272.26 229.764 276.195 229.379 280.129 228.995C284.323 228.581 289.07 228.374 293.274 227.962Z" fill="#386E7A"/>
<g style="mix-blend-mode:multiply">
<path d="M284.775 219.974C285.127 218.886 285.234 217.733 285.088 216.599C285.008 216.033 284.785 215.498 284.441 215.042C284.097 214.586 283.643 214.224 283.121 213.992C282.378 213.799 281.593 213.853 280.883 214.146C280.173 214.438 279.578 214.954 279.188 215.615C278.437 216.957 277.996 218.449 277.898 219.984C276.988 219.614 275.97 219.611 275.058 219.975C274.146 220.339 273.41 221.041 273.005 221.936C272.463 221.181 271.726 220.587 270.874 220.219C270.021 219.85 269.084 219.72 268.163 219.843C267.242 219.965 266.371 220.335 265.645 220.914C264.918 221.492 264.362 222.258 264.036 223.128C264.134 222.134 263.964 221.132 263.544 220.225C263.125 219.319 262.47 218.542 261.648 217.974C260.808 217.433 259.824 217.157 258.824 217.183C257.825 217.208 256.856 217.533 256.044 218.115C255.257 218.732 254.699 219.595 254.458 220.566C254.217 221.536 254.307 222.56 254.714 223.473C253.229 222.82 251.613 222.519 249.993 222.594C249.185 222.652 248.42 222.982 247.822 223.529C247.224 224.076 246.829 224.808 246.699 225.608C246.608 227.314 248.154 228.659 249.705 229.377C252.115 230.359 254.681 230.903 257.283 230.983C264.358 231.521 271.471 231.298 278.499 230.318C281.713 230.021 284.888 229.398 287.975 228.456C288.852 228.099 289.596 227.48 290.108 226.684C290.619 225.888 290.872 224.954 290.833 224.009C290.874 223.274 290.723 222.542 290.394 221.885C290.065 221.227 289.57 220.667 288.958 220.259C288.346 219.851 287.638 219.611 286.904 219.561C286.171 219.511 285.437 219.653 284.775 219.974Z" fill="#386E7A"/>
</g>
<path d="M295.052 238.599H244.276L242.329 225.058H296.998L295.052 238.599Z" fill="#9BAEB3"/>
<path d="M138.944 227.963C139.887 226.549 140.494 224.938 140.718 223.253C140.823 222.41 140.74 221.555 140.477 220.748C140.213 219.941 139.775 219.203 139.193 218.585C138.594 217.986 137.817 217.596 136.978 217.474C136.139 217.352 135.284 217.503 134.538 217.906C134.871 215.919 134.989 213.901 134.891 211.888C134.785 209.86 134.027 207.92 132.729 206.357C132.073 205.588 131.226 205.006 130.273 204.67C129.319 204.335 128.294 204.257 127.301 204.445C126.28 204.767 125.356 205.342 124.616 206.115C123.876 206.889 123.343 207.838 123.067 208.872C122.54 210.946 122.372 213.094 122.568 215.225C122.22 214.572 121.675 214.047 121.01 213.724C120.345 213.4 119.595 213.296 118.867 213.425C118.139 213.554 117.471 213.91 116.958 214.443C116.445 214.975 116.114 215.656 116.011 216.388C115.62 215.844 115.107 215.399 114.513 215.088C113.92 214.777 113.261 214.609 112.591 214.598C111.921 214.586 111.258 214.731 110.654 215.022C110.05 215.312 109.522 215.74 109.112 216.27C109.605 213.409 109.111 210.465 107.712 207.921C106.99 206.671 105.912 205.665 104.615 205.03C103.319 204.396 101.862 204.163 100.432 204.36C99.0266 204.752 97.7662 205.547 96.8057 206.645C95.8453 207.744 95.2267 209.099 95.0258 210.545C94.6762 213.451 95.1617 216.396 96.4256 219.037C95.5343 218.718 94.5744 218.642 93.6442 218.817C93.1721 218.954 92.7353 219.192 92.3636 219.514C91.992 219.836 91.6944 220.234 91.4911 220.682C91.2879 221.13 91.1839 221.616 91.1862 222.108C91.1885 222.599 91.2972 223.085 91.5046 223.53C90.8503 223.526 90.2155 223.754 89.7125 224.172C89.2454 224.612 88.9531 225.206 88.8895 225.845C88.8492 226.484 88.9849 227.122 89.2819 227.69C89.5769 228.255 89.9261 228.79 90.3243 229.288C98.1786 230.161 106.091 230.394 113.983 229.983C117.93 229.765 121.865 229.379 125.798 228.995C129.993 228.581 134.741 228.375 138.944 227.963Z" fill="#386E7A"/>
<g style="mix-blend-mode:multiply">
<path d="M130.445 219.974C130.798 218.886 130.905 217.734 130.758 216.599C130.678 216.034 130.455 215.498 130.111 215.042C129.767 214.586 129.313 214.225 128.791 213.993C128.048 213.8 127.262 213.853 126.553 214.146C125.843 214.439 125.248 214.954 124.858 215.615C124.108 216.958 123.667 218.45 123.567 219.984C122.658 219.615 121.64 219.612 120.728 219.976C119.816 220.339 119.08 221.042 118.675 221.936C118.133 221.181 117.396 220.588 116.543 220.219C115.691 219.851 114.754 219.721 113.833 219.843C112.912 219.965 112.041 220.336 111.314 220.914C110.588 221.493 110.031 222.258 109.706 223.128C109.804 222.134 109.635 221.132 109.215 220.226C108.796 219.32 108.141 218.542 107.32 217.974C106.479 217.433 105.495 217.157 104.495 217.182C103.496 217.208 102.527 217.533 101.714 218.116C100.927 218.733 100.369 219.595 100.128 220.566C99.8869 221.537 99.977 222.56 100.384 223.474C98.8992 222.82 97.2831 222.519 95.6625 222.594C94.8544 222.653 94.0897 222.982 93.492 223.529C92.8944 224.076 92.4987 224.809 92.3691 225.608C92.2777 227.314 93.8255 228.659 95.3749 229.377C97.7851 230.359 100.351 230.903 102.953 230.983C110.028 231.521 117.141 231.298 124.169 230.318C127.383 230.022 130.558 229.398 133.645 228.456C134.522 228.099 135.266 227.481 135.778 226.685C136.289 225.889 136.542 224.954 136.503 224.009C136.544 223.275 136.393 222.543 136.064 221.885C135.735 221.228 135.24 220.667 134.628 220.26C134.016 219.852 133.308 219.611 132.574 219.561C131.841 219.511 131.107 219.654 130.445 219.974Z" fill="#386E7A"/>
</g>
<path d="M140.723 238.599H89.9468L88 225.058H142.669L140.723 238.599Z" fill="#9BAEB2"/>
<path d="M338.932 11.2256C339.378 11.2256 339.805 11.0485 340.121 10.7332C340.436 10.4179 340.613 9.99029 340.613 9.54441V5.0977C340.613 4.65182 340.436 4.2242 340.121 3.90892C339.805 3.59363 339.378 3.4165 338.932 3.4165C338.486 3.4165 338.058 3.59363 337.743 3.90892C337.428 4.2242 337.251 4.65182 337.251 5.0977V9.53446C337.249 9.75608 337.292 9.97577 337.376 10.1809C337.46 10.386 337.583 10.5725 337.74 10.7297C337.896 10.8868 338.082 11.0116 338.286 11.0967C338.491 11.1818 338.71 11.2256 338.932 11.2256Z" fill="#E2B12B"/>
<path d="M346.445 10.8296H341.996C341.551 10.8296 341.123 11.0067 340.808 11.322C340.492 11.6373 340.315 12.0649 340.315 12.5108C340.315 12.9567 340.492 13.3843 340.808 13.6996C341.123 14.0149 341.551 14.192 341.996 14.192H346.445C346.891 14.192 347.319 14.0149 347.634 13.6996C347.949 13.3843 348.126 12.9567 348.126 12.5108C348.126 12.0649 347.949 11.6373 347.634 11.322C347.319 11.0067 346.891 10.8296 346.445 10.8296Z" fill="#E2B12B"/>
<path d="M339.032 13.8955C338.812 13.8952 338.593 13.9385 338.389 14.0228C338.185 14.107 338 14.2307 337.844 14.3866C337.687 14.5426 337.564 14.7278 337.479 14.9316C337.395 15.1355 337.351 15.354 337.351 15.5747V20.0234C337.351 20.469 337.528 20.8964 337.843 21.2115C338.158 21.5266 338.586 21.7036 339.031 21.7036C339.477 21.7036 339.904 21.5266 340.219 21.2115C340.534 20.8964 340.711 20.469 340.711 20.0234V15.5747C340.711 15.1293 340.535 14.7022 340.22 14.3873C339.905 14.0724 339.478 13.8955 339.032 13.8955Z" fill="#E2B12B"/>
<path d="M335.968 10.9273H331.52C331.294 10.9195 331.069 10.9572 330.859 11.0382C330.648 11.1191 330.456 11.2416 330.294 11.3984C330.131 11.5552 330.002 11.7431 329.914 11.9508C329.826 12.1585 329.781 12.3818 329.781 12.6075C329.781 12.8331 329.826 13.0564 329.914 13.2642C330.002 13.4719 330.131 13.6597 330.294 13.8165C330.456 13.9733 330.648 14.0958 330.859 14.1768C331.069 14.2577 331.294 14.2954 331.52 14.2877H335.968C336.404 14.2727 336.817 14.0891 337.119 13.7756C337.422 13.4622 337.592 13.0433 337.592 12.6075C337.592 12.1716 337.422 11.7528 337.119 11.4393C336.817 11.1258 336.404 10.9423 335.968 10.9273Z" fill="#E2B12B"/>
<path d="M337.196 173.819C337.417 173.819 337.635 173.776 337.839 173.691C338.043 173.607 338.228 173.483 338.384 173.327C338.54 173.171 338.664 172.985 338.748 172.781C338.832 172.577 338.876 172.359 338.875 172.138V167.689C338.875 167.244 338.698 166.816 338.383 166.501C338.068 166.186 337.641 166.009 337.195 166.009C336.749 166.009 336.322 166.186 336.007 166.501C335.692 166.816 335.515 167.244 335.515 167.689V172.138C335.515 172.584 335.692 173.012 336.007 173.327C336.323 173.642 336.75 173.819 337.196 173.819Z" fill="#E2B12B"/>
<path d="M344.716 173.423H340.267C339.821 173.423 339.394 173.6 339.079 173.915C338.764 174.231 338.587 174.658 338.587 175.104C338.587 175.549 338.764 175.977 339.079 176.292C339.394 176.607 339.821 176.784 340.267 176.784H344.716C345.161 176.784 345.589 176.607 345.904 176.292C346.219 175.977 346.396 175.549 346.396 175.104C346.396 174.658 346.219 174.231 345.904 173.915C345.589 173.6 345.161 173.423 344.716 173.423Z" fill="#E2B12B"/>
<path d="M337.301 176.487C337.08 176.487 336.862 176.531 336.658 176.615C336.454 176.7 336.269 176.824 336.113 176.98C335.957 177.136 335.833 177.321 335.749 177.525C335.665 177.729 335.622 177.948 335.622 178.169V182.615C335.622 183.061 335.799 183.488 336.114 183.803C336.429 184.118 336.856 184.295 337.302 184.295C337.748 184.295 338.175 184.118 338.49 183.803C338.805 183.488 338.982 183.061 338.982 182.615V178.169C338.982 177.723 338.805 177.295 338.49 176.98C338.175 176.664 337.747 176.487 337.301 176.487Z" fill="#E2B12B"/>
<path d="M334.237 173.523H329.788C329.343 173.523 328.915 173.7 328.6 174.015C328.285 174.33 328.108 174.758 328.108 175.203C328.108 175.649 328.285 176.076 328.6 176.391C328.915 176.706 329.343 176.883 329.788 176.883H334.237C334.683 176.883 335.11 176.706 335.425 176.391C335.74 176.076 335.917 175.649 335.917 175.203C335.917 174.758 335.74 174.33 335.425 174.015C335.11 173.7 334.683 173.523 334.237 173.523Z" fill="#E2B12B"/>
<path d="M52.785 154.68C52.9409 154.836 53.1261 154.959 53.3299 155.044C53.5337 155.128 53.7521 155.172 53.9727 155.172C54.1933 155.172 54.4118 155.128 54.6156 155.044C54.8194 154.959 55.0046 154.836 55.1605 154.68L58.306 151.534C58.621 151.219 58.798 150.792 58.798 150.346C58.798 149.901 58.621 149.474 58.306 149.158C57.991 148.843 57.5638 148.667 57.1183 148.667C56.6728 148.667 56.2455 148.843 55.9305 149.158L52.785 152.304C52.6289 152.46 52.5051 152.645 52.4207 152.849C52.3362 153.053 52.2927 153.271 52.2927 153.492C52.2927 153.712 52.3362 153.931 52.4207 154.135C52.5051 154.338 52.6289 154.524 52.785 154.68Z" fill="#E2B12B"/>
<path d="M58.3758 159.713L55.2303 156.568C54.9142 156.253 54.4859 156.076 54.0397 156.077C53.5934 156.078 53.1657 156.256 52.8507 156.572C52.5357 156.888 52.3591 157.316 52.3599 157.763C52.3606 158.209 52.5386 158.636 52.8547 158.951L56.0002 162.097C56.3152 162.412 56.7425 162.589 57.188 162.589C57.6335 162.589 58.0608 162.412 58.3758 162.097C58.6908 161.782 58.8678 161.355 58.8678 160.909C58.8678 160.464 58.6908 160.036 58.3758 159.721V159.713Z" fill="#E2B12B"/>
<path d="M50.9667 156.637C50.8107 156.481 50.6255 156.357 50.4217 156.273C50.2179 156.188 49.9995 156.145 49.7789 156.145C49.5583 156.145 49.3399 156.188 49.136 156.273C48.9322 156.357 48.7471 156.481 48.5911 156.637L45.4456 159.783C45.1306 160.098 44.9536 160.525 44.9536 160.971C44.9536 161.416 45.1306 161.843 45.4456 162.158C45.7606 162.473 46.1878 162.65 46.6334 162.65C47.0789 162.65 47.5061 162.473 47.8212 162.158L50.9667 159.013C51.1227 158.857 51.2465 158.672 51.331 158.468C51.4154 158.264 51.4589 158.046 51.4589 157.825C51.4589 157.604 51.4154 157.386 51.331 157.182C51.2465 156.978 51.1227 156.793 50.9667 156.637Z" fill="#E2B12B"/>
<path d="M50.8951 152.374L47.7496 149.228C47.5936 149.072 47.4085 148.949 47.2047 148.864C47.0009 148.78 46.7825 148.736 46.5619 148.736C46.3413 148.736 46.1229 148.78 45.9191 148.864C45.7153 148.949 45.5301 149.072 45.3741 149.228C45.2181 149.384 45.0944 149.569 45.01 149.773C44.9255 149.977 44.8821 150.196 44.8821 150.416C44.8821 150.637 44.9255 150.855 45.01 151.059C45.0944 151.263 45.2181 151.448 45.3741 151.604L48.5196 154.749C48.6756 154.905 48.8608 155.029 49.0646 155.114C49.2684 155.198 49.4868 155.241 49.7074 155.241C49.928 155.241 50.1464 155.198 50.3502 155.114C50.554 155.029 50.7392 154.905 50.8951 154.749C51.0511 154.593 51.1749 154.408 51.2593 154.204C51.3437 154.001 51.3871 153.782 51.3871 153.562C51.3871 153.341 51.3437 153.123 51.2593 152.919C51.1749 152.715 51.0511 152.53 50.8951 152.374Z" fill="#E2B12B"/>
<path d="M88.762 5.36986C88.9124 5.36987 89.0613 5.34022 89.2002 5.2826C89.3391 5.22498 89.4654 5.14053 89.5716 5.03408C89.6779 4.92764 89.7621 4.8013 89.8195 4.66227C89.8768 4.52324 89.9063 4.37428 89.906 4.22388V1.19374C89.9124 1.03936 89.8875 0.885278 89.8329 0.740749C89.7782 0.596219 89.695 0.464231 89.588 0.352721C89.4811 0.241211 89.3527 0.152479 89.2105 0.091865C89.0684 0.0312513 88.9155 0 88.761 0C88.6065 0 88.4535 0.0312513 88.3114 0.091865C88.1693 0.152479 88.0409 0.241211 87.9339 0.352721C87.8269 0.464231 87.7437 0.596219 87.689 0.740749C87.6344 0.885278 87.6095 1.03936 87.616 1.19374V4.22388C87.616 4.52781 87.7367 4.81929 87.9516 5.03421C88.1665 5.24912 88.458 5.36986 88.762 5.36986Z" fill="#E2B12B"/>
<path d="M93.8706 5.10107H90.8385C90.5431 5.11339 90.2639 5.23941 90.0592 5.45279C89.8545 5.66618 89.7402 5.95041 89.7402 6.24608C89.7402 6.54175 89.8545 6.82598 90.0592 7.03936C90.2639 7.25274 90.5431 7.37876 90.8385 7.39108H93.8706C94.166 7.37876 94.4452 7.25274 94.6499 7.03936C94.8545 6.82598 94.9688 6.54175 94.9688 6.24608C94.9688 5.95041 94.8545 5.66618 94.6499 5.45279C94.4452 5.23941 94.166 5.11339 93.8706 5.10107Z" fill="#E2B12B"/>
<path d="M88.8293 7.18848C88.6788 7.18848 88.5298 7.21812 88.3908 7.27571C88.2517 7.3333 88.1254 7.41772 88.019 7.52414C87.9126 7.63055 87.8281 7.75688 87.7706 7.89592C87.713 8.03496 87.6834 8.18397 87.6834 8.33447V11.3646C87.6769 11.519 87.7018 11.6731 87.7564 11.8176C87.8111 11.9621 87.8943 12.0941 88.0013 12.2056C88.1082 12.3171 88.2367 12.4059 88.3788 12.4665C88.5209 12.5271 88.6739 12.5583 88.8284 12.5583C88.9829 12.5583 89.1358 12.5271 89.2779 12.4665C89.42 12.4059 89.5484 12.3171 89.6554 12.2056C89.7624 12.0941 89.8457 11.9621 89.9003 11.8176C89.955 11.6731 89.9798 11.519 89.9734 11.3646V8.34045C89.9742 8.18962 89.9451 8.0401 89.888 7.90051C89.8309 7.76091 89.7468 7.63397 89.6405 7.52694C89.5342 7.41992 89.4079 7.33493 89.2687 7.27685C89.1295 7.21877 88.9802 7.18874 88.8293 7.18848Z" fill="#E2B12B"/>
<path d="M86.7394 5.16699H83.7073C83.4033 5.16699 83.1118 5.28772 82.8969 5.50264C82.682 5.71755 82.5613 6.00904 82.5613 6.31298C82.5613 6.61692 82.682 6.90841 82.8969 7.12333C83.1118 7.33824 83.4033 7.45899 83.7073 7.45899H86.7394C87.0433 7.45899 87.3348 7.33824 87.5497 7.12333C87.7647 6.90841 87.8854 6.61692 87.8854 6.31298C87.8854 6.00904 87.7647 5.71755 87.5497 5.50264C87.3348 5.28772 87.0433 5.16699 86.7394 5.16699Z" fill="#E2B12B"/>
<path d="M41.8731 212.682C42.0234 212.682 42.1722 212.652 42.3112 212.595C42.4501 212.538 42.5763 212.453 42.6826 212.347C42.7888 212.241 42.8731 212.115 42.9305 211.976C42.9879 211.837 43.0173 211.688 43.0171 211.538V208.505C43.0047 208.21 42.8787 207.931 42.6653 207.726C42.4519 207.522 42.1677 207.407 41.8721 207.407C41.5764 207.407 41.2922 207.522 41.0788 207.726C40.8654 207.931 40.7394 208.21 40.7271 208.505V211.538C40.7271 211.688 40.7567 211.837 40.8144 211.976C40.872 212.115 40.9564 212.241 41.0628 212.347C41.1693 212.453 41.2956 212.538 41.4346 212.595C41.5737 212.652 41.7227 212.682 41.8731 212.682Z" fill="#E2B12B"/>
<path d="M46.9925 212.413H43.9603C43.6649 212.425 43.3857 212.551 43.181 212.765C42.9763 212.978 42.8621 213.262 42.8621 213.558C42.8621 213.854 42.9763 214.138 43.181 214.351C43.3857 214.565 43.6649 214.691 43.9603 214.703H46.9925C47.2879 214.691 47.5671 214.565 47.7718 214.351C47.9764 214.138 48.0907 213.854 48.0907 213.558C48.0907 213.262 47.9764 212.978 47.7718 212.765C47.5671 212.551 47.2879 212.425 46.9925 212.413Z" fill="#E2B12B"/>
<path d="M41.9416 214.502C41.6382 214.502 41.3472 214.623 41.1326 214.838C40.9181 215.052 40.7976 215.343 40.7976 215.646V218.679C40.8099 218.974 40.936 219.253 41.1493 219.458C41.3627 219.663 41.6469 219.777 41.9426 219.777C42.2383 219.777 42.5225 219.663 42.7359 219.458C42.9493 219.253 43.0753 218.974 43.0876 218.679V215.654C43.0887 215.503 43.0598 215.354 43.0026 215.214C42.9455 215.074 42.8612 214.947 42.7546 214.84C42.6481 214.733 42.5214 214.648 42.3818 214.59C42.2423 214.532 42.0927 214.502 41.9416 214.502Z" fill="#E2B12B"/>
<path d="M39.8518 212.471H36.8197C36.5243 212.483 36.2451 212.609 36.0404 212.822C35.8357 213.036 35.7214 213.32 35.7214 213.616C35.7214 213.911 35.8357 214.196 36.0404 214.409C36.2451 214.622 36.5243 214.748 36.8197 214.761H39.8518C40.1472 214.748 40.4264 214.622 40.6311 214.409C40.8358 214.196 40.95 213.911 40.95 213.616C40.95 213.32 40.8358 213.036 40.6311 212.822C40.4264 212.609 40.1472 212.483 39.8518 212.471Z" fill="#E2B12B"/>
<path d="M337.919 105.316C338.026 105.21 338.11 105.084 338.168 104.945C338.226 104.806 338.255 104.657 338.255 104.507C338.255 104.356 338.226 104.207 338.168 104.068C338.11 103.929 338.026 103.803 337.919 103.697L335.777 101.554C335.672 101.441 335.545 101.35 335.405 101.287C335.264 101.224 335.112 101.19 334.958 101.187C334.804 101.184 334.651 101.212 334.508 101.27C334.365 101.328 334.235 101.414 334.126 101.523C334.017 101.632 333.931 101.762 333.873 101.905C333.815 102.048 333.787 102.201 333.79 102.355C333.793 102.509 333.827 102.661 333.89 102.802C333.953 102.942 334.044 103.069 334.157 103.174L336.3 105.316C336.406 105.423 336.532 105.507 336.671 105.565C336.81 105.623 336.959 105.652 337.11 105.652C337.26 105.652 337.409 105.623 337.548 105.565C337.687 105.507 337.813 105.423 337.919 105.316Z" fill="#E2B12B"/>
<path d="M341.349 101.506L339.204 103.641C339.003 103.859 338.894 104.146 338.899 104.442C338.905 104.738 339.025 105.021 339.235 105.23C339.444 105.44 339.727 105.56 340.023 105.566C340.32 105.572 340.607 105.462 340.824 105.261L342.969 103.118C343.17 102.9 343.28 102.613 343.274 102.317C343.268 102.021 343.148 101.738 342.939 101.529C342.729 101.319 342.446 101.199 342.15 101.193C341.854 101.187 341.567 101.297 341.349 101.498V101.506Z" fill="#E2B12B"/>
<path d="M339.252 106.556C339.038 106.771 338.918 107.062 338.918 107.366C338.918 107.669 339.038 107.961 339.252 108.176L341.397 110.318C341.502 110.431 341.628 110.522 341.769 110.585C341.91 110.648 342.062 110.682 342.216 110.685C342.37 110.688 342.523 110.66 342.666 110.602C342.809 110.545 342.939 110.459 343.048 110.35C343.157 110.241 343.243 110.111 343.301 109.968C343.358 109.825 343.386 109.672 343.384 109.518C343.381 109.364 343.347 109.212 343.284 109.071C343.221 108.93 343.13 108.804 343.017 108.699L340.872 106.556C340.766 106.45 340.64 106.365 340.501 106.308C340.362 106.25 340.213 106.22 340.062 106.22C339.912 106.22 339.763 106.25 339.624 106.308C339.485 106.365 339.359 106.45 339.252 106.556Z" fill="#E2B12B"/>
<path d="M336.348 106.603L334.205 108.746C334.003 108.964 333.894 109.251 333.9 109.547C333.905 109.843 334.025 110.126 334.235 110.335C334.445 110.545 334.727 110.665 335.024 110.671C335.32 110.677 335.607 110.567 335.824 110.366L337.967 108.223C338.08 108.118 338.171 107.992 338.234 107.851C338.297 107.71 338.331 107.558 338.334 107.404C338.337 107.25 338.309 107.097 338.251 106.954C338.193 106.811 338.108 106.681 337.999 106.572C337.89 106.463 337.76 106.377 337.617 106.319C337.474 106.262 337.321 106.234 337.166 106.237C337.012 106.239 336.86 106.273 336.72 106.336C336.579 106.399 336.452 106.49 336.348 106.603Z" fill="#E2B12B"/>
<defs>
<clipPath id="clip0_220_21506">
<rect width="5.06341" height="11.9177" fill="white" transform="translate(186.398 29.3735)"/>
</clipPath>
</defs>
</svg>
