<svg width="342" height="232" viewBox="0 0 342 232" fill="none" xmlns="http://www.w3.org/2000/svg">
<path d="M315.227 189.964C315.227 189.964 339.053 169.178 320.586 141.613C302.119 114.048 271.514 143.258 240.578 99.6846C209.641 56.1109 174.743 45.4804 148.495 60.295C122.246 75.1096 132.182 104.573 110.511 116.88C88.8394 129.187 41.5746 127.621 52.1024 173.101C62.6303 218.581 267.655 237.809 315.227 189.964Z" fill="#3C8A9D"/>
<path d="M118.292 209.548C118.292 209.548 149.828 204.384 137.643 173.323C125.458 142.262 137.099 123.659 114.82 117.022C99.596 112.482 89.9126 130.595 61.6595 127.337C33.4064 124.078 11.7351 128.46 5.50838 160.462C-0.718358 192.464 51.0133 239.929 118.292 209.548Z" fill="#3C8A9D"/>
<path d="M176.534 227.495C267.555 227.495 341.342 223.125 341.342 217.735C341.342 212.344 267.555 207.974 176.534 207.974C85.5138 207.974 11.7271 212.344 11.7271 217.735C11.7271 223.125 85.5138 227.495 176.534 227.495Z" fill="#024B5C"/>
<path d="M37.084 197.336C37.084 197.336 35.8844 92.7404 39.4832 84.2298C42.7346 76.5338 142.757 77.9258 173.52 82.6399C175.127 82.8834 176.594 83.6965 177.654 84.9316C178.714 86.1667 179.297 87.7418 179.297 89.371V197.336H37.084Z" fill="#025366"/>
<path d="M105.823 86.0723H61.0123C58.9884 86.0652 57.0494 85.2563 55.6183 83.8219C54.1871 82.3876 53.38 80.4443 53.3729 78.4158V73.2351C53.38 71.2066 54.1871 69.2633 55.6183 67.829C57.0494 66.3946 58.9884 65.5857 61.0123 65.5786H105.823C107.847 65.5842 109.787 66.3927 111.218 67.8274C112.65 69.262 113.457 71.2062 113.462 73.2351V78.4158C113.457 80.4447 112.65 82.3889 111.218 83.8235C109.787 85.2582 107.847 86.0666 105.823 86.0723Z" fill="#025366"/>
<g opacity="0.07">
<path d="M179.289 95.6665L100.117 175.015L113.462 195.833H179.289V95.6665Z" fill="#CADFE4" fill-opacity="0.9"/>
</g>
<path d="M36.8867 177.135C38.9352 177.135 40.5959 174.462 40.5959 171.164C40.5959 167.866 38.9352 165.192 36.8867 165.192C34.8382 165.192 33.1775 167.866 33.1775 171.164C33.1775 174.462 34.8382 177.135 36.8867 177.135Z" fill="#BF0411"/>
<path d="M215.402 106.012C215.402 108.614 214.613 110.734 213.642 110.734C212.672 110.734 211.882 108.622 211.882 106.012C211.882 103.402 212.672 101.29 213.642 101.29C214.613 101.29 215.402 103.41 215.402 106.012Z" fill="#75AFBD"/>
<path d="M310.098 174.818C310.098 177.42 309.308 179.54 308.338 179.54C307.367 179.54 306.578 177.428 306.578 174.818C306.578 172.208 307.367 170.096 308.338 170.096C309.308 170.096 310.098 172.215 310.098 174.818Z" fill="#75AFBD"/>
<path d="M207.542 98.894L187.875 109.39H213.169L207.542 98.894Z" fill="#292E44"/>
<path d="M209.973 113.487C208.885 113.484 207.843 113.049 207.074 112.279C206.305 111.508 205.872 110.464 205.869 109.374V102.192C205.872 101.102 206.305 100.058 207.074 99.2872C207.843 98.5166 208.885 98.0822 209.973 98.0791C211.06 98.0822 212.102 98.5166 212.871 99.2872C213.64 100.058 214.073 101.102 214.077 102.192V109.374C214.073 110.464 213.64 111.508 212.871 112.279C212.102 113.049 211.06 113.484 209.973 113.487Z" fill="#292E44"/>
<path d="M179.289 197.336V109.39H230.326C232.181 109.39 234.007 109.854 235.637 110.741C237.268 111.628 238.651 112.909 239.662 114.468L264.908 153.359L300.738 161.071C301.736 161.07 302.724 161.267 303.646 161.65C304.569 162.033 305.406 162.594 306.112 163.301C306.818 164.009 307.378 164.848 307.76 165.772C308.142 166.697 308.338 167.687 308.338 168.688V197.328H179.289V197.336Z" fill="#75AFBD"/>
<path d="M50.3345 203.458H40.1855C38.1714 203.453 36.2412 202.649 34.8171 201.222C33.3929 199.794 32.5906 197.86 32.5856 195.841V190.684C32.5906 188.666 33.3929 186.731 34.8171 185.304C36.2412 183.877 38.1714 183.072 40.1855 183.067H50.3345C52.3486 183.072 54.2788 183.877 55.703 185.304C57.1272 186.731 57.9295 188.666 57.9345 190.684V195.841C57.9282 197.86 57.1255 199.793 55.7016 201.22C54.2777 202.647 52.3482 203.452 50.3345 203.458Z" fill="#292E44"/>
<path d="M311.85 203.458H301.701C299.687 203.453 297.756 202.649 296.332 201.222C294.908 199.794 294.106 197.86 294.101 195.841V190.684C294.106 188.666 294.908 186.731 296.332 185.304C297.756 183.877 299.687 183.072 301.701 183.067H311.85C313.864 183.072 315.794 183.877 317.218 185.304C318.642 186.731 319.445 188.666 319.45 190.684V195.841C319.445 197.86 318.642 199.794 317.218 201.222C315.794 202.649 313.864 203.453 311.85 203.458Z" fill="#292E44"/>
<path d="M298.536 201.149H56.3087C55.5309 201.146 54.7856 200.836 54.2356 200.284C53.6855 199.733 53.3754 198.986 53.3729 198.207V196.213C53.3754 195.434 53.6855 194.687 54.2356 194.136C54.7856 193.584 55.5309 193.273 56.3087 193.271H298.536C299.314 193.273 300.059 193.584 300.609 194.136C301.159 194.687 301.469 195.434 301.472 196.213V198.207C301.47 198.987 301.161 199.734 300.61 200.286C300.06 200.837 299.314 201.148 298.536 201.149Z" fill="#292E44"/>
<path d="M286.423 203.456C289.813 190.352 281.962 176.974 268.887 173.576C255.812 170.178 242.464 178.047 239.074 191.151C235.683 204.255 243.534 217.633 256.609 221.031C269.684 224.429 283.032 216.56 286.423 203.456Z" fill="#292E44"/>
<path d="M108.658 214.668C118.209 205.095 118.209 189.575 108.658 180.003C99.107 170.431 83.6216 170.431 74.0705 180.003C64.5194 189.575 64.5194 205.095 74.0705 214.668C83.6216 224.24 99.107 224.24 108.658 214.668Z" fill="#292E44"/>
<path d="M91.3647 211.597C99.2232 211.597 105.594 205.212 105.594 197.336C105.594 189.46 99.2232 183.075 91.3647 183.075C83.5061 183.075 77.1355 189.46 77.1355 197.336C77.1355 205.212 83.5061 211.597 91.3647 211.597Z" fill="#D8D9DD"/>
<path d="M262.754 211.597C270.612 211.597 276.983 205.212 276.983 197.336C276.983 189.46 270.612 183.075 262.754 183.075C254.895 183.075 248.525 189.46 248.525 197.336C248.525 205.212 254.895 211.597 262.754 211.597Z" fill="#D8D9DD"/>
<path d="M188.917 120.028V146.636C188.917 147.153 189.019 147.664 189.217 148.142C189.416 148.619 189.706 149.052 190.072 149.416C190.439 149.779 190.873 150.067 191.35 150.262C191.828 150.457 192.339 150.555 192.855 150.551L245.802 150.156C246.463 150.152 247.113 149.979 247.689 149.655C248.266 149.33 248.751 148.865 249.099 148.301C249.446 147.737 249.646 147.094 249.678 146.432C249.71 145.77 249.574 145.111 249.282 144.516L236.679 118.707C236.36 118.055 235.866 117.504 235.253 117.115C234.64 116.727 233.932 116.517 233.206 116.509L192.871 116.105C192.354 116.101 191.841 116.199 191.362 116.394C190.883 116.59 190.447 116.878 190.08 117.242C189.712 117.607 189.42 118.041 189.221 118.519C189.021 118.997 188.918 119.51 188.917 120.028Z" fill="#1E6778"/>
<path d="M241.288 161.047H239.583C238.914 161.045 238.273 160.778 237.799 160.303C237.326 159.829 237.059 159.186 237.058 158.516V142.254C237.059 141.583 237.326 140.94 237.799 140.466C238.273 139.992 238.914 139.725 239.583 139.723H241.288C241.957 139.725 242.598 139.992 243.071 140.466C243.545 140.94 243.811 141.583 243.813 142.254V158.516C243.811 159.186 243.545 159.829 243.071 160.303C242.598 160.778 241.957 161.045 241.288 161.047Z" fill="#292E44"/>
<path d="M189.106 120.028H188.735V193.27H189.106V120.028Z" fill="#75AFBD"/>
<path d="M249.874 145.869H249.503V176.257H249.874V145.869Z" fill="#75AFBD"/>
<path d="M204.677 159.465H194.386C193.993 159.464 193.616 159.308 193.338 159.029C193.06 158.75 192.903 158.372 192.902 157.978V156.974C192.903 156.58 193.06 156.202 193.338 155.923C193.616 155.645 193.993 155.488 194.386 155.487H204.677C205.07 155.488 205.447 155.645 205.725 155.923C206.004 156.202 206.16 156.58 206.161 156.974V157.978C206.159 158.372 206.002 158.749 205.724 159.027C205.446 159.306 205.07 159.463 204.677 159.465Z" fill="#292E44"/>
<path d="M134.234 124H55.7664C55.0335 123.998 54.3312 123.735 53.8129 123.268C53.2946 122.801 53.0024 122.169 53 121.508V96.4916C53.0024 95.8314 53.2946 95.199 53.8129 94.7322C54.3312 94.2654 55.0335 94.0022 55.7664 94H134.234C134.967 94.0022 135.669 94.2654 136.187 94.7322C136.705 95.199 136.998 95.8314 137 96.4916V121.508C136.996 122.168 136.703 122.8 136.185 123.266C135.667 123.732 134.966 123.996 134.234 124Z" fill="white" fill-opacity="0.9"/>
<path d="M82.7324 116.886H83.1464L83.2445 116.919V117.257L83.1464 117.289H81V116.875H82.2639V116.418C82.2639 116.167 82.2094 115.982 82.1113 115.862C82.0133 115.742 81.8498 115.688 81.6319 115.688H81.1634V115.295H81.621C81.9915 115.295 82.2748 115.383 82.46 115.568C82.6452 115.753 82.7324 116.025 82.7324 116.407V116.886Z" fill="#E2B12B"/>
<path d="M83.0811 117.3L83.092 116.886H85.1185V116.952C85.0858 116.919 85.0531 116.875 85.0204 116.821C84.9878 116.755 84.9442 116.668 84.8897 116.548L84.759 116.254C84.6936 116.102 84.6282 115.982 84.5737 115.906C84.5193 115.829 84.4539 115.775 84.3885 115.753C84.3231 115.72 84.236 115.709 84.127 115.709H83.5822V115.295H84.127C84.3231 115.295 84.4757 115.317 84.5955 115.361C84.7154 115.404 84.8243 115.481 84.9115 115.59C84.9987 115.699 85.0858 115.862 85.173 116.069L85.2928 116.374C85.3473 116.505 85.4018 116.614 85.4454 116.679C85.4889 116.755 85.5434 116.799 85.5761 116.832C85.6197 116.864 85.7069 116.875 85.8485 116.875L85.6851 117.3H85.5543H83.0811ZM84.0399 118.041C83.9854 117.987 83.9636 117.921 83.9636 117.856C83.9636 117.78 83.9854 117.714 84.0399 117.66C84.0943 117.605 84.1597 117.583 84.236 117.583C84.3122 117.583 84.3776 117.605 84.4321 117.66C84.4866 117.714 84.5084 117.78 84.5084 117.856C84.5084 117.932 84.4866 117.997 84.4321 118.041C84.3776 118.096 84.3122 118.117 84.236 118.117C84.1488 118.117 84.0834 118.096 84.0399 118.041Z" fill="#E2B12B"/>
<path d="M86.5022 117.06C86.3496 116.897 86.2733 116.657 86.2733 116.352L86.2625 115.077V114.304H86.7527V115.077L86.7419 116.352C86.7419 116.548 86.7854 116.69 86.8617 116.777C86.938 116.864 87.0687 116.908 87.2321 116.908H87.2539L87.352 116.94V117.278L87.2539 117.311H87.1668C86.8726 117.3 86.6547 117.213 86.5022 117.06Z" fill="#E2B12B"/>
<path d="M87.7007 116.559L87.9186 115.513L88.8883 115.502C89.1062 115.502 89.2805 115.556 89.4222 115.676C89.5638 115.785 89.6619 115.927 89.7054 116.079C89.7599 116.232 89.7599 116.406 89.7163 116.581C89.6728 116.755 89.5965 116.897 89.4875 117.016C89.3786 117.136 89.2369 117.213 89.0626 117.256C88.8992 117.3 88.7249 117.3 88.5287 117.256C88.2564 117.191 88.0711 117.082 87.9731 116.897L87.8859 117.006C87.8314 117.071 87.7661 117.125 87.7007 117.169C87.6026 117.234 87.5046 117.267 87.4065 117.289H87.2431L87.145 117.256V116.918L87.2431 116.886C87.2867 116.886 87.3302 116.886 87.3738 116.875C87.4719 116.864 87.559 116.82 87.6135 116.755C87.6462 116.733 87.668 116.657 87.7007 116.559ZM88.2346 115.97L88.2019 116.112C88.1583 116.297 88.1801 116.461 88.2455 116.57C88.3217 116.69 88.4525 116.766 88.6377 116.809C88.7575 116.831 88.8556 116.842 88.9537 116.82C89.0517 116.799 89.128 116.766 89.1934 116.711C89.2587 116.657 89.2914 116.581 89.3132 116.493C89.3459 116.352 89.3132 116.232 89.226 116.134C89.1389 116.036 88.9972 115.981 88.7902 115.981L88.2346 115.97Z" fill="#E2B12B"/>
<path d="M92.8216 117.3C92.778 117.551 92.68 117.747 92.5274 117.899C92.3095 118.117 91.9827 118.215 91.536 118.215H91.0239V117.79H91.5468C91.7974 117.79 91.9827 117.747 92.1134 117.66C92.2442 117.572 92.3204 117.453 92.3531 117.3H92.0589C91.7103 117.3 91.4488 117.213 91.2636 117.049C91.0892 116.886 91.0021 116.635 91.0021 116.298C91.0021 116.112 91.0457 115.938 91.1219 115.786C91.1982 115.633 91.3071 115.513 91.4488 115.437C91.5904 115.35 91.7539 115.306 91.9282 115.306C92.1134 115.306 92.2659 115.35 92.4076 115.437C92.5492 115.524 92.6582 115.644 92.7345 115.807C92.8107 115.971 92.8543 116.156 92.8543 116.363V116.897H93.2574L93.3555 116.93V117.267L93.2574 117.3H92.8216ZM92.3858 116.886V116.352C92.3858 116.145 92.3422 115.982 92.2659 115.873C92.1897 115.764 92.0698 115.709 91.9282 115.709C91.841 115.709 91.7648 115.731 91.6885 115.786C91.6231 115.829 91.5686 115.905 91.5251 115.993C91.4815 116.08 91.4706 116.178 91.4706 116.298C91.4706 116.505 91.5142 116.646 91.6122 116.744C91.7103 116.842 91.8519 116.886 92.048 116.886H92.3858Z" fill="#E2B12B"/>
<path d="M93.6279 117.3H93.2356L93.1376 117.268V116.919L93.2356 116.886H93.5625C93.7259 116.886 93.8567 116.843 93.9329 116.755C94.0092 116.668 94.0528 116.538 94.0528 116.341V115.361H94.5431V116.341C94.5322 116.657 94.445 116.886 94.2925 117.05C94.14 117.213 93.922 117.3 93.6279 117.3ZM93.6388 118.041C93.5843 117.987 93.5625 117.921 93.5625 117.856C93.5625 117.78 93.5843 117.714 93.6388 117.66C93.6932 117.605 93.7586 117.584 93.8349 117.584C93.9112 117.584 93.9765 117.605 94.031 117.66C94.0855 117.714 94.1073 117.78 94.1073 117.856C94.1073 117.932 94.0855 117.998 94.031 118.041C93.9765 118.096 93.9112 118.117 93.8349 118.117C93.7586 118.117 93.6932 118.096 93.6388 118.041Z" fill="#E2B12B"/>
<path d="M95.1206 114.304H95.5891V115.099V117.3H95.1206V115.099V114.304Z" fill="#E2B12B"/>
<path d="M99.3152 117.3H99.1954C99.0101 117.3 98.8576 117.256 98.7269 117.18C98.607 117.104 98.5198 117.017 98.4654 116.897C98.3346 117.017 98.1494 117.093 97.9097 117.115C97.877 117.115 97.8334 117.115 97.8007 117.115C97.6482 117.115 97.5066 117.082 97.3649 117.028C97.2233 116.973 97.1034 116.875 97.0054 116.744C96.9073 116.614 96.8528 116.461 96.8311 116.276C96.8311 116.243 96.8311 116.21 96.8311 116.178C96.8311 116.036 96.8637 115.894 96.9291 115.764C96.9945 115.633 97.1034 115.513 97.256 115.426C97.3758 115.361 97.5066 115.317 97.6591 115.317C97.7027 115.317 97.7572 115.317 97.8007 115.328L98.4 115.404V115.197H98.814V116.363C98.814 116.537 98.8576 116.668 98.9339 116.755C99.021 116.842 99.13 116.886 99.2934 116.886H99.3152L99.4133 116.93V117.267L99.3152 117.3ZM97.7681 116.635C97.8007 116.635 97.8334 116.635 97.8661 116.624C98.2257 116.592 98.4 116.407 98.4 116.069C98.4 116.047 98.4 116.014 98.4 115.993V115.851L97.8225 115.775C97.779 115.775 97.7354 115.764 97.6918 115.764C97.5502 115.764 97.4521 115.796 97.3649 115.862C97.2778 115.938 97.2342 116.036 97.2342 116.156V116.2C97.2451 116.287 97.2669 116.363 97.3213 116.428C97.3758 116.494 97.4521 116.537 97.5393 116.57C97.6155 116.624 97.6918 116.635 97.7681 116.635ZM97.4521 115.001C97.3976 114.947 97.3758 114.881 97.3758 114.816C97.3758 114.74 97.3976 114.674 97.4521 114.62C97.5066 114.565 97.5719 114.543 97.6482 114.543C97.7245 114.543 97.7899 114.565 97.8443 114.62C97.8988 114.674 97.9206 114.74 97.9206 114.816C97.9206 114.892 97.8988 114.957 97.8443 115.001C97.7899 115.056 97.7245 115.077 97.6482 115.077C97.5719 115.077 97.5066 115.056 97.4521 115.001ZM98.1167 115.001C98.0622 114.947 98.0404 114.881 98.0404 114.816C98.0404 114.74 98.0622 114.674 98.1167 114.62C98.1712 114.565 98.2366 114.543 98.3128 114.543C98.3891 114.543 98.4545 114.565 98.509 114.62C98.5634 114.674 98.5852 114.74 98.5852 114.816C98.5852 114.892 98.5634 114.957 98.509 115.001C98.4545 115.056 98.3891 115.077 98.3128 115.077C98.2366 115.077 98.1712 115.056 98.1167 115.001Z" fill="#E2B12B"/>
<path d="M99.9471 117.016C99.8926 117.082 99.8272 117.136 99.7618 117.18C99.6638 117.245 99.5657 117.278 99.4677 117.3H99.3042L99.2062 117.267V116.918L99.3042 116.886C99.3478 116.886 99.3914 116.886 99.435 116.875C99.533 116.864 99.6202 116.82 99.6747 116.755C99.7074 116.722 99.7292 116.657 99.7618 116.559L99.9798 115.513L100.949 115.502C101.167 115.502 101.342 115.556 101.483 115.676C101.625 115.785 101.723 115.927 101.767 116.079C101.821 116.232 101.821 116.406 101.778 116.581C101.767 116.613 101.756 116.646 101.756 116.679C101.778 116.711 101.799 116.733 101.821 116.755C101.897 116.842 102.017 116.886 102.181 116.886H102.235L102.333 116.929V117.267L102.235 117.3H102.093C101.919 117.3 101.767 117.267 101.636 117.18C101.581 117.147 101.538 117.114 101.494 117.071C101.396 117.158 101.265 117.223 101.124 117.256C100.96 117.3 100.786 117.3 100.59 117.256C100.318 117.191 100.132 117.082 100.034 116.897L99.9471 117.016ZM100.285 115.97L100.252 116.112C100.209 116.297 100.23 116.461 100.296 116.57C100.372 116.69 100.503 116.766 100.688 116.809C100.808 116.831 100.906 116.842 101.004 116.82C101.102 116.799 101.178 116.766 101.244 116.711C101.309 116.657 101.342 116.581 101.363 116.493C101.396 116.352 101.363 116.232 101.276 116.134C101.189 116.036 101.048 115.981 100.84 115.981L100.285 115.97Z" fill="#E2B12B"/>
<path d="M102.137 117.3L102.148 116.886H104.175V116.952C104.142 116.919 104.109 116.875 104.077 116.821C104.044 116.755 104 116.668 103.946 116.548L103.815 116.254C103.75 116.102 103.684 115.982 103.63 115.906C103.575 115.829 103.51 115.775 103.445 115.753C103.379 115.72 103.292 115.709 103.183 115.709H102.638V115.295H103.183C103.379 115.295 103.532 115.317 103.652 115.361C103.772 115.404 103.88 115.481 103.968 115.59C104.055 115.699 104.142 115.862 104.229 116.069L104.349 116.374C104.403 116.505 104.458 116.614 104.502 116.679C104.545 116.755 104.6 116.799 104.643 116.832C104.687 116.864 104.763 116.875 104.861 116.886H105.035L105.133 116.919V117.267L105.025 117.289H102.137V117.3Z" fill="#E2B12B"/>
<path d="M106.615 116.93V117.267L106.517 117.3H106.397C106.212 117.3 106.06 117.256 105.962 117.18C105.863 117.104 105.776 116.995 105.722 116.864H105.787C105.744 116.995 105.646 117.104 105.515 117.18C105.373 117.256 105.232 117.3 105.068 117.3H105.046L104.948 117.267V116.919L105.046 116.886H105.068C105.221 116.886 105.34 116.842 105.428 116.755C105.504 116.668 105.547 116.537 105.537 116.363V115.077V114.304H106.027V115.077V116.363C106.016 116.537 106.06 116.668 106.136 116.755C106.212 116.842 106.332 116.886 106.495 116.886H106.517L106.615 116.93Z" fill="#E2B12B"/>
<path d="M106.953 116.559L107.171 115.513L108.14 115.502C108.358 115.502 108.533 115.556 108.674 115.676C108.816 115.785 108.914 115.927 108.958 116.079C109.012 116.232 109.012 116.406 108.969 116.581C108.925 116.755 108.849 116.897 108.74 117.016C108.631 117.136 108.489 117.213 108.315 117.256C108.151 117.3 107.977 117.3 107.781 117.256C107.509 117.191 107.323 117.082 107.225 116.897L107.138 117.006C107.084 117.071 107.018 117.125 106.953 117.169C106.855 117.234 106.757 117.267 106.659 117.289H106.495L106.397 117.256V116.918L106.495 116.886C106.539 116.886 106.582 116.886 106.626 116.875C106.724 116.864 106.811 116.82 106.866 116.755C106.888 116.733 106.92 116.657 106.953 116.559ZM107.476 115.97L107.443 116.112C107.4 116.297 107.421 116.461 107.487 116.57C107.563 116.69 107.694 116.766 107.879 116.809C107.999 116.831 108.097 116.842 108.195 116.82C108.293 116.799 108.369 116.766 108.435 116.711C108.5 116.657 108.533 116.581 108.555 116.493C108.587 116.352 108.555 116.232 108.467 116.134C108.38 116.036 108.239 115.981 108.032 115.981L107.476 115.97Z" fill="#E2B12B"/>
<path d="M82.5581 121.386L82.3729 120.819H81.5993L81.4032 121.386H81.0327L81.7954 119.25H82.1658L82.9285 121.386H82.5581ZM81.9915 119.643L81.6864 120.536H82.2748L81.9806 119.643H81.9915Z" fill="#025366"/>
<path d="M85.5433 121.396H84.6935V119.261H85.5433C85.7285 119.261 85.8811 119.315 86.0009 119.413C86.1208 119.511 86.1753 119.642 86.1753 119.806C86.1753 119.925 86.1426 120.023 86.0663 120.111C85.99 120.198 85.9029 120.252 85.8048 120.274V120.263C85.9465 120.285 86.0554 120.339 86.1426 120.437C86.2297 120.536 86.2733 120.655 86.2733 120.797C86.2733 120.982 86.2079 121.135 86.0772 121.244C85.9465 121.342 85.7721 121.396 85.5433 121.396ZM85.0421 119.555V120.154H85.3908C85.6632 120.154 85.8048 120.045 85.8157 119.838C85.8157 119.653 85.6959 119.555 85.4671 119.555H85.0421ZM85.0421 121.091H85.478C85.7612 121.091 85.9138 120.982 85.9138 120.753C85.9138 120.536 85.7612 120.427 85.4671 120.427H85.053V121.091H85.0421Z" fill="#025366"/>
<path d="M88.9971 119.228C89.2041 119.228 89.3784 119.272 89.5201 119.359C89.6726 119.446 89.7816 119.577 89.8687 119.74C89.945 119.904 89.9886 120.1 89.9886 120.328C89.9886 120.557 89.945 120.742 89.8687 120.917C89.7925 121.08 89.6726 121.211 89.5201 121.298C89.3675 121.385 89.1932 121.429 88.9971 121.429C88.7901 121.429 88.6158 121.385 88.4741 121.298C88.3216 121.211 88.2126 121.08 88.1255 120.917C88.0492 120.753 88.0056 120.557 88.0056 120.328C88.0056 120.1 88.0492 119.904 88.1255 119.74C88.2017 119.577 88.3216 119.446 88.4741 119.359C88.6267 119.272 88.801 119.228 88.9971 119.228ZM88.9971 119.544C88.801 119.544 88.6484 119.609 88.5395 119.751C88.4305 119.893 88.3652 120.078 88.3652 120.328C88.3652 120.568 88.4196 120.764 88.5395 120.906C88.6484 121.048 88.801 121.113 88.9971 121.113C89.1932 121.113 89.3458 121.048 89.4547 120.906C89.5637 120.764 89.6181 120.579 89.6181 120.328C89.6181 120.089 89.5637 119.893 89.4547 119.751C89.3458 119.609 89.1932 119.544 88.9971 119.544Z" fill="#025366"/>
<path d="M96.1121 121.396H95.7852V119.838H95.7961L95.1751 121.374H94.9136L94.2816 119.838H94.2925V121.396H93.9766V119.261H94.3688L95.0443 120.917H95.0334L95.7089 119.261H96.1121V121.396Z" fill="#025366"/>
<path d="M99.3915 121.386L99.2063 120.819H98.4327L98.2475 121.386H97.8771L98.6398 119.25H99.0102L99.7729 121.386H99.3915ZM98.825 119.643L98.5199 120.536H99.1083L98.8032 119.643H98.825Z" fill="#025366"/>
<path d="M101.396 120.819H101.745C101.745 120.906 101.778 120.982 101.832 121.037C101.887 121.091 101.952 121.113 102.039 121.113C102.246 121.113 102.344 120.993 102.355 120.753V119.261H102.704V120.764C102.704 120.971 102.649 121.146 102.529 121.255C102.41 121.364 102.246 121.429 102.039 121.429C101.908 121.429 101.799 121.407 101.701 121.353C101.603 121.298 101.527 121.233 101.473 121.135C101.418 121.058 101.396 120.95 101.396 120.819Z" fill="#025366"/>
<path d="M104.97 119.261H104.621V121.396H104.97V119.261Z" fill="#025366"/>
<path d="M106.898 119.261H107.65C107.966 119.261 108.206 119.359 108.38 119.544C108.555 119.729 108.642 119.991 108.642 120.328C108.642 120.666 108.555 120.928 108.38 121.113C108.206 121.298 107.955 121.396 107.65 121.396H106.898V119.261ZM107.247 119.566V121.08H107.618C107.835 121.08 107.999 121.015 108.119 120.884C108.239 120.753 108.293 120.568 108.293 120.328C108.293 120.078 108.239 119.893 108.119 119.762C107.999 119.631 107.835 119.566 107.618 119.566H107.247Z" fill="#025366"/>
<path d="M108.99 118.542H81V118.727H108.99V118.542Z" fill="#E2B12B"/>
<path d="M91.2525 112.267H87.864V105.294C87.864 103.42 89.3785 101.905 91.2525 101.905V112.267Z" fill="#E2B12B"/>
<g clip-path="url(#clip0_237_13788)">
<path d="M96.7001 104.28H93.3116V112.256H96.7001V104.28Z" fill="#025366"/>
</g>
<path d="M98.4544 100.031H95.0005V96H91.0455C89.2913 96 87.864 97.4273 87.864 99.1815V100.031H90.7731C90.7731 102.101 92.451 103.779 94.5211 103.779H98.803V112.267H102.192V103.779C102.202 101.709 100.525 100.031 98.4544 100.031Z" fill="#025366"/>
<path d="M291.283 167.786H282.578C282.284 167.785 282.001 167.667 281.793 167.458C281.584 167.249 281.467 166.966 281.466 166.67V165.911C281.467 165.616 281.584 165.333 281.793 165.124C282.001 164.915 282.284 164.797 282.578 164.796H291.283C291.578 164.797 291.86 164.915 292.069 165.124C292.277 165.333 292.395 165.616 292.396 165.911V166.67C292.396 166.817 292.368 166.962 292.312 167.098C292.256 167.233 292.174 167.356 292.071 167.46C291.967 167.563 291.844 167.645 291.709 167.701C291.574 167.757 291.429 167.786 291.283 167.786Z" fill="#CADFE4" fill-opacity="0.9"/>
<path d="M265.027 161.142C265.027 161.866 264.812 162.574 264.411 163.177C264.009 163.779 263.439 164.248 262.771 164.525C262.103 164.803 261.369 164.875 260.66 164.734C259.951 164.593 259.3 164.244 258.789 163.732C258.278 163.219 257.93 162.567 257.789 161.857C257.648 161.146 257.72 160.41 257.997 159.741C258.273 159.072 258.742 158.5 259.343 158.097C259.944 157.695 260.65 157.48 261.373 157.48C261.853 157.48 262.328 157.574 262.772 157.758C263.215 157.942 263.618 158.212 263.957 158.552C264.297 158.892 264.566 159.296 264.749 159.74C264.933 160.185 265.027 160.661 265.027 161.142Z" fill="#75AFBD"/>
<path d="M73.5186 136.089C73.3924 136.089 73.2503 136.089 73.0925 136.081C72.9346 136.073 72.7689 136.057 72.5953 136.041C72.4216 136.026 72.2559 135.994 72.0823 135.962C71.9205 135.933 71.762 135.888 71.6088 135.828C71.434 135.781 71.2798 135.677 71.1711 135.532C71.0623 135.387 71.0052 135.21 71.009 135.029L71.0011 129.919C70.997 129.855 71.006 129.79 71.0277 129.728C71.0494 129.667 71.0833 129.611 71.1274 129.563C71.2247 129.472 71.3404 129.402 71.4667 129.358C71.7895 129.252 72.123 129.183 72.4611 129.152C72.8084 129.121 73.124 129.105 73.4002 129.105C73.9229 129.1 74.4437 129.169 74.9471 129.31C75.3872 129.432 75.7944 129.651 76.1388 129.951C76.4781 130.246 76.7431 130.617 76.9122 131.035C77.1053 131.528 77.1992 132.055 77.1884 132.585C77.1995 133.106 77.1111 133.624 76.9279 134.111C76.7636 134.53 76.5073 134.905 76.1782 135.211C75.8418 135.511 75.4467 135.737 75.0181 135.875C74.5319 136.022 74.0264 136.094 73.5186 136.089ZM72.9031 134.491C72.982 134.507 73.0846 134.515 73.1951 134.531C73.3055 134.546 73.4239 134.546 73.5186 134.546C73.752 134.547 73.9838 134.51 74.2052 134.436C74.4075 134.365 74.591 134.248 74.7419 134.096C74.9033 133.925 75.0222 133.72 75.0891 133.495C75.1804 133.211 75.2231 132.914 75.2154 132.617C75.2543 132.082 75.0877 131.553 74.7498 131.137C74.5932 130.972 74.403 130.841 74.192 130.755C73.981 130.669 73.7541 130.63 73.5265 130.639C73.4239 130.639 73.3213 130.647 73.2187 130.647C73.1161 130.647 73.0057 130.663 72.8952 130.679L72.9031 134.491Z" fill="#E2B12B"/>
<path d="M78.2695 130.291C78.2579 130.155 78.276 130.018 78.3225 129.889C78.3691 129.76 78.443 129.644 78.5391 129.547C78.6352 129.449 78.7512 129.374 78.8791 129.327C79.007 129.279 79.1437 129.26 79.2797 129.271L82.8863 129.263C82.9443 129.362 82.9894 129.468 83.0205 129.579C83.0619 129.715 83.0832 129.856 83.0836 129.998C83.0952 130.104 83.0851 130.212 83.0539 130.314C83.0226 130.416 82.971 130.51 82.9021 130.592C82.8391 130.651 82.7647 130.697 82.6832 130.727C82.6018 130.757 82.5152 130.77 82.4286 130.766L80.1241 130.773V131.794L82.5785 131.786C82.6352 131.883 82.6802 131.987 82.7127 132.094C82.7547 132.227 82.776 132.366 82.7758 132.506C82.7975 132.719 82.7352 132.931 82.6022 133.099C82.5404 133.158 82.4672 133.204 82.3872 133.234C82.3072 133.264 82.2219 133.277 82.1366 133.273L80.1241 133.281V134.428L82.9337 134.42C82.9916 134.519 83.0367 134.625 83.0678 134.736C83.1092 134.872 83.1305 135.013 83.131 135.155C83.1425 135.261 83.1324 135.369 83.1012 135.471C83.07 135.573 83.0184 135.667 82.9495 135.749C82.8866 135.809 82.8123 135.856 82.731 135.887C82.6497 135.919 82.563 135.933 82.4759 135.93L79.2876 135.938C79.1517 135.95 79.0148 135.932 78.8866 135.885C78.7583 135.839 78.6417 135.765 78.5448 135.668C78.448 135.572 78.3732 135.456 78.3257 135.327C78.2781 135.199 78.259 135.062 78.2695 134.926V130.291Z" fill="#E2B12B"/>
<path d="M85.2777 135.922C85.1417 135.934 85.0049 135.916 84.8766 135.869C84.7484 135.823 84.6318 135.749 84.5349 135.652C84.4381 135.556 84.3633 135.44 84.3157 135.312C84.2682 135.183 84.249 135.046 84.2596 134.91L84.2517 129.255C84.3306 129.239 84.4569 129.223 84.6305 129.191C84.7978 129.167 84.9665 129.154 85.1356 129.152C85.2838 129.151 85.4318 129.165 85.5776 129.191C85.694 129.212 85.8045 129.258 85.9011 129.326C85.9918 129.398 86.0602 129.494 86.0984 129.603C86.1476 129.75 86.169 129.906 86.1616 130.061L86.1695 134.388L88.6712 134.38C88.7287 134.483 88.7763 134.592 88.8132 134.704C88.8579 134.839 88.8792 134.981 88.8764 135.124C88.8981 135.345 88.833 135.566 88.6949 135.741C88.6293 135.802 88.5523 135.849 88.4683 135.88C88.3844 135.912 88.2951 135.926 88.2056 135.922H85.2777Z" fill="#E2B12B"/>
<path d="M91.7727 135.835C91.6487 135.868 91.5218 135.889 91.3939 135.898C91.2264 135.92 91.0577 135.931 90.8888 135.93C90.7406 135.93 90.5926 135.917 90.4468 135.89C90.3304 135.87 90.2199 135.824 90.1233 135.756C90.0326 135.684 89.9642 135.588 89.926 135.479C89.8768 135.331 89.8554 135.176 89.8628 135.02L89.847 129.246C89.926 129.231 90.0522 129.215 90.2259 129.183C90.3931 129.158 90.5619 129.145 90.731 129.144C90.8792 129.143 91.0271 129.156 91.1729 129.183C91.2893 129.203 91.3998 129.249 91.4965 129.318C91.5871 129.389 91.6555 129.485 91.6938 129.594C91.743 129.742 91.7644 129.898 91.7569 130.053L91.7727 135.835Z" fill="#E2B12B"/>
<path d="M97.1629 135.645C97.022 135.753 96.861 135.831 96.6894 135.875C96.4614 135.942 96.2248 135.977 95.987 135.977C95.7178 135.983 95.4501 135.937 95.1978 135.843C95.0044 135.78 94.8431 135.643 94.748 135.463C94.6691 135.297 94.5665 135.076 94.4481 134.815C94.3297 134.554 94.2113 134.253 94.0772 133.921C93.943 133.589 93.8167 133.249 93.6826 132.877C93.5484 132.505 93.4142 132.133 93.2959 131.754C93.1775 131.374 93.0512 131.002 92.9407 130.638C92.8302 130.275 92.7355 129.934 92.6566 129.61C92.7849 129.49 92.935 129.396 93.0986 129.333C93.2924 129.248 93.5023 129.204 93.7141 129.207C93.9464 129.197 94.1765 129.255 94.3771 129.373C94.5765 129.527 94.7116 129.749 94.7559 129.998C94.9532 130.71 95.1505 131.398 95.3557 132.046C95.5608 132.695 95.766 133.375 95.987 134.087H96.0501C96.2474 133.399 96.4447 132.655 96.6499 131.841C96.8551 131.026 97.0524 130.227 97.2418 129.42C97.3773 129.355 97.5171 129.3 97.6601 129.254C97.8242 129.207 97.9946 129.186 98.1652 129.191C98.4071 129.181 98.6463 129.245 98.8518 129.373C98.9479 129.437 99.025 129.526 99.075 129.63C99.125 129.735 99.1461 129.851 99.1359 129.966C99.123 130.204 99.086 130.44 99.0254 130.67C98.9465 130.978 98.8518 131.319 98.7334 131.706C98.615 132.094 98.4809 132.489 98.3309 132.908C98.181 133.328 98.031 133.715 97.889 134.087C97.7469 134.459 97.6049 134.783 97.4707 135.06C97.3845 135.263 97.2816 135.459 97.1629 135.645Z" fill="#E2B12B"/>
<path d="M100.107 130.244C100.095 130.107 100.113 129.97 100.16 129.842C100.206 129.713 100.28 129.596 100.376 129.499C100.472 129.402 100.588 129.327 100.716 129.279C100.844 129.232 100.981 129.213 101.117 129.223L104.723 129.215C104.781 129.315 104.826 129.421 104.858 129.532C104.899 129.668 104.92 129.809 104.921 129.951C104.932 130.057 104.922 130.164 104.891 130.266C104.86 130.368 104.808 130.463 104.739 130.544C104.676 130.604 104.602 130.65 104.52 130.68C104.439 130.71 104.352 130.723 104.266 130.718L101.961 130.726V131.746L104.416 131.738C104.472 131.836 104.517 131.939 104.55 132.047C104.592 132.18 104.613 132.319 104.613 132.458C104.635 132.671 104.572 132.884 104.439 133.051C104.377 133.111 104.304 133.156 104.224 133.186C104.144 133.216 104.059 133.23 103.974 133.225L101.961 133.233V134.38L104.771 134.372C104.829 134.472 104.874 134.578 104.905 134.689C104.946 134.825 104.968 134.966 104.968 135.108C104.98 135.214 104.969 135.321 104.938 135.423C104.907 135.525 104.855 135.62 104.786 135.701C104.724 135.762 104.65 135.81 104.568 135.841C104.487 135.872 104.4 135.887 104.313 135.883L101.125 135.891C100.989 135.903 100.852 135.885 100.724 135.838C100.595 135.791 100.479 135.717 100.382 135.621C100.285 135.525 100.21 135.408 100.163 135.28C100.115 135.152 100.096 135.015 100.107 134.879V130.244Z" fill="#E2B12B"/>
<path d="M107.999 133.692L108.006 135.796C107.882 135.829 107.756 135.85 107.628 135.859C107.46 135.881 107.291 135.892 107.123 135.891C106.974 135.891 106.826 135.878 106.681 135.851C106.566 135.833 106.458 135.786 106.365 135.717C106.274 135.647 106.208 135.55 106.176 135.44C106.126 135.292 106.105 135.137 106.112 134.981L106.104 129.824C106.1 129.76 106.109 129.695 106.131 129.633C106.153 129.572 106.187 129.516 106.231 129.468C106.328 129.377 106.444 129.307 106.57 129.263C106.849 129.169 107.138 129.105 107.43 129.073C107.779 129.031 108.129 129.01 108.48 129.01C109.288 128.949 110.092 129.173 110.753 129.642C111.005 129.849 111.205 130.112 111.338 130.41C111.471 130.708 111.533 131.033 111.518 131.359C111.528 131.773 111.406 132.18 111.171 132.521C110.957 132.831 110.673 133.086 110.342 133.265C110.603 133.621 110.863 133.953 111.116 134.269C111.338 134.538 111.538 134.824 111.716 135.124C111.656 135.359 111.517 135.566 111.321 135.709C111.132 135.844 110.906 135.916 110.674 135.915C110.532 135.918 110.391 135.9 110.256 135.859C110.146 135.825 110.042 135.775 109.948 135.709C109.857 135.64 109.775 135.561 109.703 135.472C109.629 135.373 109.56 135.27 109.498 135.163L108.575 133.684L107.999 133.692ZM108.685 132.237C108.923 132.25 109.156 132.174 109.34 132.023C109.423 131.941 109.487 131.842 109.527 131.733C109.568 131.623 109.585 131.507 109.577 131.39C109.586 131.272 109.567 131.154 109.52 131.045C109.473 130.936 109.401 130.84 109.309 130.766C109.058 130.603 108.761 130.528 108.464 130.552C108.354 130.552 108.267 130.56 108.204 130.56C108.141 130.56 108.062 130.576 107.983 130.592V132.237H108.685Z" fill="#E2B12B"/>
<path d="M115.946 135.78C115.824 135.812 115.7 135.833 115.575 135.843C115.413 135.865 115.249 135.876 115.086 135.875C114.822 135.891 114.56 135.833 114.328 135.709C114.162 135.598 114.075 135.361 114.075 134.989V133.51C113.894 133.241 113.697 132.94 113.483 132.616C113.27 132.292 113.065 131.952 112.86 131.612C112.655 131.271 112.465 130.931 112.292 130.599C112.135 130.303 111.992 130 111.866 129.69C111.971 129.545 112.102 129.422 112.252 129.326C112.433 129.21 112.645 129.152 112.86 129.16C113.103 129.148 113.345 129.209 113.554 129.334C113.778 129.505 113.955 129.731 114.067 129.99L114.975 131.817H115.038C115.141 131.588 115.228 131.382 115.306 131.2C115.385 131.018 115.456 130.829 115.527 130.639C115.598 130.449 115.677 130.259 115.756 130.061C115.835 129.864 115.93 129.626 116.025 129.365C116.163 129.298 116.308 129.247 116.459 129.215C116.608 129.178 116.762 129.159 116.916 129.16C117.148 129.151 117.376 129.221 117.564 129.357C117.654 129.429 117.726 129.522 117.773 129.628C117.82 129.735 117.84 129.851 117.832 129.966C117.83 130.074 117.811 130.181 117.777 130.283C117.709 130.477 117.624 130.665 117.524 130.844C117.39 131.097 117.201 131.438 116.956 131.873C116.711 132.308 116.364 132.869 115.938 133.557L115.946 135.78Z" fill="#E2B12B"/>
<g opacity="0.07">
<path d="M96.7312 78.7719L37.2813 138.355C37.2813 138.355 36.8709 99.7402 39.4831 84.2216C39.4752 84.2295 39.5226 78.3132 96.7312 78.7719Z" fill="#CADFE4" fill-opacity="0.9"/>
</g>
<path d="M179.289 147.521H36.8867V153.359H179.289V147.521Z" fill="#CADFE4" fill-opacity="0.9"/>
<path d="M179.289 141.02H36.8867V143.939H179.289V141.02Z" fill="#CADFE4" fill-opacity="0.9"/>
<path d="M76.3148 211.937C76.0861 212.598 75.667 213.176 75.1105 213.598C74.554 214.021 73.885 214.268 73.1881 214.309C72.4913 214.351 71.7979 214.184 71.1957 213.83C70.5935 213.476 70.1094 212.952 69.8048 212.322C69.5001 211.693 69.3886 210.987 69.4842 210.294C69.5798 209.601 69.8784 208.952 70.3421 208.429C70.8057 207.906 71.4137 207.532 72.0891 207.356C72.7646 207.179 73.4771 207.207 74.1366 207.436C75.0204 207.745 75.7461 208.391 76.1545 209.235C76.5628 210.079 76.6205 211.051 76.3148 211.937Z" fill="#CADFE4" fill-opacity="0.9"/>
<path d="M82.4389 214.065C82.0784 215.107 81.4176 216.018 80.5403 216.683C79.663 217.349 78.6085 217.739 77.5102 217.803C76.4118 217.868 75.319 217.605 74.3698 217.047C73.4206 216.49 72.6577 215.663 72.1777 214.67C71.6976 213.678 71.5218 212.566 71.6726 211.473C71.8234 210.381 72.294 209.358 73.0249 208.534C73.7558 207.71 74.7141 207.121 75.7788 206.843C76.8434 206.564 77.9664 206.609 79.0059 206.97C79.6967 207.209 80.3336 207.583 80.8801 208.069C81.4266 208.555 81.8721 209.145 82.191 209.804C82.5099 210.463 82.6959 211.178 82.7385 211.909C82.781 212.641 82.6792 213.373 82.4389 214.065Z" fill="#CADFE4" fill-opacity="0.9"/>
<path d="M75.1389 218.138C74.8814 218.881 74.4098 219.531 73.7837 220.005C73.1577 220.48 72.4054 220.757 71.622 220.803C70.8386 220.849 70.0591 220.661 69.3823 220.263C68.7055 219.865 68.1616 219.274 67.8195 218.567C67.4774 217.859 67.3524 217.065 67.4603 216.286C67.5682 215.507 67.9042 214.777 68.4258 214.19C68.9474 213.602 69.6311 213.183 70.3906 212.984C71.15 212.786 71.9511 212.818 72.6924 213.076C73.6866 213.422 74.5028 214.15 74.9616 215.099C75.4204 216.049 75.4842 217.142 75.1389 218.138Z" fill="#CADFE4" fill-opacity="0.9"/>
<path d="M65.6923 215.378C65.4956 215.947 65.1349 216.445 64.6557 216.809C64.1765 217.173 63.6004 217.387 63.0002 217.423C62.4 217.458 61.8027 217.315 61.2838 217.011C60.7649 216.706 60.3477 216.254 60.085 215.712C59.8223 215.17 59.7259 214.562 59.808 213.965C59.89 213.368 60.1469 212.809 60.546 212.359C60.9452 211.908 61.4687 211.586 62.0504 211.434C62.6321 211.281 63.2458 211.305 63.814 211.502C64.575 211.768 65.1999 212.325 65.552 213.051C65.904 213.778 65.9545 214.614 65.6923 215.378Z" fill="#CADFE4" fill-opacity="0.9"/>
<path d="M57.1058 213.219C57.02 213.467 56.8625 213.685 56.6532 213.844C56.444 214.003 56.1925 214.096 55.9305 214.112C55.6684 214.127 55.4076 214.065 55.1811 213.932C54.9545 213.799 54.7723 213.602 54.6576 213.365C54.5428 213.128 54.5007 212.863 54.5364 212.602C54.5722 212.342 54.6842 212.098 54.8584 211.901C55.0326 211.704 55.2611 211.563 55.5151 211.497C55.769 211.43 56.037 211.44 56.2851 211.526C56.4499 211.583 56.6019 211.672 56.7323 211.788C56.8628 211.904 56.9692 212.045 57.0454 212.202C57.1216 212.359 57.1662 212.53 57.1765 212.704C57.1869 212.879 57.1629 213.054 57.1058 213.219Z" fill="#CADFE4" fill-opacity="0.9"/>
<path d="M70.3485 217.458C70.055 218.306 69.5173 219.047 68.8033 219.589C68.0893 220.131 67.231 220.448 66.3371 220.501C65.4431 220.553 64.5537 220.339 63.7811 219.885C63.0086 219.432 62.3877 218.758 61.997 217.951C61.6062 217.143 61.4632 216.238 61.586 215.349C61.7087 214.46 62.0918 213.627 62.6867 212.956C63.2816 212.285 64.0616 211.807 64.9281 211.58C65.7946 211.353 66.7087 211.39 67.5547 211.684C68.6887 212.079 69.62 212.909 70.1438 213.991C70.6677 215.074 70.7413 216.321 70.3485 217.458Z" fill="#CADFE4" fill-opacity="0.9"/>
<path d="M68.1388 208.291C67.9083 208.955 67.4864 209.537 66.9263 209.961C66.3663 210.386 65.6932 210.634 64.9923 210.675C64.2913 210.717 63.5939 210.549 62.9881 210.193C62.3824 209.837 61.8955 209.309 61.589 208.676C61.2825 208.043 61.1701 207.333 61.2661 206.636C61.3621 205.939 61.6622 205.286 62.1283 204.759C62.5945 204.233 63.2059 203.857 63.8852 203.679C64.5645 203.501 65.2812 203.528 65.9448 203.758C66.386 203.911 66.7928 204.15 67.1419 204.461C67.491 204.771 67.7756 205.148 67.9793 205.569C68.1831 205.99 68.3021 206.447 68.3294 206.914C68.3568 207.381 68.292 207.849 68.1388 208.291Z" fill="#CADFE4" fill-opacity="0.9"/>
<path d="M72.5661 209.651C72.3356 210.316 71.9137 210.898 71.3537 211.322C70.7936 211.747 70.1206 211.995 69.4196 212.036C68.7187 212.078 68.0212 211.91 67.4155 211.554C66.8097 211.198 66.3229 210.67 66.0164 210.037C65.7099 209.404 65.5975 208.694 65.6935 207.997C65.7895 207.299 66.0896 206.646 66.5557 206.12C67.0219 205.594 67.6332 205.218 68.3125 205.04C68.9918 204.862 69.7086 204.889 70.3722 205.119C70.8134 205.272 71.2201 205.511 71.5693 205.821C71.9184 206.132 72.2029 206.509 72.4067 206.929C72.6105 207.35 72.7294 207.807 72.7568 208.275C72.7842 208.742 72.7194 209.21 72.5661 209.651Z" fill="#CADFE4" fill-opacity="0.9"/>
<path d="M71.035 212.507C70.8045 213.172 70.3826 213.753 69.8225 214.177C69.2625 214.602 68.5895 214.851 67.8885 214.892C67.1875 214.933 66.4901 214.765 65.8844 214.409C65.2786 214.053 64.7917 213.525 64.4852 212.892C64.1787 212.259 64.0664 211.549 64.1624 210.852C64.2584 210.155 64.5584 209.502 65.0246 208.976C65.4907 208.449 66.1021 208.073 66.7814 207.895C67.4607 207.717 68.1774 207.745 68.841 207.975C69.2822 208.128 69.689 208.366 70.0381 208.677C70.3872 208.987 70.6718 209.364 70.8756 209.785C71.0794 210.206 71.1983 210.663 71.2257 211.13C71.253 211.597 71.1882 212.065 71.035 212.507Z" fill="#CADFE4" fill-opacity="0.9"/>
<path d="M59.1893 204.621C59.0713 204.96 58.8555 205.257 58.5692 205.474C58.2828 205.691 57.9388 205.818 57.5806 205.838C57.2223 205.859 56.8659 205.773 56.5564 205.591C56.247 205.409 55.9983 205.139 55.8418 204.816C55.6852 204.492 55.628 204.129 55.6772 203.773C55.7264 203.417 55.8798 203.083 56.1181 202.814C56.3564 202.545 56.6689 202.353 57.0161 202.262C57.3633 202.171 57.7296 202.186 58.0687 202.303C58.2942 202.381 58.5022 202.503 58.6806 202.662C58.8591 202.821 59.0045 203.014 59.1086 203.229C59.2127 203.444 59.2734 203.678 59.2873 203.917C59.3011 204.156 59.2678 204.395 59.1893 204.621Z" fill="#CADFE4" fill-opacity="0.9"/>
<path d="M72.1478 205.539C72.0298 205.878 71.814 206.175 71.5277 206.392C71.2413 206.609 70.8973 206.736 70.539 206.756C70.1808 206.777 69.8244 206.691 69.5149 206.509C69.2055 206.327 68.9567 206.057 68.8002 205.734C68.6437 205.41 68.5865 205.047 68.6357 204.691C68.6849 204.335 68.8383 204.001 69.0766 203.732C69.3149 203.463 69.6274 203.271 69.9746 203.18C70.3218 203.089 70.6881 203.104 71.0272 203.221C71.2527 203.299 71.4607 203.421 71.6391 203.58C71.8176 203.739 71.963 203.932 72.0671 204.147C72.1712 204.362 72.2319 204.596 72.2458 204.835C72.2596 205.073 72.2263 205.313 72.1478 205.539Z" fill="#CADFE4" fill-opacity="0.9"/>
<path d="M83.9306 218.913C83.7324 219.488 83.3687 219.99 82.8856 220.357C82.4024 220.724 81.8215 220.939 81.2163 220.976C80.6111 221.012 80.0088 220.867 79.4856 220.56C78.9623 220.253 78.5416 219.798 78.2767 219.251C78.0117 218.705 77.9145 218.092 77.9972 217.49C78.0799 216.888 78.3388 216.324 78.7413 215.87C79.1437 215.415 79.6716 215.091 80.2582 214.937C80.8447 214.783 81.4636 214.807 82.0365 215.006C82.417 215.138 82.768 215.343 83.0692 215.611C83.3705 215.878 83.6161 216.203 83.792 216.566C83.9679 216.929 84.0707 217.323 84.0945 217.726C84.1183 218.129 84.0626 218.532 83.9306 218.913Z" fill="#CADFE4" fill-opacity="0.9"/>
<path d="M87.2215 214.745C86.9523 215.524 86.4588 216.204 85.8034 216.702C85.1481 217.199 84.3603 217.49 83.5398 217.539C82.7192 217.587 81.9027 217.391 81.1935 216.975C80.4844 216.558 79.9144 215.94 79.5556 215.199C79.1969 214.458 79.0655 213.626 79.1781 212.81C79.2907 211.994 79.6423 211.23 80.1883 210.614C80.7343 209.998 81.4502 209.559 82.2456 209.351C83.041 209.143 83.88 209.176 84.6566 209.446C85.1728 209.624 85.6488 209.903 86.0573 210.266C86.4657 210.629 86.7987 211.069 87.037 211.562C87.2753 212.054 87.4142 212.589 87.4459 213.135C87.4776 213.681 87.4013 214.229 87.2215 214.745Z" fill="#CADFE4" fill-opacity="0.9"/>
<path d="M84.9249 209.976C84.7555 210.466 84.4449 210.895 84.0323 211.208C83.6196 211.522 83.1236 211.705 82.6068 211.736C82.09 211.767 81.5757 211.644 81.1289 211.381C80.6821 211.119 80.3228 210.73 80.0966 210.264C79.8704 209.797 79.7874 209.273 79.858 208.759C79.9286 208.245 80.1497 207.764 80.4933 207.376C80.8369 206.988 81.2877 206.71 81.7885 206.579C82.2894 206.448 82.8178 206.468 83.3071 206.638C83.9631 206.866 84.5019 207.345 84.8053 207.971C85.1087 208.597 85.1517 209.318 84.9249 209.976Z" fill="#CADFE4" fill-opacity="0.9"/>
<path d="M226.844 209.593C230.67 207.76 232.29 203.166 230.462 199.331C228.634 195.496 224.05 193.872 220.223 195.704C216.397 197.537 214.777 202.131 216.605 205.966C218.433 209.801 223.017 211.425 226.844 209.593Z" fill="#CADFE4" fill-opacity="0.9"/>
<path d="M243.886 210.307C246.372 204.093 243.36 197.035 237.159 194.544C230.959 192.053 223.917 195.071 221.431 201.286C218.946 207.5 221.958 214.558 228.158 217.049C234.359 219.54 241.4 216.522 243.886 210.307Z" fill="#CADFE4" fill-opacity="0.9"/>
<path d="M222.965 223.973C227.459 222.391 229.823 217.456 228.244 212.951C226.664 208.447 221.741 206.078 217.246 207.661C212.751 209.243 210.388 214.178 211.967 218.683C213.546 223.187 218.47 225.556 222.965 223.973Z" fill="#CADFE4" fill-opacity="0.9"/>
<path d="M207.692 212.641C207.264 213.878 206.48 214.961 205.438 215.751C204.397 216.542 203.145 217.006 201.841 217.083C200.536 217.161 199.238 216.849 198.111 216.187C196.983 215.525 196.077 214.543 195.506 213.365C194.936 212.187 194.727 210.866 194.905 209.569C195.084 208.271 195.642 207.056 196.51 206.077C197.377 205.098 198.515 204.399 199.779 204.068C201.043 203.737 202.377 203.789 203.612 204.217C204.432 204.501 205.188 204.944 205.838 205.522C206.487 206.099 207.016 206.799 207.395 207.581C207.774 208.363 207.995 209.213 208.046 210.081C208.097 210.95 207.977 211.819 207.692 212.641Z" fill="#CADFE4" fill-opacity="0.9"/>
<path d="M189.02 207.951C188.833 208.491 188.491 208.964 188.036 209.31C187.581 209.655 187.035 209.858 186.465 209.892C185.895 209.926 185.328 209.79 184.836 209.501C184.343 209.213 183.947 208.784 183.698 208.27C183.448 207.755 183.357 207.178 183.434 206.612C183.512 206.045 183.756 205.514 184.135 205.086C184.513 204.659 185.01 204.353 185.562 204.208C186.114 204.063 186.697 204.086 187.236 204.273C187.594 204.397 187.924 204.59 188.208 204.842C188.492 205.094 188.723 205.4 188.888 205.741C189.054 206.083 189.151 206.454 189.173 206.833C189.196 207.212 189.144 207.592 189.02 207.951Z" fill="#CADFE4" fill-opacity="0.9"/>
<path d="M218.377 214.006C218.418 208.554 214.041 204.102 208.602 204.061C203.162 204.02 198.72 208.406 198.679 213.858C198.638 219.309 203.015 223.762 208.454 223.803C213.893 223.844 218.336 219.457 218.377 214.006Z" fill="#CADFE4" fill-opacity="0.9"/>
<path d="M212.173 198.922C214.5 195.33 213.482 190.527 209.899 188.194C206.315 185.861 201.523 186.881 199.195 190.473C196.867 194.065 197.885 198.868 201.469 201.201C205.052 203.534 209.845 202.514 212.173 198.922Z" fill="#CADFE4" fill-opacity="0.9"/>
<path d="M218.647 204.648C222.503 202.807 224.139 198.181 222.301 194.316C220.464 190.452 215.848 188.812 211.992 190.654C208.136 192.495 206.5 197.121 208.338 200.986C210.175 204.85 214.791 206.49 218.647 204.648Z" fill="#CADFE4" fill-opacity="0.9"/>
<path d="M215.351 210.855C219.198 208.995 220.812 204.361 218.956 200.505C217.099 196.65 212.476 195.032 208.629 196.893C204.782 198.753 203.168 203.387 205.025 207.243C206.881 211.098 211.504 212.716 215.351 210.855Z" fill="#CADFE4" fill-opacity="0.9"/>
<path d="M193.55 189.26C193.295 189.999 192.827 190.646 192.206 191.119C191.585 191.592 190.837 191.87 190.058 191.917C189.28 191.964 188.504 191.779 187.831 191.385C187.157 190.991 186.615 190.405 186.273 189.702C185.931 188.999 185.805 188.211 185.91 187.436C186.015 186.661 186.347 185.935 186.864 185.349C187.381 184.763 188.06 184.344 188.814 184.145C189.569 183.946 190.365 183.975 191.103 184.23C192.093 184.572 192.906 185.294 193.365 186.238C193.823 187.181 193.89 188.268 193.55 189.26Z" fill="#CADFE4" fill-opacity="0.9"/>
<path d="M221.724 191.254C221.467 191.992 220.997 192.637 220.374 193.108C219.751 193.579 219.003 193.854 218.224 193.899C217.445 193.944 216.671 193.756 215.998 193.36C215.325 192.964 214.785 192.376 214.446 191.672C214.106 190.968 213.982 190.179 214.09 189.405C214.198 188.63 214.532 187.905 215.051 187.321C215.57 186.737 216.25 186.32 217.005 186.123C217.76 185.927 218.556 185.959 219.293 186.215C219.783 186.386 220.235 186.651 220.622 186.997C221.009 187.343 221.325 187.761 221.551 188.229C221.776 188.697 221.908 189.205 221.938 189.724C221.967 190.243 221.895 190.763 221.724 191.254Z" fill="#CADFE4" fill-opacity="0.9"/>
<path d="M247.313 220.405C248.55 216.933 246.743 213.113 243.279 211.874C239.814 210.635 236.003 212.445 234.767 215.918C233.53 219.39 235.336 223.21 238.801 224.449C242.266 225.688 246.077 223.878 247.313 220.405Z" fill="#CADFE4" fill-opacity="0.9"/>
<path d="M254.333 220.859C254.024 221.752 253.458 222.533 252.706 223.104C251.953 223.675 251.049 224.009 250.108 224.065C249.166 224.121 248.229 223.895 247.415 223.417C246.601 222.939 245.947 222.23 245.535 221.379C245.123 220.528 244.972 219.574 245.102 218.638C245.231 217.701 245.634 216.824 246.261 216.117C246.888 215.41 247.71 214.906 248.622 214.667C249.535 214.428 250.498 214.466 251.39 214.776C251.982 214.981 252.528 215.301 252.997 215.718C253.466 216.134 253.848 216.64 254.121 217.205C254.395 217.77 254.554 218.384 254.591 219.011C254.627 219.638 254.54 220.266 254.333 220.859Z" fill="#CADFE4" fill-opacity="0.9"/>
<path d="M258.919 221.515C258.754 221.99 258.452 222.405 258.052 222.708C257.652 223.011 257.171 223.188 256.671 223.218C256.17 223.247 255.672 223.127 255.24 222.872C254.807 222.618 254.46 222.24 254.241 221.788C254.023 221.335 253.943 220.828 254.012 220.33C254.081 219.833 254.296 219.366 254.629 218.991C254.963 218.616 255.4 218.348 255.885 218.221C256.37 218.094 256.882 218.115 257.356 218.28C257.671 218.389 257.961 218.56 258.21 218.782C258.459 219.003 258.662 219.272 258.807 219.573C258.952 219.873 259.036 220.199 259.056 220.533C259.075 220.866 259.028 221.2 258.919 221.515Z" fill="#CADFE4" fill-opacity="0.9"/>
<path d="M254.52 211.294C256.171 206.569 253.687 201.398 248.972 199.744C244.258 198.09 239.098 200.58 237.448 205.304C235.798 210.029 238.282 215.201 242.996 216.855C247.711 218.508 252.87 216.019 254.52 211.294Z" fill="#CADFE4" fill-opacity="0.9"/>
<path d="M249.503 200.903C249.135 201.968 248.46 202.9 247.563 203.581C246.666 204.261 245.588 204.66 244.465 204.727C243.342 204.793 242.225 204.525 241.254 203.955C240.284 203.385 239.503 202.539 239.012 201.525C238.521 200.511 238.341 199.373 238.495 198.256C238.649 197.14 239.13 196.094 239.877 195.251C240.624 194.408 241.604 193.806 242.692 193.521C243.78 193.236 244.929 193.281 245.992 193.65C247.417 194.146 248.587 195.188 249.246 196.548C249.904 197.908 249.997 199.475 249.503 200.903Z" fill="#CADFE4" fill-opacity="0.9"/>
<path d="M310.211 38.2256C310.657 38.2256 311.084 38.0485 311.4 37.7332C311.715 37.4179 311.892 36.9903 311.892 36.5444V32.0977C311.892 31.6518 311.715 31.2242 311.4 30.9089C311.084 30.5936 310.657 30.4165 310.211 30.4165C309.765 30.4165 309.337 30.5936 309.022 30.9089C308.707 31.2242 308.53 31.6518 308.53 32.0977V36.5345C308.528 36.7561 308.571 36.9758 308.655 37.1809C308.739 37.386 308.862 37.5725 309.018 37.7297C309.175 37.8868 309.36 38.0116 309.565 38.0967C309.77 38.1818 309.989 38.2256 310.211 38.2256Z" fill="#E2B12B"/>
<path d="M317.724 37.8296H313.275C312.829 37.8296 312.402 38.0067 312.087 38.322C311.771 38.6373 311.594 39.0649 311.594 39.5108C311.594 39.9567 311.771 40.3843 312.087 40.6996C312.402 41.0149 312.829 41.192 313.275 41.192H317.724C318.17 41.192 318.597 41.0149 318.913 40.6996C319.228 40.3843 319.405 39.9567 319.405 39.5108C319.405 39.0649 319.228 38.6373 318.913 38.322C318.597 38.0067 318.17 37.8296 317.724 37.8296Z" fill="#E2B12B"/>
<path d="M310.311 40.8955C310.09 40.8952 309.872 40.9385 309.668 41.0228C309.464 41.107 309.278 41.2307 309.122 41.3866C308.966 41.5426 308.842 41.7278 308.758 41.9316C308.673 42.1355 308.63 42.354 308.63 42.5747V47.0234C308.63 47.469 308.807 47.8964 309.122 48.2115C309.437 48.5266 309.864 48.7036 310.31 48.7036C310.756 48.7036 311.183 48.5266 311.498 48.2115C311.813 47.8964 311.99 47.469 311.99 47.0234V42.5747C311.99 42.1293 311.813 41.7022 311.498 41.3873C311.183 41.0724 310.756 40.8955 310.311 40.8955Z" fill="#E2B12B"/>
<path d="M307.247 37.9273H302.798C302.573 37.9195 302.348 37.9572 302.138 38.0382C301.927 38.1191 301.735 38.2416 301.573 38.3984C301.41 38.5552 301.281 38.7431 301.193 38.9508C301.105 39.1585 301.059 39.3818 301.059 39.6075C301.059 39.8331 301.105 40.0564 301.193 40.2642C301.281 40.4719 301.41 40.6597 301.573 40.8165C301.735 40.9733 301.927 41.0958 302.138 41.1768C302.348 41.2577 302.573 41.2954 302.798 41.2877H307.247C307.683 41.2727 308.096 41.0891 308.398 40.7756C308.701 40.4622 308.871 40.0433 308.871 39.6075C308.871 39.1716 308.701 38.7528 308.398 38.4393C308.096 38.1258 307.683 37.9423 307.247 37.9273Z" fill="#E2B12B"/>
<path d="M308.475 200.819C308.695 200.819 308.914 200.776 309.118 200.691C309.322 200.607 309.507 200.483 309.663 200.327C309.819 200.171 309.942 199.985 310.027 199.781C310.111 199.577 310.154 199.359 310.154 199.138V194.689C310.154 194.244 309.977 193.816 309.662 193.501C309.347 193.186 308.919 193.009 308.474 193.009C308.028 193.009 307.601 193.186 307.286 193.501C306.971 193.816 306.794 194.244 306.794 194.689V199.138C306.794 199.584 306.971 200.012 307.286 200.327C307.601 200.642 308.029 200.819 308.475 200.819Z" fill="#E2B12B"/>
<path d="M315.995 200.423H311.546C311.1 200.423 310.673 200.6 310.358 200.915C310.043 201.231 309.866 201.658 309.866 202.104C309.866 202.549 310.043 202.977 310.358 203.292C310.673 203.607 311.1 203.784 311.546 203.784H315.995C316.44 203.784 316.868 203.607 317.183 203.292C317.498 202.977 317.675 202.549 317.675 202.104C317.675 201.658 317.498 201.231 317.183 200.915C316.868 200.6 316.44 200.423 315.995 200.423Z" fill="#E2B12B"/>
<path d="M308.58 203.487C308.359 203.487 308.141 203.531 307.937 203.615C307.733 203.7 307.548 203.824 307.392 203.98C307.236 204.136 307.112 204.321 307.028 204.525C306.944 204.729 306.9 204.948 306.901 205.169V209.615C306.901 210.061 307.078 210.488 307.393 210.803C307.708 211.118 308.135 211.295 308.581 211.295C309.026 211.295 309.454 211.118 309.769 210.803C310.084 210.488 310.261 210.061 310.261 209.615V205.169C310.261 204.723 310.084 204.295 309.768 203.98C309.453 203.664 309.026 203.487 308.58 203.487Z" fill="#E2B12B"/>
<path d="M305.516 200.523H301.067C300.622 200.523 300.194 200.7 299.879 201.015C299.564 201.33 299.387 201.758 299.387 202.203C299.387 202.649 299.564 203.076 299.879 203.391C300.194 203.706 300.622 203.883 301.067 203.883H305.516C305.961 203.883 306.389 203.706 306.704 203.391C307.019 203.076 307.196 202.649 307.196 202.203C307.196 201.758 307.019 201.33 306.704 201.015C306.389 200.7 305.961 200.523 305.516 200.523Z" fill="#E2B12B"/>
<path d="M24.0639 181.68C24.2198 181.836 24.405 181.959 24.6088 182.044C24.8126 182.128 25.031 182.172 25.2516 182.172C25.4722 182.172 25.6907 182.128 25.8945 182.044C26.0983 181.959 26.2835 181.836 26.4394 181.68L29.585 178.534C29.9 178.219 30.0769 177.792 30.0769 177.346C30.0769 176.901 29.9 176.474 29.585 176.158C29.2699 175.843 28.8427 175.667 28.3972 175.667C27.9517 175.667 27.5244 175.843 27.2094 176.158L24.0639 179.304C23.9078 179.46 23.784 179.645 23.6996 179.849C23.6151 180.053 23.5717 180.271 23.5717 180.492C23.5717 180.712 23.6151 180.931 23.6996 181.135C23.784 181.338 23.9078 181.524 24.0639 181.68Z" fill="#E2B12B"/>
<path d="M29.6546 186.713L26.5091 183.568C26.193 183.253 25.7647 183.076 25.3185 183.077C24.8722 183.078 24.4445 183.256 24.1295 183.572C23.8145 183.888 23.6379 184.316 23.6387 184.763C23.6394 185.209 23.8174 185.636 24.1335 185.951L27.279 189.097C27.594 189.412 28.0213 189.589 28.4668 189.589C28.9123 189.589 29.3396 189.412 29.6546 189.097C29.9696 188.782 30.1466 188.355 30.1466 187.909C30.1466 187.464 29.9696 187.036 29.6546 186.721V186.713Z" fill="#E2B12B"/>
<path d="M22.2456 183.637C22.0897 183.481 21.9045 183.357 21.7007 183.273C21.4969 183.188 21.2785 183.145 21.0579 183.145C20.8372 183.145 20.6188 183.188 20.415 183.273C20.2112 183.357 20.026 183.481 19.87 183.637L16.7245 186.783C16.4095 187.098 16.2325 187.525 16.2325 187.971C16.2325 188.416 16.4095 188.843 16.7245 189.158C17.0396 189.473 17.4668 189.65 17.9123 189.65C18.3578 189.65 18.7851 189.473 19.1001 189.158L22.2456 186.013C22.4016 185.857 22.5254 185.672 22.6099 185.468C22.6944 185.264 22.7378 185.046 22.7378 184.825C22.7378 184.604 22.6944 184.386 22.6099 184.182C22.5254 183.978 22.4016 183.793 22.2456 183.637Z" fill="#E2B12B"/>
<path d="M22.1739 179.374L19.0284 176.228C18.8725 176.072 18.6873 175.949 18.4835 175.864C18.2797 175.78 18.0613 175.736 17.8407 175.736C17.6201 175.736 17.4017 175.78 17.1979 175.864C16.9941 175.949 16.8089 176.072 16.6529 176.228C16.4969 176.384 16.3732 176.569 16.2888 176.773C16.2043 176.977 16.1609 177.196 16.1609 177.416C16.1609 177.637 16.2043 177.855 16.2888 178.059C16.3732 178.263 16.4969 178.448 16.6529 178.604L19.7984 181.749C19.9544 181.905 20.1396 182.029 20.3434 182.114C20.5472 182.198 20.7656 182.241 20.9862 182.241C21.2068 182.241 21.4252 182.198 21.629 182.114C21.8328 182.029 22.018 181.905 22.1739 181.749C22.3299 181.593 22.4537 181.408 22.5381 181.204C22.6225 181.001 22.6659 180.782 22.6659 180.562C22.6659 180.341 22.6225 180.123 22.5381 179.919C22.4537 179.715 22.3299 179.53 22.1739 179.374Z" fill="#E2B12B"/>
<path d="M6.2008 88.3699C6.3512 88.3699 6.50013 88.3402 6.63906 88.2826C6.77799 88.225 6.90421 88.1405 7.01046 88.0341C7.11672 87.9276 7.20094 87.8013 7.25831 87.6623C7.31569 87.5232 7.3451 87.3743 7.34483 87.2239V84.1937C7.35127 84.0394 7.32637 83.8853 7.27173 83.7407C7.21709 83.5962 7.13382 83.4642 7.02686 83.3527C6.9199 83.2412 6.79151 83.1525 6.64938 83.0919C6.50725 83.0313 6.35434 83 6.19983 83C6.04532 83 5.89235 83.0313 5.75022 83.0919C5.60809 83.1525 5.4797 83.2412 5.37274 83.3527C5.26579 83.4642 5.18251 83.5962 5.12787 83.7407C5.07323 83.8853 5.04839 84.0394 5.05483 84.1937V87.2239C5.05483 87.5278 5.17556 87.8193 5.39047 88.0342C5.60539 88.2491 5.89687 88.3699 6.2008 88.3699Z" fill="#E2B12B"/>
<path d="M11.3094 88.1011H8.27733C7.98191 88.1134 7.70269 88.2394 7.49802 88.4528C7.29335 88.6662 7.17908 88.9504 7.17908 89.2461C7.17908 89.5417 7.29335 89.826 7.49802 90.0394C7.70269 90.2527 7.98191 90.3788 8.27733 90.3911H11.3094C11.6048 90.3788 11.8841 90.2527 12.0887 90.0394C12.2934 89.826 12.4077 89.5417 12.4077 89.2461C12.4077 88.9504 12.2934 88.6662 12.0887 88.4528C11.8841 88.2394 11.6048 88.1134 11.3094 88.1011Z" fill="#E2B12B"/>
<path d="M6.26831 90.1885C6.11781 90.1885 5.96879 90.2181 5.82975 90.2757C5.69071 90.3333 5.56439 90.4177 5.45798 90.5241C5.35156 90.6306 5.26711 90.7569 5.20952 90.8959C5.15193 91.035 5.12233 91.184 5.12233 91.3345V94.3646C5.1159 94.519 5.14074 94.6731 5.19538 94.8176C5.25002 94.9621 5.33329 95.0941 5.44025 95.2056C5.54721 95.3171 5.67566 95.4059 5.81779 95.4665C5.95991 95.5271 6.11282 95.5583 6.26734 95.5583C6.42185 95.5583 6.57476 95.5271 6.71689 95.4665C6.85901 95.4059 6.98741 95.3171 7.09436 95.2056C7.20132 95.0941 7.28466 94.9621 7.3393 94.8176C7.39394 94.6731 7.41878 94.519 7.41234 94.3646V91.3404C7.41312 91.1896 7.38409 91.0401 7.32697 90.9005C7.26986 90.7609 7.18577 90.634 7.07949 90.5269C6.9732 90.4199 6.84686 90.3349 6.70766 90.2769C6.56846 90.2188 6.41914 90.1887 6.26831 90.1885Z" fill="#E2B12B"/>
<path d="M4.17825 88.167H1.1461C0.842159 88.167 0.550682 88.2877 0.335766 88.5026C0.12085 88.7176 0.00012207 89.009 0.00012207 89.313C0.00012207 89.6169 0.12085 89.9084 0.335766 90.1233C0.550682 90.3382 0.842159 90.459 1.1461 90.459H4.17825C4.48218 90.459 4.77366 90.3382 4.98858 90.1233C5.20349 89.9084 5.32422 89.6169 5.32422 89.313C5.32422 89.009 5.20349 88.7176 4.98858 88.5026C4.77366 88.2877 4.48218 88.167 4.17825 88.167Z" fill="#E2B12B"/>
<path d="M100.152 5.27437C100.302 5.27463 100.451 5.24522 100.59 5.18782C100.729 5.13042 100.855 5.04617 100.961 4.93988C101.068 4.8336 101.152 4.70739 101.209 4.56848C101.267 4.42956 101.296 4.28068 101.296 4.13037V1.09825C101.283 0.802836 101.157 0.523618 100.944 0.318947C100.731 0.114276 100.446 0 100.151 0C99.8551 0 99.5709 0.114276 99.3575 0.318947C99.1441 0.523618 99.0181 0.802836 99.0057 1.09825V4.13037C99.0057 4.28077 99.0354 4.4297 99.093 4.56863C99.1507 4.70755 99.2351 4.83375 99.3415 4.94C99.4479 5.04626 99.5743 5.13051 99.7133 5.18788C99.8524 5.24526 100.001 5.27463 100.152 5.27437Z" fill="#E2B12B"/>
<path d="M105.271 5.00586H102.239C101.944 5.01818 101.664 5.14418 101.46 5.35756C101.255 5.57095 101.141 5.85519 101.141 6.15086C101.141 6.44653 101.255 6.73075 101.46 6.94413C101.664 7.15751 101.944 7.28355 102.239 7.29587H105.271C105.567 7.28355 105.846 7.15751 106.05 6.94413C106.255 6.73075 106.369 6.44653 106.369 6.15086C106.369 5.85519 106.255 5.57095 106.05 5.35756C105.846 5.14418 105.567 5.01818 105.271 5.00586Z" fill="#E2B12B"/>
<path d="M100.22 7.09522C99.917 7.09522 99.626 7.21574 99.4115 7.43028C99.1969 7.64483 99.0764 7.93581 99.0764 8.23922V11.2713C99.0887 11.5668 99.2148 11.846 99.4282 12.0506C99.6415 12.2553 99.9257 12.3696 100.221 12.3696C100.517 12.3696 100.801 12.2553 101.015 12.0506C101.228 11.846 101.354 11.5668 101.366 11.2713V8.24717C101.367 8.0961 101.339 7.94633 101.281 7.80649C101.224 7.66664 101.14 7.53948 101.033 7.43238C100.927 7.32528 100.8 7.24034 100.661 7.18247C100.521 7.1246 100.371 7.09495 100.22 7.09522Z" fill="#E2B12B"/>
<path d="M98.1305 5.06348H95.0984C94.803 5.07579 94.5237 5.20183 94.3191 5.41521C94.1144 5.62859 94.0001 5.91281 94.0001 6.20848C94.0001 6.50415 94.1144 6.7884 94.3191 7.00178C94.5237 7.21516 94.803 7.34117 95.0984 7.35348H98.1305C98.4259 7.34117 98.7051 7.21516 98.9098 7.00178C99.1144 6.7884 99.2287 6.50415 99.2287 6.20848C99.2287 5.91281 99.1144 5.62859 98.9098 5.41521C98.7051 5.20183 98.4259 5.07579 98.1305 5.06348Z" fill="#E2B12B"/>
<path d="M309.129 105.129C309.236 105.023 309.32 104.897 309.378 104.758C309.435 104.619 309.465 104.47 309.465 104.32C309.465 104.169 309.435 104.02 309.378 103.881C309.32 103.742 309.236 103.616 309.129 103.51L306.987 101.367C306.882 101.254 306.755 101.163 306.614 101.1C306.474 101.037 306.322 101.003 306.168 101C306.014 100.997 305.86 101.025 305.718 101.083C305.575 101.141 305.445 101.227 305.336 101.336C305.227 101.445 305.141 101.575 305.083 101.718C305.025 101.86 304.997 102.014 305 102.168C305.003 102.322 305.037 102.474 305.1 102.615C305.163 102.755 305.254 102.882 305.367 102.987L307.51 105.129C307.616 105.236 307.742 105.32 307.881 105.378C308.02 105.436 308.169 105.465 308.32 105.465C308.47 105.465 308.619 105.436 308.758 105.378C308.897 105.32 309.023 105.236 309.129 105.129Z" fill="#E2B12B"/>
<path d="M312.559 101.319L310.414 103.454C310.213 103.672 310.103 103.959 310.109 104.255C310.115 104.551 310.235 104.834 310.445 105.043C310.654 105.253 310.937 105.373 311.233 105.379C311.53 105.385 311.816 105.275 312.034 105.074L314.179 102.931C314.38 102.713 314.49 102.426 314.484 102.13C314.478 101.834 314.358 101.551 314.148 101.342C313.939 101.132 313.656 101.012 313.36 101.006C313.064 101 312.777 101.11 312.559 101.311V101.319Z" fill="#E2B12B"/>
<path d="M310.463 106.369C310.248 106.584 310.128 106.875 310.128 107.179C310.128 107.482 310.248 107.774 310.463 107.989L312.607 110.131C312.712 110.244 312.839 110.335 312.979 110.398C313.12 110.461 313.272 110.495 313.426 110.498C313.58 110.501 313.733 110.473 313.876 110.415C314.019 110.358 314.149 110.272 314.258 110.163C314.367 110.054 314.453 109.924 314.511 109.781C314.568 109.638 314.597 109.485 314.594 109.331C314.591 109.176 314.557 109.025 314.494 108.884C314.431 108.743 314.34 108.617 314.227 108.512L312.082 106.369C311.976 106.263 311.85 106.178 311.711 106.121C311.572 106.063 311.423 106.033 311.272 106.033C311.122 106.033 310.973 106.063 310.834 106.121C310.695 106.178 310.569 106.263 310.463 106.369Z" fill="#E2B12B"/>
<path d="M307.558 106.416L305.415 108.559C305.213 108.777 305.104 109.063 305.11 109.36C305.115 109.656 305.235 109.939 305.445 110.148C305.655 110.358 305.937 110.478 306.234 110.484C306.53 110.49 306.817 110.38 307.034 110.179L309.177 108.036C309.29 107.931 309.381 107.805 309.444 107.664C309.507 107.523 309.541 107.371 309.544 107.217C309.547 107.063 309.519 106.91 309.461 106.767C309.403 106.624 309.318 106.494 309.209 106.385C309.1 106.276 308.97 106.19 308.827 106.132C308.684 106.075 308.531 106.047 308.376 106.05C308.222 106.052 308.07 106.086 307.93 106.149C307.789 106.212 307.662 106.303 307.558 106.416Z" fill="#E2B12B"/>
<defs>
<clipPath id="clip0_237_13788">
<rect width="3.38848" height="7.97547" fill="white" transform="translate(93.3116 104.28)"/>
</clipPath>
</defs>
</svg>
