<svg width="40" height="40" viewBox="0 0 40 40" fill="none" xmlns="http://www.w3.org/2000/svg">
<circle cx="20" cy="20" r="20" fill="#74B1C0"/>
<path d="M30.36 16.27L30.07 13.5C29.65 10.48 28.28 9.25 25.35 9.25H22.99H21.51H18.47H16.99H14.59C11.65 9.25 10.29 10.48 9.86002 13.53L9.59002 16.28C9.49002 17.35 9.78002 18.39 10.41 19.2C11.17 20.19 12.34 20.75 13.64 20.75C14.9 20.75 16.11 20.12 16.87 19.11C17.55 20.12 18.71 20.75 20 20.75C21.29 20.75 22.42 20.15 23.11 19.15C23.88 20.14 25.07 20.75 26.31 20.75C27.64 20.75 28.84 20.16 29.59 19.12C30.19 18.32 30.46 17.31 30.36 16.27Z" fill="#025366"/>
<path d="M19.35 24.6602C18.08 24.7902 17.12 25.8702 17.12 27.1502V29.8902C17.12 30.1602 17.34 30.3802 17.61 30.3802H22.38C22.65 30.3802 22.87 30.1602 22.87 29.8902V27.5002C22.88 25.4102 21.65 24.4202 19.35 24.6602Z" fill="#025366"/>
<path d="M29.37 22.4001V25.3801C29.37 28.1401 27.13 30.3801 24.37 30.3801C24.1 30.3801 23.88 30.1601 23.88 29.8901V27.5001C23.88 26.2201 23.49 25.2201 22.73 24.5401C22.06 23.9301 21.15 23.6301 20.02 23.6301C19.77 23.6301 19.52 23.6401 19.25 23.6701C17.47 23.8501 16.12 25.3501 16.12 27.1501V29.8901C16.12 30.1601 15.9 30.3801 15.63 30.3801C12.87 30.3801 10.63 28.1401 10.63 25.3801V22.4201C10.63 21.7201 11.32 21.2501 11.97 21.4801C12.24 21.5701 12.51 21.6401 12.79 21.6801C12.91 21.7001 13.04 21.7201 13.16 21.7201C13.32 21.7401 13.48 21.7501 13.64 21.7501C14.8 21.7501 15.94 21.3201 16.84 20.5801C17.7 21.3201 18.82 21.7501 20 21.7501C21.19 21.7501 22.29 21.3401 23.15 20.6001C24.05 21.3301 25.17 21.7501 26.31 21.7501C26.49 21.7501 26.67 21.7401 26.84 21.7201C26.96 21.7101 27.07 21.7001 27.18 21.6801C27.49 21.6401 27.77 21.5501 28.05 21.4601C28.7 21.2401 29.37 21.7201 29.37 22.4001Z" fill="#025366"/>
</svg>
