<svg width="40" height="40" viewBox="0 0 40 40" fill="none" xmlns="http://www.w3.org/2000/svg">
<circle cx="20" cy="20" r="20" fill="#74B1C0"/>
<path d="M30 29.25C30 29.66 29.66 30 29.25 30H10.75C10.34 30 10 29.66 10 29.25C10 28.84 10.34 28.5 10.75 28.5H29.25C29.66 28.5 30 28.84 30 29.25Z" fill="#025366"/>
<path d="M23.3899 12.5198L12.6499 23.2598C12.2399 23.6698 11.5799 23.6698 11.1799 23.2598H11.1699C9.77994 21.8598 9.77994 19.5998 11.1699 18.2098L18.3199 11.0598C19.7199 9.65977 21.9799 9.65977 23.3799 11.0598C23.7899 11.4498 23.7899 12.1198 23.3899 12.5198Z" fill="#025366"/>
<path d="M28.8199 16.4898L25.7699 13.4398C25.3599 13.0298 24.6999 13.0298 24.2999 13.4398L13.5599 24.1798C13.1499 24.5798 13.1499 25.2398 13.5599 25.6498L16.6099 28.7098C18.0099 30.0998 20.2699 30.0998 21.6699 28.7098L28.8099 21.5598C30.2299 20.1598 30.2299 17.8898 28.8199 16.4898ZM20.7599 25.5198L19.5499 26.7398C19.2999 26.9898 18.8899 26.9898 18.6299 26.7398C18.3799 26.4898 18.3799 26.0798 18.6299 25.8198L19.8499 24.5998C20.0899 24.3598 20.5099 24.3598 20.7599 24.5998C21.0099 24.8498 21.0099 25.2798 20.7599 25.5198ZM24.7299 21.5498L22.2899 23.9998C22.0399 24.2398 21.6299 24.2398 21.3699 23.9998C21.1199 23.7498 21.1199 23.3398 21.3699 23.0798L23.8199 20.6298C24.0599 20.3898 24.4799 20.3898 24.7299 20.6298C24.9799 20.8898 24.9799 21.2998 24.7299 21.5498Z" fill="#025366"/>
</svg>
