<svg width="428" height="162" viewBox="0 0 428 162" fill="none" xmlns="http://www.w3.org/2000/svg">
<path d="M597.309 80.8438C597.309 80.8438 540.829 171.102 409.228 120.246C403.264 117.949 386.652 106.225 370.044 99.1374C357.915 93.9643 266.038 56.637 174.127 108.989C124.867 137.047 116.043 167.825 100.238 161.052C55.134 141.737 21.6737 -70.0959 94.6387 -166.842C122.351 -203.592 142.094 -192.516 448.413 -192.171C507.776 -192.105 544.862 -192.478 576.039 -158.397C623.353 -106.668 642.559 8.53218 597.309 80.8438Z" fill="#E2B12B"/>
<path d="M-58.3086 54.6793C-58.3086 54.6793 10.4976 168.057 129.772 93.3411C137.5 88.4998 152.348 79.5832 168.956 72.6292C181.085 67.5532 272.962 30.9273 364.873 82.2952C414.133 109.826 422.957 140.026 438.762 133.38C483.866 114.429 517.326 -93.4243 444.361 -188.352C416.649 -224.412 396.906 -213.544 90.5871 -213.206C31.2239 -213.141 -5.86161 -213.506 -37.0391 -180.066C-84.353 -129.309 -103.559 -16.2736 -58.3086 54.6793Z" fill="#083944"/>
</svg>
