<svg width="25" height="24" viewBox="0 0 25 24" fill="none" xmlns="http://www.w3.org/2000/svg">
<path d="M12.7203 12.78C12.6503 12.77 12.5603 12.77 12.4803 12.78C10.7203 12.72 9.32031 11.28 9.32031 9.50998C9.32031 7.69998 10.7803 6.22998 12.6003 6.22998C14.4103 6.22998 15.8803 7.69998 15.8803 9.50998C15.8703 11.28 14.4803 12.72 12.7203 12.78Z" stroke="#E2B12B" stroke-width="1.5" stroke-linecap="round" stroke-linejoin="round"/>
<path d="M19.3399 19.3801C17.5599 21.0101 15.1999 22.0001 12.5999 22.0001C9.99986 22.0001 7.63986 21.0101 5.85986 19.3801C5.95986 18.4401 6.55986 17.5201 7.62986 16.8001C10.3699 14.9801 14.8499 14.9801 17.5699 16.8001C18.6399 17.5201 19.2399 18.4401 19.3399 19.3801Z" stroke="#E2B12B" stroke-width="1.5" stroke-linecap="round" stroke-linejoin="round"/>
<path d="M12.6001 22C18.1229 22 22.6001 17.5228 22.6001 12C22.6001 6.47715 18.1229 2 12.6001 2C7.07725 2 2.6001 6.47715 2.6001 12C2.6001 17.5228 7.07725 22 12.6001 22Z" stroke="#007D99" stroke-width="1.5" stroke-linecap="round" stroke-linejoin="round"/>
</svg>
