<svg width="25" height="24" viewBox="0 0 25 24" fill="none" xmlns="http://www.w3.org/2000/svg">
<path d="M12.7199 12.7805C12.6499 12.7705 12.5599 12.7705 12.4799 12.7805C10.7199 12.7205 9.31995 11.2805 9.31995 9.51047C9.31995 7.70047 10.7799 6.23047 12.5999 6.23047C14.4099 6.23047 15.8799 7.70047 15.8799 9.51047C15.8699 11.2805 14.4799 12.7205 12.7199 12.7805Z" stroke="#8C8F95" stroke-width="1.5" stroke-linecap="round" stroke-linejoin="round"/>
<path d="M19.34 19.3796C17.56 21.0096 15.2 21.9996 12.6 21.9996C9.99999 21.9996 7.63999 21.0096 5.85999 19.3796C5.95999 18.4396 6.55999 17.5196 7.62999 16.7996C10.37 14.9796 14.85 14.9796 17.57 16.7996C18.64 17.5196 19.24 18.4396 19.34 19.3796Z" stroke="#8C8F95" stroke-width="1.5" stroke-linecap="round" stroke-linejoin="round"/>
<path d="M12.6 22C18.1228 22 22.6 17.5228 22.6 12C22.6 6.47715 18.1228 2 12.6 2C7.07713 2 2.59998 6.47715 2.59998 12C2.59998 17.5228 7.07713 22 12.6 22Z" stroke="#8C8F95" stroke-width="1.5" stroke-linecap="round" stroke-linejoin="round"/>
</svg>
