<svg width="106" height="96" viewBox="0 0 106 96" fill="none" xmlns="http://www.w3.org/2000/svg">
<path d="M6.53984 78.8479H8.10282L8.473 78.9713V80.2464L8.10282 80.3698H0V78.8068H4.7712V77.0793C4.7712 76.1333 4.56555 75.434 4.19537 74.9816C3.82519 74.5291 3.20822 74.3235 2.3856 74.3235H0.616966V72.8428H2.34447C3.74293 72.8428 4.81234 73.1718 5.51156 73.8711C6.21079 74.5703 6.53984 75.5986 6.53984 77.0381V78.8479Z" fill="white"/>
<path d="M7.85547 80.4109L7.8966 78.8479H15.547V79.0947C15.4236 78.9713 15.3002 78.8068 15.1768 78.6011C15.0534 78.3543 14.8889 78.0253 14.6832 77.5728L14.1897 76.4623C13.9429 75.8865 13.6961 75.434 13.4904 75.1461C13.2848 74.8582 13.038 74.6525 12.7912 74.5703C12.5444 74.4469 12.2154 74.4058 11.8041 74.4058H9.7475V72.8428H11.8041C12.5444 72.8428 13.1202 72.925 13.5727 73.0896C14.0251 73.2541 14.4364 73.542 14.7655 73.9533C15.0945 74.3646 15.4236 74.9816 15.7526 75.7631L16.2051 76.9147C16.4107 77.4083 16.6164 77.8196 16.7809 78.0664C16.9454 78.3543 17.1511 78.5189 17.2745 78.6423C17.439 78.7656 17.7681 78.8068 18.3028 78.8068L17.6858 80.4109H17.1922H7.85547ZM11.475 83.2078C11.2693 83.0021 11.1871 82.7554 11.1871 82.5086C11.1871 82.2207 11.2693 81.9739 11.475 81.7682C11.6807 81.5626 11.9274 81.4803 12.2154 81.4803C12.5033 81.4803 12.7501 81.5626 12.9557 81.7682C13.1614 81.9739 13.2436 82.2207 13.2436 82.5086C13.2436 82.7965 13.1614 83.0433 12.9557 83.2078C12.7501 83.4135 12.5033 83.4957 12.2154 83.4957C11.8863 83.4957 11.6395 83.4135 11.475 83.2078Z" fill="white"/>
<path d="M20.7711 79.5063C20.1953 78.8893 19.9073 77.9844 19.9073 76.8327L19.8662 72.0204V69.1001H21.7171V72.0204L21.676 76.8327C21.676 77.5731 21.8405 78.1078 22.1284 78.4369C22.4163 78.7659 22.9099 78.9304 23.5269 78.9304H23.6091L23.9793 79.0538V80.3289L23.6091 80.4523H23.2801C22.1696 80.4111 21.3469 80.0821 20.7711 79.5063Z" fill="white"/>
<path d="M25.2959 77.6137L26.1185 73.6652L29.7792 73.624C30.6018 73.624 31.2599 73.8297 31.7946 74.2821C32.3293 74.6934 32.6995 75.2281 32.864 75.804C33.0697 76.3798 33.0697 77.0379 32.9052 77.696C32.7407 78.3541 32.4527 78.8888 32.0414 79.3412C31.6301 79.7937 31.0954 80.0816 30.4373 80.2461C29.8203 80.4107 29.1622 80.4107 28.4219 80.2461C27.3936 79.9993 26.6944 79.588 26.3242 78.8888L25.9952 79.3001C25.7895 79.5469 25.5427 79.7526 25.2959 79.9171C24.9257 80.1639 24.5556 80.2873 24.1854 80.3695H23.5684L23.1982 80.2461V78.9711L23.5684 78.8477C23.7329 78.8477 23.8975 78.8477 24.062 78.8065C24.4322 78.7654 24.7612 78.6009 24.9669 78.3541C25.0903 78.2718 25.1725 77.9839 25.2959 77.6137ZM27.3113 75.3927L27.188 75.9274C27.0234 76.6266 27.1057 77.2436 27.3525 77.6549C27.6404 78.1073 28.134 78.3952 28.8332 78.5598C29.2856 78.642 29.6558 78.6831 30.026 78.6009C30.3962 78.5186 30.6841 78.3952 30.9309 78.1896C31.1777 77.9839 31.3011 77.696 31.3833 77.367C31.5067 76.8322 31.3833 76.3798 31.0543 76.0096C30.7252 75.6394 30.1905 75.4338 29.409 75.4338L27.3113 75.3927Z" fill="white"/>
<path d="M44.6267 80.4113C44.4622 81.3573 44.092 82.0976 43.5162 82.6735C42.6935 83.4961 41.4596 83.8663 39.7732 83.8663H37.8401V82.2622H39.8144C40.7604 82.2622 41.4596 82.0976 41.9532 81.7686C42.4468 81.4395 42.7347 80.9871 42.8581 80.4113H41.7475C40.4313 80.4113 39.4442 80.0822 38.745 79.4652C38.0869 78.8483 37.7578 77.9023 37.7578 76.6272C37.7578 75.928 37.9223 75.2699 38.2103 74.694C38.4982 74.1182 38.9095 73.6658 39.4442 73.3779C39.9789 73.0488 40.5959 72.8843 41.254 72.8843C41.9532 72.8843 42.529 73.0488 43.0637 73.3779C43.5984 73.7069 44.0097 74.1593 44.2977 74.7763C44.5856 75.3933 44.7501 76.0925 44.7501 76.874V78.8894H46.2719L46.6421 79.0128V80.2879L46.2719 80.4113H44.6267ZM42.9815 78.8483V76.8329C42.9815 76.0514 42.8169 75.4344 42.529 75.0231C42.2411 74.6118 41.7887 74.4061 41.254 74.4061C40.9249 74.4061 40.637 74.4884 40.3491 74.694C40.1023 74.8586 39.8966 75.1465 39.7321 75.4755C39.5676 75.8046 39.5264 76.1748 39.5264 76.6272C39.5264 77.4087 39.691 77.9434 40.0612 78.3136C40.4313 78.6838 40.966 78.8483 41.7064 78.8483H42.9815Z" fill="white"/>
<path d="M47.6712 80.4112H46.1905L45.8203 80.2878V78.9716L46.1905 78.8482H47.4244C48.0414 78.8482 48.535 78.6837 48.8229 78.3546C49.1108 78.0256 49.2753 77.532 49.2753 76.7916V73.0898H51.1262V76.7916C51.0851 77.9844 50.756 78.8482 50.1802 79.4652C49.6044 80.0821 48.7817 80.4112 47.6712 80.4112ZM47.7123 83.2081C47.5067 83.0024 47.4244 82.7556 47.4244 82.5089C47.4244 82.2209 47.5067 81.9742 47.7123 81.7685C47.918 81.5628 48.1648 81.4806 48.4527 81.4806C48.7406 81.4806 48.9874 81.5628 49.1931 81.7685C49.3987 81.9742 49.481 82.2209 49.481 82.5089C49.481 82.7968 49.3987 83.0436 49.1931 83.2081C48.9874 83.4137 48.7406 83.496 48.4527 83.496C48.1648 83.496 47.918 83.4137 47.7123 83.2081Z" fill="white"/>
<path d="M53.3057 69.1001H55.0743V72.1027V80.4111H53.3057V72.1027V69.1001Z" fill="white"/>
<path d="M69.1416 80.411H68.6891C67.9899 80.411 67.414 80.2465 66.9205 79.9586C66.468 79.6707 66.139 79.3416 65.9333 78.8892C65.4398 79.3416 64.7405 79.6296 63.8356 79.7118C63.7123 79.7118 63.5477 79.7118 63.4243 79.7118C62.8485 79.7118 62.3138 79.5884 61.7791 79.3828C61.2444 79.1771 60.7919 78.8069 60.4218 78.3134C60.0516 77.8198 59.8459 77.244 59.7637 76.5447C59.7637 76.4213 59.7637 76.2979 59.7637 76.1745C59.7637 75.6398 59.8871 75.1051 60.1338 74.6116C60.3806 74.118 60.7919 73.6655 61.3678 73.3365C61.8202 73.0897 62.3138 72.9252 62.8896 72.9252C63.0542 72.9252 63.2598 72.9252 63.4243 72.9663L65.6865 73.2542V72.4727H67.2495V76.8738C67.2495 77.5319 67.4141 78.0254 67.702 78.3545C68.031 78.6835 68.4423 78.8481 69.0593 78.8481H69.1416L69.5117 79.0126V80.2877L69.1416 80.411ZM63.3009 77.902C63.4243 77.902 63.5477 77.902 63.6711 77.8609C65.0284 77.7375 65.6865 77.0383 65.6865 75.7632C65.6865 75.681 65.6865 75.5576 65.6865 75.4753V74.9406L63.5066 74.6527C63.3421 74.6527 63.1775 74.6116 63.013 74.6116C62.4783 74.6116 62.1081 74.735 61.7791 74.9817C61.45 75.2697 61.2855 75.6398 61.2855 76.0923V76.2568C61.3267 76.5859 61.4089 76.8738 61.6146 77.1206C61.8202 77.3673 62.1081 77.5319 62.4372 77.6553C62.7251 77.8609 63.013 77.902 63.3009 77.902ZM62.1081 71.7324C61.9025 71.5267 61.8202 71.2799 61.8202 71.0332C61.8202 70.7452 61.9025 70.4985 62.1081 70.2928C62.3138 70.0871 62.5606 70.0049 62.8485 70.0049C63.1364 70.0049 63.3832 70.0871 63.5889 70.2928C63.7945 70.4985 63.8768 70.7452 63.8768 71.0332C63.8768 71.3211 63.7945 71.5679 63.5889 71.7324C63.3832 71.938 63.1364 72.0203 62.8485 72.0203C62.5606 72.0203 62.3138 71.938 62.1081 71.7324ZM64.6171 71.7324C64.4115 71.5267 64.3292 71.2799 64.3292 71.0332C64.3292 70.7452 64.4115 70.4985 64.6171 70.2928C64.8228 70.0871 65.0696 70.0049 65.3575 70.0049C65.6454 70.0049 65.8922 70.0871 66.0979 70.2928C66.3035 70.4985 66.3858 70.7452 66.3858 71.0332C66.3858 71.3211 66.3035 71.5679 66.0979 71.7324C65.8922 71.938 65.6454 72.0203 65.3575 72.0203C65.0696 72.0203 64.8228 71.938 64.6171 71.7324Z" fill="white"/>
<path d="M71.5274 79.3412C71.3217 79.588 71.0749 79.7937 70.8281 79.9582C70.458 80.205 70.0878 80.3284 69.7176 80.4107H69.1006L68.7305 80.2873V78.9711L69.1006 78.8477C69.2652 78.8477 69.4297 78.8477 69.5942 78.8065C69.9644 78.7654 70.2934 78.6009 70.4991 78.3541C70.6225 78.2307 70.7048 77.9839 70.8281 77.6137L71.6508 73.6652L75.3114 73.624C76.1341 73.624 76.7922 73.8297 77.3269 74.2821C77.8616 74.6934 78.2317 75.2281 78.3963 75.804C78.6019 76.3798 78.6019 77.0379 78.4374 77.696C78.3963 77.8194 78.3551 77.9428 78.3551 78.0662C78.4374 78.1896 78.5197 78.2718 78.6019 78.3541C78.8898 78.6831 79.3423 78.8477 79.9592 78.8477H80.1649L80.5351 79.0122V80.2873L80.1649 80.4107H79.6302C78.9721 80.4107 78.3963 80.2873 77.9027 79.9582C77.697 79.8348 77.5325 79.7114 77.368 79.5469C76.9978 79.8759 76.5042 80.1227 75.9695 80.2461C75.3526 80.4107 74.6945 80.4107 73.9541 80.2461C72.9258 79.9993 72.2266 79.588 71.8564 78.8888L71.5274 79.3412ZM72.8024 75.3927L72.679 75.9274C72.5145 76.6266 72.5968 77.2436 72.8436 77.6549C73.1315 78.1073 73.6251 78.3952 74.3243 78.5598C74.7767 78.642 75.1469 78.6831 75.5171 78.6009C75.8873 78.5186 76.1752 78.3952 76.422 78.1896C76.6688 77.9839 76.7922 77.696 76.8744 77.367C76.9978 76.8322 76.8744 76.3798 76.5454 76.0096C76.2163 75.6394 75.6816 75.4338 74.9001 75.4338L72.8024 75.3927Z" fill="white"/>
<path d="M79.7949 80.4109L79.8361 78.8479H87.4864V79.0947C87.363 78.9713 87.2396 78.8068 87.1163 78.6011C86.9929 78.3543 86.8283 78.0253 86.6227 77.5728L86.1291 76.4623C85.8823 75.8865 85.6355 75.434 85.4299 75.1461C85.2242 74.8582 84.9774 74.6525 84.7307 74.5703C84.4839 74.4469 84.1548 74.4058 83.7435 74.4058H81.687V72.8428H83.7435C84.4839 72.8428 85.0597 72.925 85.5121 73.0896C85.9646 73.2541 86.3759 73.542 86.7049 73.9533C87.034 74.3646 87.363 74.9816 87.6921 75.7631L88.1445 76.9147C88.3502 77.4083 88.5558 77.8196 88.7204 78.0664C88.8849 78.3543 89.0905 78.5189 89.2551 78.6423C89.4196 78.7656 89.7075 78.8068 90.0777 78.8479H90.7358L91.106 78.9713V80.2875L90.6947 80.3698H79.7949V80.4109Z" fill="white"/>
<path d="M96.6993 79.0127V80.2877L96.3291 80.4111H95.8767C95.1775 80.4111 94.6016 80.2466 94.2314 79.9587C93.8613 79.6708 93.5322 79.2595 93.3266 78.7659H93.5733C93.4088 79.2595 93.0386 79.6708 92.5451 79.9587C92.0104 80.2466 91.4757 80.4111 90.8587 80.4111H90.7764L90.4062 80.2877V78.9716L90.7764 78.8482H90.8587C91.4345 78.8482 91.887 78.6836 92.216 78.3546C92.5039 78.0255 92.6685 77.532 92.6273 76.8739V72.0204V69.1001H94.4782V72.0204V76.8739C94.4371 77.532 94.6016 78.0255 94.8895 78.3546C95.1775 78.6836 95.6299 78.8482 96.2469 78.8482H96.3291L96.6993 79.0127Z" fill="white"/>
<path d="M97.9746 77.6137L98.7973 73.6652L102.458 73.624C103.281 73.624 103.939 73.8297 104.473 74.2821C105.008 74.6934 105.378 75.2281 105.543 75.804C105.748 76.3798 105.748 77.0379 105.584 77.696C105.419 78.3541 105.131 78.8888 104.72 79.3412C104.309 79.7937 103.774 80.0816 103.116 80.2461C102.499 80.4107 101.841 80.4107 101.101 80.2461C100.072 79.9993 99.3731 79.588 99.0029 78.8888L98.6739 79.3001C98.4682 79.5469 98.2214 79.7526 97.9746 79.9171C97.6045 80.1639 97.2343 80.2873 96.8641 80.3695H96.2471L95.877 80.2461V78.9711L96.2471 78.8477C96.4117 78.8477 96.5762 78.8477 96.7407 78.8065C97.1109 78.7654 97.4399 78.6009 97.6456 78.3541C97.7278 78.2718 97.8512 77.9839 97.9746 77.6137ZM99.9489 75.3927L99.8255 75.9274C99.661 76.6266 99.7433 77.2436 99.9901 77.6549C100.278 78.1073 100.772 78.3952 101.471 78.5598C101.923 78.642 102.293 78.6831 102.664 78.6009C103.034 78.5186 103.322 78.3952 103.568 78.1896C103.815 77.9839 103.939 77.696 104.021 77.367C104.144 76.8322 104.021 76.3798 103.692 76.0096C103.363 75.6394 102.828 75.4338 102.047 75.4338L99.9489 75.3927Z" fill="white"/>
<path d="M5.8814 95.8351L5.18217 93.6963H2.26186L1.5215 95.8351H0.123047L3.00222 87.7734H4.40068L7.27985 95.8351H5.8814ZM3.74258 89.2542L2.59091 92.6269H4.81199L3.70145 89.2542H3.74258Z" fill="#E2B12B"/>
<path d="M17.1516 95.8761H13.9434V87.8145H17.1516C17.8508 87.8145 18.4266 88.0201 18.8791 88.3903C19.3315 88.7605 19.5372 89.254 19.5372 89.871C19.5372 90.3234 19.4138 90.6936 19.1259 91.0227C18.838 91.3517 18.5089 91.5574 18.1387 91.6396V91.5985C18.6734 91.6808 19.0847 91.8864 19.4138 92.2566C19.7428 92.6268 19.9074 93.0792 19.9074 93.6139C19.9074 94.3132 19.6606 94.889 19.167 95.3003C18.6734 95.6705 18.0153 95.8761 17.1516 95.8761ZM15.2596 88.925V91.1872H16.5757C17.604 91.1872 18.1387 90.7759 18.1799 89.9944C18.1799 89.2952 17.7274 88.925 16.8637 88.925H15.2596ZM15.2596 94.7245H16.9048C17.9742 94.7245 18.55 94.3132 18.55 93.4494C18.55 92.6268 17.9742 92.2155 16.8637 92.2155H15.3007V94.7245H15.2596Z" fill="#E2B12B"/>
<path d="M30.1902 87.6914C30.9717 87.6914 31.6298 87.8559 32.1645 88.185C32.7403 88.514 33.1516 89.0076 33.4807 89.6246C33.7686 90.2415 33.9331 90.9819 33.9331 91.8456C33.9331 92.7094 33.7686 93.4086 33.4807 94.0667C33.1928 94.6837 32.7403 95.1773 32.1645 95.5063C31.5886 95.8354 30.9306 95.9999 30.1902 95.9999C29.4087 95.9999 28.7506 95.8354 28.2159 95.5063C27.6401 95.1773 27.2288 94.6837 26.8997 94.0667C26.6118 93.4498 26.4473 92.7094 26.4473 91.8456C26.4473 90.9819 26.6118 90.2415 26.8997 89.6246C27.1876 89.0076 27.6401 88.514 28.2159 88.185C28.7917 87.8559 29.4498 87.6914 30.1902 87.6914ZM30.1902 88.8842C29.4498 88.8842 28.874 89.131 28.4627 89.6657C28.0514 90.2004 27.8046 90.8996 27.8046 91.8456C27.8046 92.7505 28.0102 93.4909 28.4627 94.0256C28.874 94.5603 29.4498 94.8071 30.1902 94.8071C30.9306 94.8071 31.5064 94.5603 31.9177 94.0256C32.329 93.4909 32.5347 92.7917 32.5347 91.8456C32.5347 90.9408 32.329 90.2004 31.9177 89.6657C31.5064 89.131 30.9306 88.8842 30.1902 88.8842Z" fill="#E2B12B"/>
<path d="M57.049 95.8761H55.8151V89.9944H55.8562L53.5117 95.7939H52.5246L50.139 89.9944H50.1801V95.8761H48.9873V87.8145H50.468L53.0181 94.0664H52.977L55.5271 87.8145H57.049V95.8761Z" fill="#E2B12B"/>
<path d="M69.4291 95.8351L68.7299 93.6963H65.8096L65.1104 95.8351H63.7119L66.5911 87.7734H67.9895L70.8687 95.8351H69.4291ZM67.2903 89.2542L66.1387 92.6269H68.3597L67.2081 89.2542H67.2903Z" fill="#E2B12B"/>
<path d="M76.9971 93.6962H78.3133C78.3133 94.0252 78.4367 94.3132 78.6423 94.5188C78.848 94.7245 79.0948 94.8067 79.4238 94.8067C80.2053 94.8067 80.5755 94.3543 80.6166 93.4494V87.8145H81.9328V93.4905C81.9328 94.272 81.7271 94.9301 81.2747 95.3414C80.8223 95.7527 80.2053 95.9995 79.4238 95.9995C78.9302 95.9995 78.5189 95.9173 78.1487 95.7116C77.7786 95.506 77.4906 95.2592 77.285 94.889C77.0793 94.6011 76.9971 94.1898 76.9971 93.6962Z" fill="#E2B12B"/>
<path d="M90.4881 87.8145H89.1719V95.8761H90.4881V87.8145Z" fill="#E2B12B"/>
<path d="M97.7686 87.8145H100.607C101.799 87.8145 102.704 88.1846 103.362 88.8839C104.02 89.5831 104.35 90.5702 104.35 91.8453C104.35 93.1204 104.02 94.1075 103.362 94.8067C102.704 95.506 101.758 95.8761 100.607 95.8761H97.7686V87.8145ZM99.0847 88.9661V94.6833H100.483C101.306 94.6833 101.923 94.4366 102.375 93.943C102.828 93.4494 103.033 92.7502 103.033 91.8453C103.033 90.8993 102.828 90.2001 102.375 89.7065C101.923 89.2129 101.306 88.9661 100.483 88.9661H99.0847Z" fill="#E2B12B"/>
<path d="M105.666 85.0996H0V85.7988H105.666V85.0996Z" fill="white"/>
<path d="M38.7048 61.4086H25.9131V35.0847C25.9131 28.0102 31.6303 22.293 38.7048 22.293V61.4086Z" fill="white"/>
<g clip-path="url(#clip0_659_4575)">
<path d="M59.2703 31.2598H46.4785V61.3677H59.2703V31.2598Z" fill="#E2B12B"/>
</g>
<path d="M65.8925 15.2185H52.8539V0H37.9234C31.3013 0 25.9131 5.38817 25.9131 12.0103V15.2185H36.8951C36.8951 23.0334 43.2293 29.3676 51.0442 29.3676H67.2087V61.4087H80.0004V29.3676C80.0416 21.5527 73.7074 15.2185 65.8925 15.2185Z" fill="#E2B12B"/>
<defs>
<clipPath id="clip0_659_4575">
<rect width="12.7918" height="30.1079" fill="white" transform="translate(46.4785 31.2598)"/>
</clipPath>
</defs>
</svg>
